<svg width="14" height="14" viewBox="0 0 14 14" fill="none" xmlns="http://www.w3.org/2000/svg">
<path d="M7.00033 13.2709C3.54116 13.2709 0.729492 10.4592 0.729492 7.00008C0.729492 3.54091 3.54116 0.729248 7.00033 0.729248C10.4595 0.729248 13.2712 3.54091 13.2712 7.00008C13.2712 10.4592 10.4595 13.2709 7.00033 13.2709ZM7.00033 1.60425C4.02533 1.60425 1.60449 4.02508 1.60449 7.00008C1.60449 9.97508 4.02533 12.3959 7.00033 12.3959C9.97533 12.3959 12.3962 9.97508 12.3962 7.00008C12.3962 4.02508 9.97533 1.60425 7.00033 1.60425Z" fill="#79E7BA"/>
<path d="M8.45801 7.4375H4.95801C4.71884 7.4375 4.52051 7.23917 4.52051 7C4.52051 6.76083 4.71884 6.5625 4.95801 6.5625H8.45801C8.69717 6.5625 8.89551 6.76083 8.89551 7C8.89551 7.23917 8.69717 7.4375 8.45801 7.4375Z" fill="#79E7BA"/>
<path d="M7.29151 9.18751C7.18068 9.18751 7.06984 9.14667 6.98234 9.05917C6.81318 8.89001 6.81318 8.61001 6.98234 8.44084L8.42318 7.00001L6.98234 5.55917C6.81318 5.39001 6.81318 5.11001 6.98234 4.94084C7.15151 4.77167 7.43151 4.77167 7.60068 4.94084L9.35068 6.69084C9.51984 6.86001 9.51984 7.14001 9.35068 7.30917L7.60068 9.05917C7.51318 9.14667 7.40234 9.18751 7.29151 9.18751Z" fill="#79E7BA"/>
</svg>
