<svg width="522" height="140" viewBox="0 0 522 140" fill="none" xmlns="http://www.w3.org/2000/svg">
<g filter="url(#filter0_d_1431_36820)">
<path d="M69.1211 23.6506C69.1211 18.7382 73.1034 14.7559 78.0159 14.7559H512.313C517.225 14.7559 521.208 18.7382 521.208 23.6506V109.777C521.208 114.689 517.225 118.671 512.313 118.671H78.0159C73.1034 118.671 69.1211 114.689 69.1211 109.777V23.6506Z" stroke="#54F5FF" stroke-opacity="0.61" stroke-width="0.773459" shape-rendering="crispEdges"/>
<path d="M91.4013 43.0626C90.6433 43.0626 90.0009 42.9218 89.4739 42.6402C88.9541 42.3587 88.5571 41.9328 88.2827 41.3625C88.0156 40.7922 87.8821 40.0775 87.8821 39.2185C87.8821 37.9335 88.1925 36.9734 88.8133 36.3381C89.4342 35.6956 90.3041 35.3744 91.423 35.3744C92.0655 35.3744 92.6286 35.4791 93.1122 35.6884C93.6031 35.8905 93.9857 36.1973 94.26 36.6088C94.5416 37.0131 94.6823 37.5292 94.6823 38.1573H93.8161C93.8161 37.6881 93.7186 37.3054 93.5237 37.0095C93.3288 36.7063 93.0509 36.4825 92.6899 36.3381C92.3362 36.1865 91.9103 36.1107 91.4122 36.1107C90.878 36.1107 90.4123 36.2154 90.0153 36.4247C89.6183 36.6341 89.3114 36.9625 89.0949 37.4101C88.8783 37.8505 88.77 38.428 88.77 39.1427V39.3701C88.77 40.0703 88.8783 40.637 89.0949 41.0701C89.3114 41.5033 89.6183 41.8209 90.0153 42.023C90.4123 42.2252 90.8816 42.3262 91.423 42.3262C91.9211 42.3262 92.3506 42.254 92.7116 42.1097C93.0725 41.9581 93.3504 41.7343 93.5454 41.4383C93.7403 41.1351 93.8377 40.7489 93.8377 40.2797H94.6823C94.6823 40.9149 94.538 41.4383 94.2492 41.8498C93.9677 42.2613 93.5815 42.5681 93.0906 42.7702C92.5997 42.9651 92.0366 43.0626 91.4013 43.0626ZM95.5532 42.9326V35.1037H96.3328V42.9326H95.5532ZM98.8438 43.0626C98.6201 43.0626 98.3999 43.0337 98.1833 42.9759C97.9667 42.9254 97.7718 42.8424 97.5986 42.7269C97.4325 42.6042 97.299 42.4417 97.1979 42.2396C97.0969 42.0375 97.0463 41.7884 97.0463 41.4924C97.0463 41.1026 97.1402 40.785 97.3279 40.5395C97.5228 40.2869 97.7935 40.092 98.14 39.9548C98.4865 39.8104 98.8944 39.713 99.3636 39.6624C99.8401 39.6119 100.356 39.5866 100.912 39.5866V38.8611C100.912 38.6301 100.869 38.4352 100.782 38.2764C100.703 38.1104 100.558 37.984 100.349 37.8974C100.147 37.8036 99.8581 37.7566 99.4827 37.7566C99.1218 37.7566 98.8366 37.8036 98.6273 37.8974C98.4179 37.9912 98.2699 38.114 98.1833 38.2656C98.1039 38.4099 98.0642 38.5724 98.0642 38.7528V38.9261H97.317C97.3098 38.89 97.3062 38.8539 97.3062 38.8178C97.3062 38.7817 97.3062 38.7384 97.3062 38.6879C97.3062 38.3269 97.4001 38.031 97.5877 37.7999C97.7754 37.5689 98.0425 37.3957 98.389 37.2802C98.7356 37.1647 99.1326 37.1069 99.5802 37.1069C100.035 37.1069 100.418 37.1755 100.728 37.3127C101.038 37.4426 101.277 37.6303 101.443 37.8757C101.609 38.1212 101.692 38.4172 101.692 38.7637V42.0339C101.692 42.171 101.717 42.2685 101.768 42.3262C101.825 42.3768 101.901 42.402 101.995 42.402H102.45V42.9001C102.341 42.9434 102.226 42.9795 102.103 43.0084C101.988 43.0373 101.865 43.0517 101.735 43.0517C101.547 43.0517 101.396 43.012 101.28 42.9326C101.172 42.8532 101.093 42.7413 101.042 42.5969C100.999 42.4526 100.97 42.2937 100.955 42.1205H100.88C100.742 42.3154 100.566 42.485 100.349 42.6294C100.14 42.7666 99.9086 42.8713 99.656 42.9434C99.4033 43.0229 99.1326 43.0626 98.8438 43.0626ZM99.0063 42.402C99.2445 42.402 99.4755 42.3623 99.6993 42.2829C99.9231 42.2035 100.125 42.0952 100.306 41.9581C100.486 41.8137 100.631 41.644 100.739 41.4491C100.854 41.2542 100.912 41.0376 100.912 40.7994V40.2147C100.241 40.2147 99.6776 40.2508 99.2228 40.323C98.7753 40.3952 98.436 40.5215 98.205 40.702C97.9812 40.8824 97.8693 41.1351 97.8693 41.46C97.8693 41.6765 97.9162 41.857 98.0101 42.0014C98.1111 42.1385 98.2483 42.2396 98.4215 42.3046C98.5948 42.3695 98.7897 42.402 99.0063 42.402ZM102.829 36.0674V35.1037H103.609V36.0674H102.829ZM102.829 42.9326V37.2369H103.609V42.9326H102.829ZM104.702 42.9326V37.2369H105.319L105.395 38.1356H105.47C105.629 37.8757 105.802 37.6736 105.99 37.5292C106.178 37.3776 106.384 37.2694 106.607 37.2044C106.831 37.1394 107.069 37.1069 107.322 37.1069C107.705 37.1069 108.033 37.1863 108.307 37.3452C108.582 37.4968 108.777 37.7602 108.892 38.1356H108.957C109.109 37.883 109.278 37.6844 109.466 37.5401C109.654 37.3885 109.859 37.2802 110.083 37.2152C110.314 37.143 110.556 37.1069 110.809 37.1069C111.148 37.1069 111.448 37.1647 111.707 37.2802C111.967 37.3957 112.17 37.587 112.314 37.8541C112.465 38.1212 112.541 38.4821 112.541 38.9369V42.9326H111.762V39.0236C111.762 38.7781 111.729 38.576 111.664 38.4172C111.606 38.2511 111.523 38.1248 111.415 38.0382C111.307 37.9515 111.181 37.8902 111.036 37.8541C110.892 37.818 110.737 37.7999 110.571 37.7999C110.296 37.7999 110.04 37.8721 109.802 38.0165C109.571 38.1537 109.379 38.3522 109.228 38.6121C109.083 38.872 109.011 39.1896 109.011 39.565V42.9326H108.232V39.0236C108.232 38.7781 108.203 38.576 108.145 38.4172C108.087 38.2511 108.004 38.1248 107.896 38.0382C107.788 37.9515 107.661 37.8902 107.517 37.8541C107.38 37.818 107.232 37.7999 107.073 37.7999C106.799 37.7999 106.539 37.8721 106.293 38.0165C106.055 38.1537 105.86 38.3522 105.709 38.6121C105.557 38.872 105.481 39.1896 105.481 39.565V42.9326H104.702ZM114.993 43.0626C114.769 43.0626 114.549 43.0337 114.332 42.9759C114.115 42.9254 113.921 42.8424 113.747 42.7269C113.581 42.6042 113.448 42.4417 113.347 42.2396C113.246 42.0375 113.195 41.7884 113.195 41.4924C113.195 41.1026 113.289 40.785 113.477 40.5395C113.672 40.2869 113.942 40.092 114.289 39.9548C114.635 39.8104 115.043 39.713 115.512 39.6624C115.989 39.6119 116.505 39.5866 117.061 39.5866V38.8611C117.061 38.6301 117.017 38.4352 116.931 38.2764C116.851 38.1104 116.707 37.984 116.498 37.8974C116.296 37.8036 116.007 37.7566 115.631 37.7566C115.27 37.7566 114.985 37.8036 114.776 37.8974C114.567 37.9912 114.419 38.114 114.332 38.2656C114.253 38.4099 114.213 38.5724 114.213 38.7528V38.9261H113.466C113.459 38.89 113.455 38.8539 113.455 38.8178C113.455 38.7817 113.455 38.7384 113.455 38.6879C113.455 38.3269 113.549 38.031 113.736 37.7999C113.924 37.5689 114.191 37.3957 114.538 37.2802C114.884 37.1647 115.281 37.1069 115.729 37.1069C116.184 37.1069 116.566 37.1755 116.877 37.3127C117.187 37.4426 117.425 37.6303 117.591 37.8757C117.757 38.1212 117.84 38.4172 117.84 38.7637V42.0339C117.84 42.171 117.866 42.2685 117.916 42.3262C117.974 42.3768 118.05 42.402 118.144 42.402H118.598V42.9001C118.49 42.9434 118.375 42.9795 118.252 43.0084C118.136 43.0373 118.014 43.0517 117.884 43.0517C117.696 43.0517 117.544 43.012 117.429 42.9326C117.321 42.8532 117.241 42.7413 117.191 42.5969C117.147 42.4526 117.119 42.2937 117.104 42.1205H117.028C116.891 42.3154 116.714 42.485 116.498 42.6294C116.288 42.7666 116.057 42.8713 115.805 42.9434C115.552 43.0229 115.281 43.0626 114.993 43.0626ZM115.155 42.402C115.393 42.402 115.624 42.3623 115.848 42.2829C116.072 42.2035 116.274 42.0952 116.454 41.9581C116.635 41.8137 116.779 41.644 116.888 41.4491C117.003 41.2542 117.061 41.0376 117.061 40.7994V40.2147C116.389 40.2147 115.826 40.2508 115.372 40.323C114.924 40.3952 114.585 40.5215 114.354 40.702C114.13 40.8824 114.018 41.1351 114.018 41.46C114.018 41.6765 114.065 41.857 114.159 42.0014C114.26 42.1385 114.397 42.2396 114.57 42.3046C114.744 42.3695 114.938 42.402 115.155 42.402ZM121.544 43.0626C121.155 43.0626 120.808 42.9831 120.505 42.8243C120.209 42.6655 119.96 42.4237 119.758 42.0988H119.682L119.595 42.9326H118.978V35.1037H119.758V37.9732H119.834C119.963 37.7639 120.119 37.5978 120.299 37.4751C120.48 37.3452 120.678 37.2513 120.895 37.1936C121.111 37.1358 121.335 37.1069 121.566 37.1069C122.021 37.1069 122.414 37.2116 122.746 37.421C123.086 37.6303 123.346 37.9515 123.526 38.3847C123.707 38.8106 123.797 39.3592 123.797 40.0306C123.797 40.7453 123.707 41.3264 123.526 41.774C123.353 42.2143 123.097 42.5392 122.757 42.7485C122.425 42.9579 122.021 43.0626 121.544 43.0626ZM121.414 42.3804C121.732 42.3804 122.006 42.3118 122.237 42.1746C122.476 42.0375 122.66 41.8137 122.79 41.5033C122.92 41.1856 122.985 40.7597 122.985 40.2255V39.9548C122.985 39.4423 122.923 39.0272 122.801 38.7095C122.685 38.3919 122.505 38.1609 122.259 38.0165C122.021 37.8649 121.721 37.7891 121.36 37.7891C121.165 37.7891 120.971 37.8216 120.776 37.8866C120.588 37.9443 120.418 38.0526 120.267 38.2114C120.115 38.3702 119.992 38.594 119.899 38.8828C119.805 39.1715 119.758 39.5397 119.758 39.9873V40.1822C119.758 40.6514 119.812 41.0485 119.92 41.3733C120.036 41.6982 120.216 41.9472 120.462 42.1205C120.707 42.2937 121.025 42.3804 121.414 42.3804ZM124.551 42.9326V35.1037H125.331V42.9326H124.551ZM128.622 43.0626C128.08 43.0626 127.622 42.9579 127.246 42.7485C126.871 42.532 126.586 42.2035 126.391 41.7631C126.196 41.3228 126.099 40.7633 126.099 40.0847C126.099 39.3989 126.196 38.8395 126.391 38.4063C126.586 37.966 126.875 37.6411 127.257 37.4318C127.64 37.2152 128.116 37.1069 128.687 37.1069C129.214 37.1069 129.654 37.2116 130.008 37.421C130.369 37.6303 130.639 37.9335 130.82 38.3305C131.008 38.7276 131.101 39.2149 131.101 39.7924V40.2905H126.911C126.911 40.7886 126.979 41.1965 127.117 41.5141C127.254 41.8317 127.449 42.0627 127.701 42.2071C127.961 42.3443 128.279 42.4129 128.654 42.4129C128.928 42.4129 129.167 42.3768 129.369 42.3046C129.578 42.2324 129.748 42.1349 129.878 42.0122C130.015 41.8823 130.12 41.7307 130.192 41.5574C130.264 41.3842 130.3 41.2037 130.3 41.016H131.058C131.058 41.2975 131.004 41.5646 130.896 41.8173C130.795 42.0627 130.643 42.2793 130.441 42.467C130.246 42.6547 129.997 42.8027 129.694 42.911C129.39 43.012 129.033 43.0626 128.622 43.0626ZM126.911 39.6733H130.289C130.289 39.3123 130.246 39.0127 130.159 38.7745C130.08 38.5291 129.968 38.3341 129.824 38.1898C129.679 38.0382 129.506 37.9299 129.304 37.8649C129.109 37.7999 128.889 37.7675 128.643 37.7675C128.29 37.7675 127.986 37.836 127.734 37.9732C127.481 38.1031 127.286 38.3089 127.149 38.5904C127.019 38.872 126.94 39.2329 126.911 39.6733ZM136.298 43.0626C135.908 43.0626 135.561 42.9831 135.258 42.8243C134.962 42.6655 134.713 42.4237 134.511 42.0988H134.435L134.349 42.9326H133.731V35.1037H134.511V37.9732H134.587C134.717 37.7639 134.872 37.5978 135.052 37.4751C135.233 37.3452 135.431 37.2513 135.648 37.1936C135.865 37.1358 136.088 37.1069 136.319 37.1069C136.774 37.1069 137.168 37.2116 137.5 37.421C137.839 37.6303 138.099 37.9515 138.279 38.3847C138.46 38.8106 138.55 39.3592 138.55 40.0306C138.55 40.7453 138.46 41.3264 138.279 41.774C138.106 42.2143 137.85 42.5392 137.511 42.7485C137.178 42.9579 136.774 43.0626 136.298 43.0626ZM136.168 42.3804C136.485 42.3804 136.76 42.3118 136.991 42.1746C137.229 42.0375 137.413 41.8137 137.543 41.5033C137.673 41.1856 137.738 40.7597 137.738 40.2255V39.9548C137.738 39.4423 137.677 39.0272 137.554 38.7095C137.438 38.3919 137.258 38.1609 137.012 38.0165C136.774 37.8649 136.475 37.7891 136.114 37.7891C135.919 37.7891 135.724 37.8216 135.529 37.8866C135.341 37.9443 135.172 38.0526 135.02 38.2114C134.868 38.3702 134.746 38.594 134.652 38.8828C134.558 39.1715 134.511 39.5397 134.511 39.9873V40.1822C134.511 40.6514 134.565 41.0485 134.673 41.3733C134.789 41.6982 134.969 41.9472 135.215 42.1205C135.46 42.2937 135.778 42.3804 136.168 42.3804ZM140.723 43.0626C140.499 43.0626 140.279 43.0337 140.063 42.9759C139.846 42.9254 139.651 42.8424 139.478 42.7269C139.312 42.6042 139.178 42.4417 139.077 42.2396C138.976 42.0375 138.926 41.7884 138.926 41.4924C138.926 41.1026 139.02 40.785 139.207 40.5395C139.402 40.2869 139.673 40.092 140.019 39.9548C140.366 39.8104 140.774 39.713 141.243 39.6624C141.719 39.6119 142.236 39.5866 142.791 39.5866V38.8611C142.791 38.6301 142.748 38.4352 142.661 38.2764C142.582 38.1104 142.438 37.984 142.228 37.8974C142.026 37.8036 141.737 37.7566 141.362 37.7566C141.001 37.7566 140.716 37.8036 140.507 37.8974C140.297 37.9912 140.149 38.114 140.063 38.2656C139.983 38.4099 139.944 38.5724 139.944 38.7528V38.9261H139.196C139.189 38.89 139.186 38.8539 139.186 38.8178C139.186 38.7817 139.186 38.7384 139.186 38.6879C139.186 38.3269 139.279 38.031 139.467 37.7999C139.655 37.5689 139.922 37.3957 140.268 37.2802C140.615 37.1647 141.012 37.1069 141.46 37.1069C141.914 37.1069 142.297 37.1755 142.607 37.3127C142.918 37.4426 143.156 37.6303 143.322 37.8757C143.488 38.1212 143.571 38.4172 143.571 38.7637V42.0339C143.571 42.171 143.596 42.2685 143.647 42.3262C143.705 42.3768 143.78 42.402 143.874 42.402H144.329V42.9001C144.221 42.9434 144.105 42.9795 143.983 43.0084C143.867 43.0373 143.744 43.0517 143.614 43.0517C143.427 43.0517 143.275 43.012 143.16 42.9326C143.051 42.8532 142.972 42.7413 142.921 42.5969C142.878 42.4526 142.849 42.2937 142.835 42.1205H142.759C142.622 42.3154 142.445 42.485 142.228 42.6294C142.019 42.7666 141.788 42.8713 141.535 42.9434C141.283 43.0229 141.012 43.0626 140.723 43.0626ZM140.886 42.402C141.124 42.402 141.355 42.3623 141.579 42.2829C141.802 42.2035 142.005 42.0952 142.185 41.9581C142.365 41.8137 142.51 41.644 142.618 41.4491C142.734 41.2542 142.791 41.0376 142.791 40.7994V40.2147C142.12 40.2147 141.557 40.2508 141.102 40.323C140.655 40.3952 140.315 40.5215 140.084 40.702C139.861 40.8824 139.749 41.1351 139.749 41.46C139.749 41.6765 139.796 41.857 139.889 42.0014C139.99 42.1385 140.128 42.2396 140.301 42.3046C140.474 42.3695 140.669 42.402 140.886 42.402ZM144.709 42.9326V35.1037H145.488V42.9326H144.709ZM147.999 43.0626C147.776 43.0626 147.555 43.0337 147.339 42.9759C147.122 42.9254 146.927 42.8424 146.754 42.7269C146.588 42.6042 146.455 42.4417 146.353 42.2396C146.252 42.0375 146.202 41.7884 146.202 41.4924C146.202 41.1026 146.296 40.785 146.483 40.5395C146.678 40.2869 146.949 40.092 147.296 39.9548C147.642 39.8104 148.05 39.713 148.519 39.6624C148.996 39.6119 149.512 39.5866 150.068 39.5866V38.8611C150.068 38.6301 150.024 38.4352 149.938 38.2764C149.858 38.1104 149.714 37.984 149.505 37.8974C149.302 37.8036 149.014 37.7566 148.638 37.7566C148.277 37.7566 147.992 37.8036 147.783 37.8974C147.573 37.9912 147.425 38.114 147.339 38.2656C147.259 38.4099 147.22 38.5724 147.22 38.7528V38.9261H146.473C146.465 38.89 146.462 38.8539 146.462 38.8178C146.462 38.7817 146.462 38.7384 146.462 38.6879C146.462 38.3269 146.556 38.031 146.743 37.7999C146.931 37.5689 147.198 37.3957 147.545 37.2802C147.891 37.1647 148.288 37.1069 148.736 37.1069C149.19 37.1069 149.573 37.1755 149.884 37.3127C150.194 37.4426 150.432 37.6303 150.598 37.8757C150.764 38.1212 150.847 38.4172 150.847 38.7637V42.0339C150.847 42.171 150.873 42.2685 150.923 42.3262C150.981 42.3768 151.057 42.402 151.15 42.402H151.605V42.9001C151.497 42.9434 151.381 42.9795 151.259 43.0084C151.143 43.0373 151.02 43.0517 150.891 43.0517C150.703 43.0517 150.551 43.012 150.436 42.9326C150.327 42.8532 150.248 42.7413 150.198 42.5969C150.154 42.4526 150.125 42.2937 150.111 42.1205H150.035C149.898 42.3154 149.721 42.485 149.505 42.6294C149.295 42.7666 149.064 42.8713 148.811 42.9434C148.559 43.0229 148.288 43.0626 147.999 43.0626ZM148.162 42.402C148.4 42.402 148.631 42.3623 148.855 42.2829C149.079 42.2035 149.281 42.0952 149.461 41.9581C149.642 41.8137 149.786 41.644 149.894 41.4491C150.01 41.2542 150.068 41.0376 150.068 40.7994V40.2147C149.396 40.2147 148.833 40.2508 148.378 40.323C147.931 40.3952 147.591 40.5215 147.36 40.702C147.137 40.8824 147.025 41.1351 147.025 41.46C147.025 41.6765 147.072 41.857 147.166 42.0014C147.267 42.1385 147.404 42.2396 147.577 42.3046C147.75 42.3695 147.945 42.402 148.162 42.402ZM151.985 42.9326V37.2369H152.602L152.678 38.1356H152.754C152.913 37.8757 153.093 37.6736 153.295 37.5292C153.497 37.3776 153.714 37.2694 153.945 37.2044C154.183 37.1394 154.436 37.1069 154.703 37.1069C155.064 37.1069 155.378 37.1683 155.645 37.291C155.919 37.4065 156.132 37.5978 156.284 37.8649C156.435 38.132 156.511 38.4966 156.511 38.9586V42.9326H155.732V39.0344C155.732 38.7817 155.699 38.576 155.634 38.4172C155.569 38.2583 155.479 38.1356 155.363 38.049C155.248 37.9552 155.111 37.8902 154.952 37.8541C154.8 37.818 154.631 37.7999 154.443 37.7999C154.154 37.7999 153.88 37.8721 153.62 38.0165C153.367 38.1537 153.162 38.3522 153.003 38.6121C152.844 38.872 152.765 39.1896 152.765 39.565V42.9326H151.985ZM159.616 43.0626C159.089 43.0626 158.642 42.9543 158.273 42.7377C157.912 42.5211 157.638 42.1927 157.45 41.7523C157.263 41.312 157.169 40.7561 157.169 40.0847C157.169 39.4206 157.263 38.8684 157.45 38.428C157.638 37.9876 157.916 37.6592 158.284 37.4426C158.66 37.2188 159.118 37.1069 159.659 37.1069C160.056 37.1069 160.392 37.1611 160.666 37.2694C160.948 37.3704 161.175 37.5184 161.349 37.7133C161.529 37.9082 161.659 38.1428 161.738 38.4172C161.818 38.6915 161.858 38.9983 161.858 39.3376H161.089C161.089 38.9694 161.038 38.6734 160.937 38.4497C160.843 38.2186 160.688 38.049 160.472 37.9407C160.262 37.8252 159.984 37.7675 159.638 37.7675C159.313 37.7675 159.024 37.8397 158.771 37.984C158.526 38.1284 158.331 38.3594 158.187 38.677C158.05 38.9875 157.981 39.4134 157.981 39.9548V40.2147C157.981 40.7272 158.046 41.1459 158.176 41.4708C158.306 41.7884 158.494 42.023 158.739 42.1746C158.992 42.3262 159.291 42.402 159.638 42.402C159.999 42.402 160.284 42.3407 160.493 42.2179C160.71 42.088 160.865 41.9075 160.959 41.6765C161.053 41.4383 161.1 41.1568 161.1 40.8319H161.858C161.858 41.1351 161.818 41.4239 161.738 41.6982C161.659 41.9653 161.529 42.1999 161.349 42.402C161.175 42.6042 160.944 42.7666 160.656 42.8893C160.374 43.0048 160.028 43.0626 159.616 43.0626ZM164.769 43.0626C164.228 43.0626 163.769 42.9579 163.394 42.7485C163.019 42.532 162.733 42.2035 162.538 41.7631C162.344 41.3228 162.246 40.7633 162.246 40.0847C162.246 39.3989 162.344 38.8395 162.538 38.4063C162.733 37.966 163.022 37.6411 163.405 37.4318C163.787 37.2152 164.264 37.1069 164.834 37.1069C165.361 37.1069 165.801 37.2116 166.155 37.421C166.516 37.6303 166.787 37.9335 166.967 38.3305C167.155 38.7276 167.249 39.2149 167.249 39.7924V40.2905H163.058C163.058 40.7886 163.127 41.1965 163.264 41.5141C163.401 41.8317 163.596 42.0627 163.849 42.2071C164.109 42.3443 164.426 42.4129 164.802 42.4129C165.076 42.4129 165.314 42.3768 165.516 42.3046C165.726 42.2324 165.895 42.1349 166.025 42.0122C166.162 41.8823 166.267 41.7307 166.339 41.5574C166.411 41.3842 166.448 41.2037 166.448 41.016H167.206C167.206 41.2975 167.151 41.5646 167.043 41.8173C166.942 42.0627 166.79 42.2793 166.588 42.467C166.393 42.6547 166.144 42.8027 165.841 42.911C165.538 43.012 165.181 43.0626 164.769 43.0626ZM163.058 39.6733H166.437C166.437 39.3123 166.393 39.0127 166.307 38.7745C166.227 38.5291 166.115 38.3341 165.971 38.1898C165.827 38.0382 165.653 37.9299 165.451 37.8649C165.256 37.7999 165.036 37.7675 164.791 37.7675C164.437 37.7675 164.134 37.836 163.881 37.9732C163.629 38.1031 163.434 38.3089 163.296 38.5904C163.167 38.872 163.087 39.2329 163.058 39.6733Z" fill="#CACACA"/>
<path d="M93.0643 80.5204V61.4129H94.3018V80.5204H93.0643ZM93.5593 77.6246C92.6683 77.6246 91.8845 77.5338 91.208 77.3523C90.5315 77.1708 89.9704 76.9151 89.5249 76.585C89.0794 76.2385 88.7412 75.826 88.5101 75.3475C88.2791 74.8525 88.1636 74.2997 88.1636 73.6892C88.1636 73.6232 88.1636 73.5572 88.1636 73.4912C88.1636 73.4087 88.1719 73.3427 88.1884 73.2932H90.3417C90.3252 73.3592 90.3169 73.417 90.3169 73.4665C90.3169 73.4995 90.3169 73.5407 90.3169 73.5902C90.3334 74.1677 90.4819 74.6297 90.7625 74.9762C91.0595 75.3063 91.4637 75.5373 91.9752 75.6693C92.4868 75.8013 93.056 75.8673 93.683 75.8673C94.2276 75.8673 94.7308 75.793 95.1928 75.6445C95.6548 75.496 96.0179 75.2815 96.2819 75.001C96.5624 74.704 96.7026 74.341 96.7026 73.912C96.7026 73.351 96.5211 72.9302 96.1581 72.6497C95.8116 72.3692 95.3496 72.1464 94.7721 71.9814C94.1946 71.7999 93.5923 71.6184 92.9653 71.4369C92.4373 71.2884 91.9092 71.1316 91.3812 70.9666C90.8532 70.7851 90.3747 70.5624 89.9457 70.2984C89.5332 70.0179 89.1949 69.6714 88.9309 69.2588C88.6834 68.8298 88.5596 68.2936 88.5596 67.65C88.5596 67.0725 88.6752 66.561 88.9062 66.1155C89.1537 65.67 89.5002 65.2987 89.9457 65.0017C90.3912 64.6882 90.9275 64.449 91.5545 64.284C92.198 64.119 92.9075 64.0365 93.683 64.0365C94.5081 64.0365 95.2258 64.1272 95.8363 64.3087C96.4634 64.4902 96.9831 64.746 97.3956 65.076C97.8081 65.406 98.1134 65.7855 98.3114 66.2145C98.5094 66.6435 98.6084 67.0973 98.6084 67.5758C98.6084 67.6583 98.6084 67.7491 98.6084 67.8481C98.6084 67.9306 98.6002 67.9966 98.5837 68.0461H96.4551V67.7738C96.4551 67.4438 96.3644 67.1303 96.1829 66.8333C96.0179 66.5363 95.7208 66.2888 95.2918 66.0908C94.8793 65.8928 94.3018 65.7937 93.5593 65.7937C93.0808 65.7937 92.6683 65.835 92.3218 65.9175C91.9752 66 91.6865 66.1155 91.4555 66.264C91.2245 66.4125 91.0512 66.594 90.9357 66.8085C90.8202 67.0065 90.7625 67.2458 90.7625 67.5263C90.7625 67.9553 90.9027 68.2853 91.1832 68.5163C91.4637 68.7473 91.835 68.9371 92.297 69.0856C92.7755 69.2341 93.287 69.3908 93.8315 69.5559C94.4091 69.7209 94.9948 69.8941 95.5888 70.0756C96.1994 70.2571 96.7521 70.4799 97.2471 70.7439C97.7586 71.0079 98.1629 71.3709 98.4599 71.8329C98.7734 72.2784 98.9302 72.8724 98.9302 73.615C98.9302 74.2915 98.7982 74.8855 98.5342 75.397C98.2702 75.9085 97.8907 76.3293 97.3956 76.6593C96.9171 76.9893 96.3479 77.2368 95.6878 77.4018C95.0443 77.5503 94.3348 77.6246 93.5593 77.6246ZM111.695 79.3076V75.1495H103.8V73.318C104.493 72.1299 105.12 70.9336 105.681 69.7291C106.258 68.5246 106.77 67.287 107.215 66.0165C107.677 64.746 108.057 63.4177 108.354 62.0316H110.681C110.466 62.9392 110.202 63.8714 109.889 64.8285C109.575 65.769 109.229 66.6848 108.849 67.5758C108.47 68.4668 108.09 69.3001 107.71 70.0756C107.347 70.8511 107.001 71.5194 106.671 72.0804C106.357 72.6414 106.102 73.0539 105.904 73.318H111.695V67.9223C111.794 67.6583 111.893 67.386 111.992 67.1055C112.108 66.8085 112.215 66.5115 112.314 66.2145C112.413 65.901 112.504 65.6122 112.586 65.3482C112.669 65.0677 112.735 64.8037 112.784 64.5562H113.873V73.318H116.126V75.1495H113.873V79.3076H111.695ZM117.801 82.946V81.9312C118.115 81.8652 118.37 81.7084 118.568 81.4609C118.783 81.2134 118.94 80.8999 119.039 80.5204C119.138 80.1574 119.187 79.7531 119.187 79.3076H118.049V76.7088H120.449V79.0354C120.449 79.9924 120.309 80.7349 120.029 81.2629C119.765 81.8074 119.426 82.2034 119.014 82.451C118.618 82.6985 118.214 82.8635 117.801 82.946ZM130.309 79.3076V75.1495H122.413V73.318C123.106 72.1299 123.733 70.9336 124.294 69.7291C124.872 68.5246 125.383 67.287 125.829 66.0165C126.291 64.746 126.67 63.4177 126.967 62.0316H129.294C129.079 62.9392 128.815 63.8714 128.502 64.8285C128.188 65.769 127.842 66.6848 127.462 67.5758C127.083 68.4668 126.703 69.3001 126.324 70.0756C125.961 70.8511 125.614 71.5194 125.284 72.0804C124.971 72.6414 124.715 73.0539 124.517 73.318H130.309V67.9223C130.408 67.6583 130.507 67.386 130.606 67.1055C130.721 66.8085 130.828 66.5115 130.927 66.2145C131.026 65.901 131.117 65.6122 131.2 65.3482C131.282 65.0677 131.348 64.8037 131.398 64.5562H132.487V73.318H134.739V75.1495H132.487V79.3076H130.309ZM141.637 79.6046C140.449 79.6046 139.409 79.3819 138.518 78.9364C137.627 78.4908 136.934 77.8556 136.439 77.0306C135.944 76.189 135.697 75.1908 135.697 74.0357H137.899C137.899 74.8112 138.064 75.4795 138.394 76.0405C138.724 76.6015 139.17 77.0306 139.731 77.3276C140.308 77.6246 140.944 77.7731 141.637 77.7731C142.346 77.7731 142.973 77.6328 143.518 77.3523C144.062 77.0553 144.483 76.6098 144.78 76.0158C145.094 75.4218 145.25 74.671 145.25 73.7635C145.25 72.9384 145.11 72.2619 144.83 71.7339C144.549 71.1894 144.145 70.7851 143.617 70.5211C143.105 70.2571 142.511 70.1251 141.835 70.1251C141.34 70.1251 140.869 70.2076 140.424 70.3726C139.978 70.5211 139.574 70.7356 139.211 71.0161C138.865 71.2966 138.576 71.6432 138.345 72.0557L136.291 71.7339L137.008 62.3287H146.636V64.3582H138.914L138.518 69.6549C138.799 69.4073 139.112 69.1846 139.459 68.9866C139.822 68.7721 140.234 68.6071 140.696 68.4916C141.158 68.3596 141.686 68.2936 142.28 68.2936C143.254 68.2936 144.137 68.4833 144.929 68.8628C145.721 69.2423 146.348 69.8281 146.81 70.6201C147.272 71.4122 147.503 72.4352 147.503 73.6892C147.503 74.9267 147.263 75.991 146.785 76.8821C146.323 77.7731 145.655 78.4496 144.78 78.9116C143.906 79.3736 142.858 79.6046 141.637 79.6046ZM155.034 79.6046C154.06 79.6046 153.186 79.4644 152.41 79.1839C151.651 78.9034 151 78.4496 150.455 77.8226C149.927 77.1956 149.523 76.354 149.242 75.298C148.962 74.2255 148.822 72.8972 148.822 71.3131C148.822 69.5641 148.962 68.1038 149.242 66.9323C149.523 65.7442 149.919 64.7955 150.43 64.086C150.958 63.3599 151.602 62.8402 152.361 62.5267C153.136 62.1967 154.011 62.0316 154.984 62.0316C156.205 62.0316 157.187 62.2627 157.93 62.7247C158.689 63.1867 159.242 63.8137 159.588 64.6057C159.935 65.3812 160.108 66.2723 160.108 67.2788H157.88C157.88 66.5198 157.773 65.8845 157.559 65.373C157.344 64.8615 157.006 64.482 156.544 64.2345C156.098 63.9869 155.537 63.8632 154.861 63.8632C153.871 63.8632 153.095 64.1272 152.534 64.6552C151.99 65.1667 151.61 65.9175 151.396 66.9075C151.198 67.8976 151.09 69.0773 151.074 70.4469C151.305 70.0674 151.627 69.7209 152.039 69.4073C152.468 69.0938 152.971 68.8463 153.549 68.6648C154.126 68.4668 154.737 68.3678 155.38 68.3678C156.602 68.3678 157.608 68.6153 158.4 69.1103C159.192 69.5889 159.778 70.2489 160.157 71.0904C160.537 71.9319 160.727 72.8724 160.727 73.912C160.727 75.0505 160.479 76.0488 159.984 76.9068C159.489 77.7648 158.813 78.4331 157.955 78.9116C157.097 79.3736 156.123 79.6046 155.034 79.6046ZM154.885 77.7731C155.694 77.7731 156.362 77.5998 156.89 77.2533C157.418 76.8903 157.806 76.42 158.054 75.8425C158.318 75.2485 158.45 74.5967 158.45 73.8872C158.45 73.2107 158.326 72.5919 158.078 72.0309C157.831 71.4699 157.443 71.0244 156.915 70.6944C156.404 70.3479 155.743 70.1746 154.935 70.1746C154.126 70.1746 153.45 70.3479 152.905 70.6944C152.361 71.0409 151.957 71.5029 151.693 72.0804C151.429 72.6414 151.297 73.285 151.297 74.011C151.297 74.6875 151.429 75.3145 151.693 75.892C151.957 76.4695 152.353 76.9316 152.881 77.2781C153.409 77.6081 154.077 77.7731 154.885 77.7731ZM163.01 79.3076V76.7088H165.435V79.3076H163.01ZM173.488 79.6046C172.283 79.6046 171.301 79.3736 170.542 78.9116C169.783 78.4496 169.231 77.8226 168.884 77.0306C168.538 76.2385 168.364 75.3475 168.364 74.3575H170.592C170.592 75.1165 170.699 75.7518 170.914 76.2633C171.145 76.7748 171.483 77.1543 171.928 77.4018C172.374 77.6493 172.935 77.7731 173.611 77.7731C174.618 77.7731 175.385 77.5173 175.913 77.0058C176.458 76.4778 176.837 75.7188 177.052 74.7287C177.266 73.7387 177.382 72.5589 177.398 71.1894C177.184 71.5524 176.862 71.8989 176.433 72.2289C176.004 72.5424 175.501 72.7982 174.923 72.9962C174.362 73.1777 173.76 73.2685 173.116 73.2685C171.895 73.2685 170.889 73.0292 170.097 72.5507C169.305 72.0557 168.711 71.3874 168.315 70.5459C167.935 69.7044 167.746 68.7638 167.746 67.7243C167.746 66.5693 167.993 65.571 168.488 64.7295C168.983 63.8714 169.66 63.2114 170.518 62.7494C171.376 62.2709 172.341 62.0316 173.413 62.0316C174.387 62.0316 175.262 62.1719 176.037 62.4524C176.813 62.7329 177.464 63.1867 177.992 63.8137C178.537 64.4407 178.949 65.2905 179.23 66.363C179.51 67.419 179.651 68.7391 179.651 70.3231C179.651 72.0557 179.51 73.516 179.23 74.704C178.966 75.892 178.57 76.8491 178.042 77.5751C177.514 78.2846 176.862 78.8044 176.087 79.1344C175.328 79.4479 174.461 79.6046 173.488 79.6046ZM173.562 71.4617C174.37 71.4617 175.039 71.2884 175.567 70.9419C176.111 70.5954 176.516 70.1334 176.78 69.5559C177.044 68.9783 177.176 68.3348 177.176 67.6253C177.176 66.9323 177.044 66.3053 176.78 65.7442C176.532 65.1667 176.136 64.713 175.592 64.383C175.064 64.0365 174.395 63.8632 173.587 63.8632C172.778 63.8632 172.11 64.0447 171.582 64.4077C171.054 64.7542 170.658 65.2162 170.394 65.7937C170.146 66.3713 170.023 67.023 170.023 67.7491C170.023 68.4256 170.146 69.0443 170.394 69.6054C170.641 70.1664 171.021 70.6201 171.532 70.9666C172.06 71.2966 172.737 71.4617 173.562 71.4617ZM186.983 79.6046C185.58 79.6046 184.442 79.3819 183.567 78.9364C182.693 78.4908 182.049 77.8968 181.637 77.1543C181.241 76.4118 181.043 75.5868 181.043 74.6792C181.043 73.7552 181.274 72.9384 181.736 72.2289C182.198 71.5194 182.924 70.9749 183.914 70.5954C183.122 70.1829 182.519 69.6384 182.107 68.9618C181.711 68.2853 181.513 67.5345 181.513 66.7095C181.513 65.835 181.711 65.0512 182.107 64.3582C182.519 63.6487 183.13 63.0877 183.938 62.6752C184.764 62.2462 185.778 62.0316 186.983 62.0316C188.187 62.0316 189.194 62.2462 190.002 62.6752C190.811 63.0877 191.421 63.6487 191.834 64.3582C192.246 65.0512 192.453 65.835 192.453 66.7095C192.453 67.5345 192.246 68.2853 191.834 68.9618C191.421 69.6384 190.819 70.1829 190.027 70.5954C191.034 70.9749 191.76 71.5194 192.205 72.2289C192.667 72.9384 192.898 73.7552 192.898 74.6792C192.898 75.5868 192.692 76.4118 192.279 77.1543C191.883 77.8968 191.248 78.4908 190.374 78.9364C189.516 79.3819 188.385 79.6046 186.983 79.6046ZM186.983 77.7978C188.187 77.7978 189.095 77.5173 189.705 76.9563C190.316 76.3953 190.621 75.628 190.621 74.6545C190.621 73.6975 190.316 72.9384 189.705 72.3774C189.095 71.8164 188.187 71.5359 186.983 71.5359C185.778 71.5359 184.863 71.8164 184.236 72.3774C183.625 72.9384 183.32 73.6975 183.32 74.6545C183.32 75.628 183.625 76.3953 184.236 76.9563C184.863 77.5173 185.778 77.7978 186.983 77.7978ZM186.983 69.7291C187.989 69.7291 188.781 69.4733 189.359 68.9618C189.936 68.4338 190.225 67.6996 190.225 66.759C190.225 65.835 189.936 65.1172 189.359 64.6057C188.781 64.0942 187.989 63.8384 186.983 63.8384C185.976 63.8384 185.184 64.0942 184.607 64.6057C184.029 65.1172 183.74 65.835 183.74 66.759C183.74 67.6996 184.029 68.4338 184.607 68.9618C185.184 69.4733 185.976 69.7291 186.983 69.7291Z" fill="#F1F1F1"/>
<path d="M203.873 79.419C203.34 79.419 202.883 79.3355 202.499 79.1684C202.122 78.9951 201.831 78.7198 201.626 78.3423C201.422 77.9649 201.32 77.4761 201.32 76.8759V72.9405H202.053V77.0244C202.053 77.6122 202.211 78.0515 202.527 78.3423C202.849 78.6332 203.297 78.7786 203.873 78.7786C204.46 78.7786 204.918 78.6332 205.246 78.3423C205.58 78.0515 205.747 77.6122 205.747 77.0244V72.9405H206.471V76.8759C206.471 77.4761 206.366 77.9649 206.156 78.3423C205.952 78.7198 205.655 78.9951 205.265 79.1684C204.881 79.3355 204.417 79.419 203.873 79.419ZM210.104 79.419C209.763 79.419 209.432 79.3881 209.111 79.3262C208.789 79.2643 208.504 79.1591 208.257 79.0106C208.009 78.8621 207.814 78.6672 207.672 78.4259C207.53 78.1846 207.459 77.8845 207.459 77.5256C207.459 77.4946 207.459 77.4668 207.459 77.442C207.459 77.4111 207.462 77.3802 207.468 77.3492H208.201C208.201 77.374 208.198 77.408 208.192 77.4513C208.192 77.4946 208.192 77.5318 208.192 77.5627C208.192 77.835 208.272 78.0639 208.433 78.2495C208.6 78.429 208.823 78.5651 209.101 78.6579C209.386 78.7445 209.705 78.7879 210.057 78.7879C210.175 78.7879 210.314 78.7817 210.475 78.7693C210.642 78.7507 210.809 78.7198 210.976 78.6765C211.149 78.627 211.307 78.562 211.45 78.4816C211.592 78.3949 211.706 78.2867 211.793 78.1567C211.886 78.0206 211.932 77.8535 211.932 77.6555C211.932 77.4266 211.87 77.2378 211.747 77.0893C211.623 76.9408 211.459 76.8202 211.255 76.7274C211.057 76.6284 210.828 76.5417 210.568 76.4675C210.308 76.3932 210.042 76.3221 209.77 76.254C209.497 76.1859 209.231 76.1086 208.971 76.022C208.718 75.9353 208.489 75.8271 208.285 75.6971C208.08 75.5672 207.916 75.4063 207.793 75.2145C207.675 75.0165 207.616 74.7752 207.616 74.4905C207.616 74.243 207.666 74.0172 207.765 73.813C207.864 73.6088 208.015 73.4355 208.22 73.2932C208.424 73.1447 208.684 73.0302 208.999 72.9498C209.315 72.8693 209.689 72.8291 210.122 72.8291C210.45 72.8291 210.757 72.8632 211.041 72.9312C211.326 72.9993 211.576 73.1076 211.793 73.2561C212.01 73.3984 212.177 73.5809 212.294 73.8037C212.418 74.0203 212.48 74.2832 212.48 74.5926V74.704H211.756V74.5462C211.756 74.3173 211.685 74.1254 211.542 73.9708C211.4 73.8099 211.208 73.6861 210.967 73.5995C210.732 73.5067 210.463 73.4603 210.159 73.4603C209.745 73.4603 209.405 73.5036 209.138 73.5902C208.872 73.6707 208.674 73.7851 208.544 73.9336C208.415 74.0759 208.35 74.2368 208.35 74.4163C208.35 74.6266 208.411 74.803 208.535 74.9453C208.659 75.0814 208.823 75.1959 209.027 75.2887C209.231 75.3754 209.46 75.4558 209.714 75.53C209.974 75.5981 210.24 75.6662 210.512 75.7342C210.784 75.8023 211.047 75.8827 211.301 75.9756C211.561 76.0622 211.793 76.1736 211.997 76.3097C212.208 76.4396 212.372 76.6036 212.489 76.8016C212.613 76.9996 212.675 77.244 212.675 77.5349C212.675 77.9742 212.563 78.3331 212.341 78.6115C212.124 78.8899 211.824 79.0941 211.44 79.2241C211.057 79.354 210.611 79.419 210.104 79.419ZM213.675 79.3076V72.9405H215.968C216.649 72.9405 217.224 73.0519 217.694 73.2746C218.171 73.4912 218.533 73.8346 218.78 74.3049C219.034 74.769 219.161 75.3754 219.161 76.1241C219.161 76.8604 219.034 77.4637 218.78 77.934C218.533 78.4042 218.171 78.7507 217.694 78.9735C217.224 79.1962 216.649 79.3076 215.968 79.3076H213.675ZM214.409 78.6765H215.94C216.317 78.6765 216.658 78.6332 216.961 78.5465C217.264 78.4537 217.524 78.3114 217.741 78.1196C217.957 77.9216 218.121 77.6679 218.233 77.3585C218.344 77.0491 218.4 76.6748 218.4 76.2354V76.0405C218.4 75.5888 218.344 75.2083 218.233 74.8989C218.121 74.5833 217.957 74.3296 217.741 74.1378C217.53 73.9398 217.273 73.7975 216.97 73.7109C216.667 73.6181 216.324 73.5716 215.94 73.5716H214.409V78.6765Z" fill="#CACACA"/>
<path d="M89.5713 98.6065C89.2496 98.6065 88.9649 98.5725 88.7174 98.5044C88.4699 98.4425 88.2626 98.3497 88.0956 98.226C87.9347 98.096 87.8109 97.9413 87.7243 97.7619C87.6439 97.5824 87.6037 97.3751 87.6037 97.14C87.6037 97.1153 87.6037 97.0905 87.6037 97.0658C87.6037 97.0348 87.6067 97.007 87.6129 96.9822H88.2719C88.2657 97.0132 88.2626 97.041 88.2626 97.0658C88.2626 97.0843 88.2626 97.1029 88.2626 97.1215C88.2688 97.3628 88.3276 97.5515 88.439 97.6876C88.5504 97.8176 88.7082 97.9104 88.9123 97.9661C89.1165 98.0218 89.3517 98.0496 89.6177 98.0496C89.8467 98.0496 90.0509 98.0187 90.2303 97.9568C90.4159 97.8887 90.5614 97.7928 90.6665 97.6691C90.7779 97.5453 90.8336 97.3937 90.8336 97.2143C90.8336 96.9853 90.7625 96.8121 90.6201 96.6945C90.484 96.5769 90.3046 96.4872 90.0818 96.4253C89.8591 96.3573 89.627 96.2861 89.3857 96.2119C89.1877 96.1562 88.9928 96.0974 88.801 96.0355C88.6091 95.9675 88.4328 95.8839 88.2719 95.7849C88.1172 95.6859 87.9935 95.5591 87.9007 95.4044C87.8078 95.2497 87.7614 95.0548 87.7614 94.8196C87.7614 94.6154 87.8017 94.4329 87.8821 94.272C87.9687 94.1112 88.0894 93.975 88.2441 93.8636C88.405 93.7461 88.5999 93.6564 88.8288 93.5945C89.0578 93.5326 89.3176 93.5017 89.6085 93.5017C89.9302 93.5017 90.2056 93.5388 90.4345 93.613C90.6635 93.6873 90.8491 93.7894 90.9914 93.9193C91.1337 94.0431 91.2389 94.1854 91.307 94.3463C91.375 94.501 91.4091 94.665 91.4091 94.8382C91.4091 94.863 91.406 94.8908 91.3998 94.9217C91.3998 94.9527 91.3998 94.9805 91.3998 95.0053H90.7408V94.8846C90.7408 94.7547 90.7068 94.6278 90.6387 94.5041C90.5768 94.3803 90.4624 94.2751 90.2953 94.1885C90.1344 94.1019 89.8931 94.0586 89.5713 94.0586C89.3795 94.0586 89.2124 94.0771 89.0701 94.1142C88.934 94.1452 88.8164 94.1916 88.7174 94.2535C88.6246 94.3153 88.5535 94.3927 88.504 94.4855C88.4606 94.5721 88.439 94.6742 88.439 94.7918C88.439 94.9712 88.4947 95.1105 88.6061 95.2095C88.7236 95.3023 88.8752 95.3796 89.0608 95.4415C89.2465 95.4972 89.4445 95.5591 89.6549 95.6271C89.8652 95.689 90.0787 95.754 90.2953 95.822C90.518 95.8901 90.7222 95.9736 90.9079 96.0726C91.0935 96.1716 91.242 96.3047 91.3534 96.4717C91.4648 96.6326 91.5204 96.8461 91.5204 97.1122C91.5204 97.3597 91.4709 97.5793 91.3719 97.7712C91.2729 97.9568 91.1368 98.1115 90.9636 98.2352C90.7903 98.359 90.583 98.4518 90.3417 98.5137C90.1066 98.5756 89.8498 98.6065 89.5713 98.6065ZM93.6748 98.6065C93.2108 98.6065 92.8364 98.4889 92.5518 98.2538C92.2671 98.0187 92.1248 97.6072 92.1248 97.0194V93.613H92.7931V96.9544C92.7931 97.171 92.8209 97.3473 92.8766 97.4834C92.9323 97.6196 93.0097 97.7278 93.1087 97.8083C93.2077 97.8825 93.3221 97.9351 93.4521 97.9661C93.5882 97.997 93.7336 98.0125 93.8883 98.0125C94.1358 98.0125 94.3679 97.9537 94.5844 97.8361C94.8072 97.7124 94.9866 97.5391 95.1228 97.3164C95.2589 97.0874 95.3269 96.8152 95.3269 96.4996V93.613H95.9952V98.4951H95.4755L95.4012 97.7248H95.3362C95.2001 97.9475 95.0454 98.1239 94.8722 98.2538C94.7051 98.3776 94.5195 98.4673 94.3153 98.523C94.1173 98.5787 93.9038 98.6065 93.6748 98.6065ZM96.9302 98.4951V93.613H97.4592L97.5242 94.3834H97.5892C97.7253 94.1607 97.8738 93.9874 98.0347 93.8636C98.1956 93.7337 98.3719 93.6409 98.5637 93.5852C98.7555 93.5295 98.9597 93.5017 99.1763 93.5017C99.5043 93.5017 99.7858 93.5697 100.021 93.7059C100.256 93.8358 100.423 94.0617 100.522 94.3834H100.578C100.708 94.1668 100.853 93.9967 101.014 93.8729C101.175 93.743 101.351 93.6502 101.543 93.5945C101.741 93.5326 101.948 93.5017 102.165 93.5017C102.456 93.5017 102.713 93.5512 102.935 93.6502C103.158 93.7492 103.331 93.9131 103.455 94.1421C103.585 94.371 103.65 94.6804 103.65 95.0702V98.4951H102.982V95.1445C102.982 94.9341 102.954 94.7609 102.898 94.6247C102.849 94.4824 102.778 94.3741 102.685 94.2999C102.592 94.2256 102.484 94.173 102.36 94.1421C102.236 94.1112 102.103 94.0957 101.961 94.0957C101.726 94.0957 101.506 94.1576 101.302 94.2813C101.104 94.3989 100.94 94.569 100.81 94.7918C100.686 95.0146 100.624 95.2868 100.624 95.6086V98.4951H99.956V95.1445C99.956 94.9341 99.9312 94.7609 99.8817 94.6247C99.8322 94.4824 99.761 94.3741 99.6682 94.2999C99.5754 94.2256 99.4671 94.173 99.3434 94.1421C99.2258 94.1112 99.099 94.0957 98.9628 94.0957C98.7277 94.0957 98.5049 94.1576 98.2946 94.2813C98.0904 94.3989 97.9233 94.569 97.7934 94.7918C97.6634 95.0146 97.5985 95.2868 97.5985 95.6086V98.4951H96.9302ZM108.08 98.6065C107.609 98.6065 107.207 98.5168 106.873 98.3373C106.545 98.1517 106.294 97.8702 106.121 97.4927C105.954 97.1153 105.871 96.6357 105.871 96.0541C105.871 95.4663 105.954 94.9867 106.121 94.6154C106.294 94.238 106.545 93.9596 106.873 93.7801C107.207 93.5945 107.609 93.5017 108.08 93.5017C108.562 93.5017 108.964 93.5945 109.286 93.7801C109.614 93.9596 109.862 94.238 110.029 94.6154C110.202 94.9867 110.289 95.4663 110.289 96.0541C110.289 96.6357 110.202 97.1153 110.029 97.4927C109.862 97.8702 109.614 98.1517 109.286 98.3373C108.964 98.5168 108.562 98.6065 108.08 98.6065ZM108.08 98.0403C108.407 98.0403 108.683 97.9754 108.906 97.8454C109.128 97.7155 109.298 97.5144 109.416 97.2421C109.534 96.9637 109.592 96.6048 109.592 96.1655V95.9427C109.592 95.5034 109.534 95.1476 109.416 94.8753C109.298 94.5969 109.128 94.3927 108.906 94.2628C108.683 94.1328 108.407 94.0678 108.08 94.0678C107.752 94.0678 107.476 94.1328 107.253 94.2628C107.031 94.3927 106.861 94.5969 106.743 94.8753C106.625 95.1476 106.567 95.5034 106.567 95.9427V96.1655C106.567 96.6048 106.625 96.9637 106.743 97.2421C106.861 97.5144 107.031 97.7155 107.253 97.8454C107.476 97.9754 107.752 98.0403 108.08 98.0403ZM111.111 98.4951V94.1792H110.387V93.613H111.111V92.7591C111.111 92.5859 111.136 92.4188 111.186 92.2579C111.241 92.0971 111.34 91.9671 111.483 91.8681C111.625 91.7629 111.826 91.7103 112.086 91.7103C112.166 91.7103 112.247 91.7134 112.327 91.7196C112.408 91.7258 112.482 91.7351 112.55 91.7475C112.624 91.7598 112.689 91.7784 112.745 91.8032V92.2765H112.253C112.092 92.2765 111.972 92.3167 111.891 92.3972C111.817 92.4776 111.78 92.5952 111.78 92.7499V93.613H112.745V94.1792H111.78V98.4951H111.111ZM115.877 98.6065C115.685 98.6065 115.496 98.5817 115.311 98.5322C115.125 98.4889 114.958 98.4178 114.81 98.3188C114.667 98.2136 114.553 98.0744 114.466 97.9011C114.38 97.7278 114.336 97.5144 114.336 97.2607C114.336 96.9265 114.417 96.6543 114.578 96.4439C114.745 96.2273 114.977 96.0603 115.274 95.9427C115.571 95.819 115.92 95.7354 116.323 95.6921C116.731 95.6488 117.173 95.6271 117.65 95.6271V95.0053C117.65 94.8073 117.613 94.6402 117.538 94.5041C117.47 94.3618 117.347 94.2535 117.167 94.1792C116.994 94.0988 116.746 94.0586 116.425 94.0586C116.115 94.0586 115.871 94.0988 115.691 94.1792C115.512 94.2597 115.385 94.3648 115.311 94.4948C115.243 94.6185 115.209 94.7578 115.209 94.9125V95.061H114.568C114.562 95.03 114.559 94.9991 114.559 94.9681C114.559 94.9372 114.559 94.9001 114.559 94.8568C114.559 94.5474 114.639 94.2937 114.8 94.0957C114.961 93.8977 115.19 93.7492 115.487 93.6502C115.784 93.5512 116.124 93.5017 116.508 93.5017C116.898 93.5017 117.226 93.5605 117.492 93.678C117.758 93.7894 117.962 93.9503 118.105 94.1607C118.247 94.371 118.318 94.6247 118.318 94.9217V97.7248C118.318 97.8423 118.34 97.9259 118.383 97.9754C118.432 98.0187 118.497 98.0403 118.578 98.0403H118.968V98.4673C118.875 98.5044 118.776 98.5353 118.671 98.5601C118.572 98.5848 118.467 98.5972 118.355 98.5972C118.194 98.5972 118.064 98.5632 117.965 98.4951C117.873 98.4271 117.804 98.3311 117.761 98.2074C117.724 98.0836 117.699 97.9475 117.687 97.799H117.622C117.504 97.9661 117.353 98.1115 117.167 98.2352C116.988 98.3528 116.79 98.4425 116.573 98.5044C116.357 98.5725 116.124 98.6065 115.877 98.6065ZM116.016 98.0403C116.22 98.0403 116.418 98.0063 116.61 97.9382C116.802 97.8702 116.975 97.7773 117.13 97.6598C117.285 97.536 117.408 97.3906 117.501 97.2236C117.6 97.0565 117.65 96.8709 117.65 96.6667V96.1655C117.074 96.1655 116.592 96.1964 116.202 96.2583C115.818 96.3202 115.527 96.4284 115.329 96.5831C115.138 96.7378 115.042 96.9544 115.042 97.2328C115.042 97.4185 115.082 97.5732 115.162 97.6969C115.249 97.8145 115.367 97.9011 115.515 97.9568C115.664 98.0125 115.831 98.0403 116.016 98.0403ZM119.293 98.4951V91.7846H119.961V98.4951H119.293ZM120.898 98.4951V91.7846H121.566V98.4951H120.898ZM124.441 100.184C124.324 100.184 124.218 100.175 124.126 100.157C124.039 100.144 123.968 100.135 123.912 100.129V99.6275H124.274C124.435 99.6275 124.59 99.5996 124.738 99.5439C124.887 99.4882 125.026 99.3769 125.156 99.2098C125.286 99.0489 125.403 98.8107 125.509 98.4951L123.615 93.613H124.32L125.323 96.2119C125.372 96.3294 125.425 96.4779 125.481 96.6574C125.543 96.8306 125.604 97.0101 125.666 97.1957C125.734 97.3751 125.79 97.536 125.833 97.6783H125.889C125.914 97.5793 125.945 97.4649 125.982 97.3349C126.025 97.205 126.068 97.072 126.112 96.9358C126.155 96.7997 126.195 96.6698 126.232 96.546C126.276 96.4222 126.313 96.314 126.344 96.2211L127.207 93.613H127.885L126.214 98.4116C126.121 98.6838 126.022 98.9283 125.917 99.1448C125.812 99.3614 125.691 99.547 125.555 99.7017C125.425 99.8564 125.267 99.974 125.082 100.054C124.902 100.141 124.689 100.184 124.441 100.184ZM130.189 98.6065C129.719 98.6065 129.317 98.5168 128.983 98.3373C128.655 98.1517 128.404 97.8702 128.231 97.4927C128.064 97.1153 127.98 96.6357 127.98 96.0541C127.98 95.4663 128.064 94.9867 128.231 94.6154C128.404 94.238 128.655 93.9596 128.983 93.7801C129.317 93.5945 129.719 93.5017 130.189 93.5017C130.672 93.5017 131.074 93.5945 131.396 93.7801C131.724 93.9596 131.971 94.238 132.139 94.6154C132.312 94.9867 132.398 95.4663 132.398 96.0541C132.398 96.6357 132.312 97.1153 132.139 97.4927C131.971 97.8702 131.724 98.1517 131.396 98.3373C131.074 98.5168 130.672 98.6065 130.189 98.6065ZM130.189 98.0403C130.517 98.0403 130.793 97.9754 131.015 97.8454C131.238 97.7155 131.408 97.5144 131.526 97.2421C131.644 96.9637 131.702 96.6048 131.702 96.1655V95.9427C131.702 95.5034 131.644 95.1476 131.526 94.8753C131.408 94.5969 131.238 94.3927 131.015 94.2628C130.793 94.1328 130.517 94.0678 130.189 94.0678C129.861 94.0678 129.586 94.1328 129.363 94.2628C129.141 94.3927 128.97 94.5969 128.853 94.8753C128.735 95.1476 128.677 95.5034 128.677 95.9427V96.1655C128.677 96.6048 128.735 96.9637 128.853 97.2421C128.97 97.5144 129.141 97.7155 129.363 97.8454C129.586 97.9754 129.861 98.0403 130.189 98.0403ZM134.549 98.6065C134.085 98.6065 133.71 98.4889 133.426 98.2538C133.141 98.0187 132.999 97.6072 132.999 97.0194V93.613H133.667V96.9544C133.667 97.171 133.695 97.3473 133.75 97.4834C133.806 97.6196 133.883 97.7278 133.982 97.8083C134.081 97.8825 134.196 97.9351 134.326 97.9661C134.462 97.997 134.607 98.0125 134.762 98.0125C135.01 98.0125 135.242 97.9537 135.458 97.8361C135.681 97.7124 135.86 97.5391 135.997 97.3164C136.133 97.0874 136.201 96.8152 136.201 96.4996V93.613H136.869V98.4951H136.349L136.275 97.7248H136.21C136.074 97.9475 135.919 98.1239 135.746 98.2538C135.579 98.3776 135.393 98.4673 135.189 98.523C134.991 98.5787 134.778 98.6065 134.549 98.6065ZM137.804 98.4951V93.613H138.342L138.398 94.4298H138.463C138.506 94.2813 138.571 94.1359 138.658 93.9936C138.744 93.8513 138.862 93.7337 139.011 93.6409C139.159 93.5481 139.348 93.5017 139.577 93.5017C139.663 93.5017 139.744 93.511 139.818 93.5295C139.892 93.5419 139.948 93.5543 139.985 93.5666V94.1792H139.697C139.481 94.1792 139.295 94.2194 139.14 94.2999C138.986 94.3741 138.859 94.4824 138.76 94.6247C138.661 94.767 138.587 94.931 138.537 95.1167C138.494 95.2961 138.472 95.4848 138.472 95.6828V98.4951H137.804ZM143.593 98.6065C143.141 98.6065 142.758 98.5137 142.442 98.3281C142.133 98.1424 141.898 97.8609 141.737 97.4834C141.576 97.106 141.495 96.6295 141.495 96.0541C141.495 95.4848 141.576 95.0115 141.737 94.634C141.898 94.2566 142.136 93.975 142.451 93.7894C142.773 93.5976 143.166 93.5017 143.63 93.5017C143.97 93.5017 144.258 93.5481 144.493 93.6409C144.735 93.7275 144.93 93.8544 145.078 94.0214C145.233 94.1885 145.344 94.3896 145.412 94.6247C145.48 94.8599 145.514 95.1228 145.514 95.4137H144.855C144.855 95.0981 144.812 94.8444 144.725 94.6526C144.645 94.4546 144.512 94.3092 144.326 94.2163C144.147 94.1173 143.909 94.0678 143.612 94.0678C143.333 94.0678 143.086 94.1297 142.869 94.2535C142.659 94.3772 142.492 94.5752 142.368 94.8475C142.25 95.1136 142.192 95.4786 142.192 95.9427V96.1655C142.192 96.6048 142.247 96.9637 142.359 97.2421C142.47 97.5144 142.631 97.7155 142.841 97.8454C143.058 97.9754 143.315 98.0403 143.612 98.0403C143.921 98.0403 144.165 97.9877 144.345 97.8825C144.53 97.7712 144.663 97.6165 144.744 97.4185C144.824 97.2143 144.865 96.973 144.865 96.6945H145.514C145.514 96.9544 145.48 97.2019 145.412 97.437C145.344 97.666 145.233 97.8671 145.078 98.0403C144.93 98.2136 144.732 98.3528 144.484 98.458C144.243 98.557 143.946 98.6065 143.593 98.6065ZM146.126 98.4951V91.7846H146.794V98.4951H146.126ZM148.946 98.6065C148.755 98.6065 148.566 98.5817 148.38 98.5322C148.195 98.4889 148.027 98.4178 147.879 98.3188C147.737 98.2136 147.622 98.0744 147.536 97.9011C147.449 97.7278 147.406 97.5144 147.406 97.2607C147.406 96.9265 147.486 96.6543 147.647 96.4439C147.814 96.2273 148.046 96.0603 148.343 95.9427C148.64 95.819 148.99 95.7354 149.392 95.6921C149.8 95.6488 150.243 95.6271 150.719 95.6271V95.0053C150.719 94.8073 150.682 94.6402 150.608 94.5041C150.54 94.3618 150.416 94.2535 150.236 94.1792C150.063 94.0988 149.816 94.0586 149.494 94.0586C149.185 94.0586 148.94 94.0988 148.761 94.1792C148.581 94.2597 148.454 94.3648 148.38 94.4948C148.312 94.6185 148.278 94.7578 148.278 94.9125V95.061H147.638C147.631 95.03 147.628 94.9991 147.628 94.9681C147.628 94.9372 147.628 94.9001 147.628 94.8568C147.628 94.5474 147.709 94.2937 147.87 94.0957C148.031 93.8977 148.26 93.7492 148.557 93.6502C148.854 93.5512 149.194 93.5017 149.577 93.5017C149.967 93.5017 150.295 93.5605 150.561 93.678C150.827 93.7894 151.032 93.9503 151.174 94.1607C151.316 94.371 151.387 94.6247 151.387 94.9217V97.7248C151.387 97.8423 151.409 97.9259 151.452 97.9754C151.502 98.0187 151.567 98.0403 151.647 98.0403H152.037V98.4673C151.944 98.5044 151.845 98.5353 151.74 98.5601C151.641 98.5848 151.536 98.5972 151.424 98.5972C151.264 98.5972 151.134 98.5632 151.035 98.4951C150.942 98.4271 150.874 98.3311 150.83 98.2074C150.793 98.0836 150.769 97.9475 150.756 97.799H150.691C150.574 97.9661 150.422 98.1115 150.236 98.2352C150.057 98.3528 149.859 98.4425 149.642 98.5044C149.426 98.5725 149.194 98.6065 148.946 98.6065ZM149.086 98.0403C149.29 98.0403 149.488 98.0063 149.68 97.9382C149.871 97.8702 150.045 97.7773 150.199 97.6598C150.354 97.536 150.478 97.3906 150.571 97.2236C150.67 97.0565 150.719 96.8709 150.719 96.6667V96.1655C150.144 96.1655 149.661 96.1964 149.271 96.2583C148.888 96.3202 148.597 96.4284 148.399 96.5831C148.207 96.7378 148.111 96.9544 148.111 97.2328C148.111 97.4185 148.151 97.5732 148.232 97.6969C148.318 97.8145 148.436 97.9011 148.584 97.9568C148.733 98.0125 148.9 98.0403 149.086 98.0403ZM152.363 92.6106V91.7846H153.031V92.6106H152.363ZM152.363 98.4951V93.613H153.031V98.4951H152.363ZM153.967 98.4951V93.613H154.496L154.561 94.3834H154.626C154.762 94.1607 154.911 93.9874 155.072 93.8636C155.233 93.7337 155.409 93.6409 155.601 93.5852C155.793 93.5295 155.997 93.5017 156.213 93.5017C156.541 93.5017 156.823 93.5697 157.058 93.7059C157.293 93.8358 157.46 94.0617 157.559 94.3834H157.615C157.745 94.1668 157.89 93.9967 158.051 93.8729C158.212 93.743 158.388 93.6502 158.58 93.5945C158.778 93.5326 158.985 93.5017 159.202 93.5017C159.493 93.5017 159.75 93.5512 159.972 93.6502C160.195 93.7492 160.368 93.9131 160.492 94.1421C160.622 94.371 160.687 94.6804 160.687 95.0702V98.4951H160.019V95.1445C160.019 94.9341 159.991 94.7609 159.935 94.6247C159.886 94.4824 159.815 94.3741 159.722 94.2999C159.629 94.2256 159.521 94.173 159.397 94.1421C159.273 94.1112 159.14 94.0957 158.998 94.0957C158.763 94.0957 158.543 94.1576 158.339 94.2813C158.141 94.3989 157.977 94.569 157.847 94.7918C157.723 95.0146 157.661 95.2868 157.661 95.6086V98.4951H156.993V95.1445C156.993 94.9341 156.968 94.7609 156.919 94.6247C156.869 94.4824 156.798 94.3741 156.705 94.2999C156.612 94.2256 156.504 94.173 156.38 94.1421C156.263 94.1112 156.136 94.0957 156 94.0957C155.765 94.0957 155.542 94.1576 155.332 94.2813C155.127 94.3989 154.96 94.569 154.83 94.7918C154.7 95.0146 154.635 95.2868 154.635 95.6086V98.4951H153.967ZM162.788 98.6065C162.596 98.6065 162.408 98.5817 162.222 98.5322C162.036 98.4889 161.869 98.4178 161.721 98.3188C161.578 98.2136 161.464 98.0744 161.377 97.9011C161.291 97.7278 161.247 97.5144 161.247 97.2607C161.247 96.9265 161.328 96.6543 161.489 96.4439C161.656 96.2273 161.888 96.0603 162.185 95.9427C162.482 95.819 162.831 95.7354 163.234 95.6921C163.642 95.6488 164.084 95.6271 164.561 95.6271V95.0053C164.561 94.8073 164.524 94.6402 164.449 94.5041C164.381 94.3618 164.258 94.2535 164.078 94.1792C163.905 94.0988 163.657 94.0586 163.336 94.0586C163.026 94.0586 162.782 94.0988 162.602 94.1792C162.423 94.2597 162.296 94.3648 162.222 94.4948C162.154 94.6185 162.12 94.7578 162.12 94.9125V95.061H161.479C161.473 95.03 161.47 94.9991 161.47 94.9681C161.47 94.9372 161.47 94.9001 161.47 94.8568C161.47 94.5474 161.551 94.2937 161.711 94.0957C161.872 93.8977 162.101 93.7492 162.398 93.6502C162.695 93.5512 163.036 93.5017 163.419 93.5017C163.809 93.5017 164.137 93.5605 164.403 93.678C164.669 93.7894 164.873 93.9503 165.016 94.1607C165.158 94.371 165.229 94.6247 165.229 94.9217V97.7248C165.229 97.8423 165.251 97.9259 165.294 97.9754C165.344 98.0187 165.409 98.0403 165.489 98.0403H165.879V98.4673C165.786 98.5044 165.687 98.5353 165.582 98.5601C165.483 98.5848 165.378 98.5972 165.266 98.5972C165.105 98.5972 164.975 98.5632 164.876 98.4951C164.784 98.4271 164.716 98.3311 164.672 98.2074C164.635 98.0836 164.61 97.9475 164.598 97.799H164.533C164.415 97.9661 164.264 98.1115 164.078 98.2352C163.899 98.3528 163.701 98.4425 163.484 98.5044C163.268 98.5725 163.036 98.6065 162.788 98.6065ZM162.927 98.0403C163.132 98.0403 163.33 98.0063 163.521 97.9382C163.713 97.8702 163.886 97.7773 164.041 97.6598C164.196 97.536 164.32 97.3906 164.412 97.2236C164.511 97.0565 164.561 96.8709 164.561 96.6667V96.1655C163.985 96.1655 163.503 96.1964 163.113 96.2583C162.729 96.3202 162.438 96.4284 162.24 96.5831C162.049 96.7378 161.953 96.9544 161.953 97.2328C161.953 97.4185 161.993 97.5732 162.073 97.6969C162.16 97.8145 162.278 97.9011 162.426 97.9568C162.575 98.0125 162.742 98.0403 162.927 98.0403ZM168.404 98.6065C168.07 98.6065 167.773 98.5384 167.513 98.4023C167.259 98.2662 167.046 98.0589 166.873 97.7804H166.808L166.733 98.4951H166.204V91.7846H166.873V94.2442H166.938C167.049 94.0647 167.182 93.9224 167.337 93.8172C167.491 93.7059 167.661 93.6254 167.847 93.5759C168.033 93.5264 168.225 93.5017 168.423 93.5017C168.812 93.5017 169.15 93.5914 169.434 93.7708C169.725 93.9503 169.948 94.2256 170.103 94.5969C170.257 94.962 170.335 95.4322 170.335 96.0077C170.335 96.6203 170.257 97.1184 170.103 97.502C169.954 97.8794 169.734 98.1579 169.444 98.3373C169.159 98.5168 168.812 98.6065 168.404 98.6065ZM168.293 98.0218C168.565 98.0218 168.8 97.963 168.998 97.8454C169.202 97.7278 169.36 97.536 169.471 97.27C169.583 96.9977 169.638 96.6326 169.638 96.1747V95.9427C169.638 95.5034 169.586 95.1476 169.481 94.8753C169.382 94.6031 169.227 94.4051 169.017 94.2813C168.812 94.1514 168.556 94.0864 168.246 94.0864C168.079 94.0864 167.912 94.1142 167.745 94.1699C167.584 94.2194 167.439 94.3123 167.309 94.4484C167.179 94.5845 167.074 94.7763 166.993 95.0238C166.913 95.2713 166.873 95.5869 166.873 95.9705V96.1376C166.873 96.5398 166.919 96.8801 167.012 97.1586C167.111 97.437 167.265 97.6505 167.476 97.799C167.686 97.9475 167.958 98.0218 168.293 98.0218ZM170.981 98.4951V91.7846H171.65V98.4951H170.981ZM174.47 98.6065C174.006 98.6065 173.613 98.5168 173.291 98.3373C172.97 98.1517 172.725 97.8702 172.558 97.4927C172.391 97.1153 172.308 96.6357 172.308 96.0541C172.308 95.4663 172.391 94.9867 172.558 94.6154C172.725 94.238 172.973 93.9596 173.301 93.7801C173.629 93.5945 174.037 93.5017 174.526 93.5017C174.978 93.5017 175.355 93.5914 175.658 93.7708C175.968 93.9503 176.2 94.2102 176.354 94.5505C176.515 94.8908 176.596 95.3085 176.596 95.8035V96.2304H173.004C173.004 96.6574 173.062 97.007 173.18 97.2792C173.298 97.5515 173.465 97.7495 173.681 97.8733C173.904 97.9908 174.176 98.0496 174.498 98.0496C174.733 98.0496 174.937 98.0187 175.111 97.9568C175.29 97.8949 175.435 97.8114 175.547 97.7062C175.664 97.5948 175.754 97.4649 175.816 97.3164C175.878 97.1679 175.909 97.0132 175.909 96.8523H176.559C176.559 97.0936 176.512 97.3226 176.419 97.5391C176.333 97.7495 176.203 97.9351 176.029 98.096C175.862 98.2569 175.649 98.3837 175.389 98.4766C175.129 98.5632 174.823 98.6065 174.47 98.6065ZM173.004 95.7014H175.9C175.9 95.392 175.862 95.1352 175.788 94.931C175.72 94.7206 175.624 94.5536 175.5 94.4298C175.377 94.2999 175.228 94.2071 175.055 94.1514C174.888 94.0957 174.699 94.0678 174.489 94.0678C174.186 94.0678 173.926 94.1266 173.709 94.2442C173.493 94.3556 173.325 94.5319 173.208 94.7732C173.097 95.0146 173.028 95.3239 173.004 95.7014ZM180.066 98.6065C179.874 98.6065 179.685 98.5817 179.5 98.5322C179.314 98.4889 179.147 98.4178 178.998 98.3188C178.856 98.2136 178.742 98.0744 178.655 97.9011C178.568 97.7278 178.525 97.5144 178.525 97.2607C178.525 96.9265 178.606 96.6543 178.766 96.4439C178.933 96.2273 179.166 96.0603 179.463 95.9427C179.76 95.819 180.109 95.7354 180.511 95.6921C180.92 95.6488 181.362 95.6271 181.839 95.6271V95.0053C181.839 94.8073 181.801 94.6402 181.727 94.5041C181.659 94.3618 181.535 94.2535 181.356 94.1792C181.183 94.0988 180.935 94.0586 180.613 94.0586C180.304 94.0586 180.06 94.0988 179.88 94.1792C179.701 94.2597 179.574 94.3648 179.5 94.4948C179.432 94.6185 179.398 94.7578 179.398 94.9125V95.061H178.757C178.751 95.03 178.748 94.9991 178.748 94.9681C178.748 94.9372 178.748 94.9001 178.748 94.8568C178.748 94.5474 178.828 94.2937 178.989 94.0957C179.15 93.8977 179.379 93.7492 179.676 93.6502C179.973 93.5512 180.313 93.5017 180.697 93.5017C181.087 93.5017 181.415 93.5605 181.681 93.678C181.947 93.7894 182.151 93.9503 182.293 94.1607C182.436 94.371 182.507 94.6247 182.507 94.9217V97.7248C182.507 97.8423 182.529 97.9259 182.572 97.9754C182.621 98.0187 182.686 98.0403 182.767 98.0403H183.157V98.4673C183.064 98.5044 182.965 98.5353 182.86 98.5601C182.761 98.5848 182.655 98.5972 182.544 98.5972C182.383 98.5972 182.253 98.5632 182.154 98.4951C182.061 98.4271 181.993 98.3311 181.95 98.2074C181.913 98.0836 181.888 97.9475 181.876 97.799H181.811C181.693 97.9661 181.542 98.1115 181.356 98.2352C181.177 98.3528 180.979 98.4425 180.762 98.5044C180.545 98.5725 180.313 98.6065 180.066 98.6065ZM180.205 98.0403C180.409 98.0403 180.607 98.0063 180.799 97.9382C180.991 97.8702 181.164 97.7773 181.319 97.6598C181.474 97.536 181.597 97.3906 181.69 97.2236C181.789 97.0565 181.839 96.8709 181.839 96.6667V96.1655C181.263 96.1655 180.781 96.1964 180.391 96.2583C180.007 96.3202 179.716 96.4284 179.518 96.5831C179.326 96.7378 179.23 96.9544 179.23 97.2328C179.23 97.4185 179.271 97.5732 179.351 97.6969C179.438 97.8145 179.555 97.9011 179.704 97.9568C179.852 98.0125 180.019 98.0403 180.205 98.0403ZM185.106 98.6065C184.785 98.6065 184.5 98.5725 184.252 98.5044C184.005 98.4425 183.798 98.3497 183.631 98.226C183.47 98.096 183.346 97.9413 183.259 97.7619C183.179 97.5824 183.139 97.3751 183.139 97.14C183.139 97.1153 183.139 97.0905 183.139 97.0658C183.139 97.0348 183.142 97.007 183.148 96.9822H183.807C183.801 97.0132 183.798 97.041 183.798 97.0658C183.798 97.0843 183.798 97.1029 183.798 97.1215C183.804 97.3628 183.863 97.5515 183.974 97.6876C184.085 97.8176 184.243 97.9104 184.447 97.9661C184.651 98.0218 184.887 98.0496 185.153 98.0496C185.382 98.0496 185.586 98.0187 185.765 97.9568C185.951 97.8887 186.096 97.7928 186.201 97.6691C186.313 97.5453 186.369 97.3937 186.369 97.2143C186.369 96.9853 186.297 96.8121 186.155 96.6945C186.019 96.5769 185.84 96.4872 185.617 96.4253C185.394 96.3573 185.162 96.2861 184.921 96.2119C184.723 96.1562 184.528 96.0974 184.336 96.0355C184.144 95.9675 183.968 95.8839 183.807 95.7849C183.652 95.6859 183.528 95.5591 183.436 95.4044C183.343 95.2497 183.296 95.0548 183.296 94.8196C183.296 94.6154 183.337 94.4329 183.417 94.272C183.504 94.1112 183.624 93.975 183.779 93.8636C183.94 93.7461 184.135 93.6564 184.364 93.5945C184.593 93.5326 184.853 93.5017 185.143 93.5017C185.465 93.5017 185.741 93.5388 185.969 93.613C186.198 93.6873 186.384 93.7894 186.526 93.9193C186.669 94.0431 186.774 94.1854 186.842 94.3463C186.91 94.501 186.944 94.665 186.944 94.8382C186.944 94.863 186.941 94.8908 186.935 94.9217C186.935 94.9527 186.935 94.9805 186.935 95.0053H186.276V94.8846C186.276 94.7547 186.242 94.6278 186.174 94.5041C186.112 94.3803 185.997 94.2751 185.83 94.1885C185.669 94.1019 185.428 94.0586 185.106 94.0586C184.914 94.0586 184.747 94.0771 184.605 94.1142C184.469 94.1452 184.351 94.1916 184.252 94.2535C184.16 94.3153 184.088 94.3927 184.039 94.4855C183.996 94.5721 183.974 94.6742 183.974 94.7918C183.974 94.9712 184.03 95.1105 184.141 95.2095C184.259 95.3023 184.41 95.3796 184.596 95.4415C184.781 95.4972 184.979 95.5591 185.19 95.6271C185.4 95.689 185.614 95.754 185.83 95.822C186.053 95.8901 186.257 95.9736 186.443 96.0726C186.628 96.1716 186.777 96.3047 186.888 96.4717C187 96.6326 187.055 96.8461 187.055 97.1122C187.055 97.3597 187.006 97.5793 186.907 97.7712C186.808 97.9568 186.672 98.1115 186.498 98.2352C186.325 98.359 186.118 98.4518 185.877 98.5137C185.641 98.5756 185.385 98.6065 185.106 98.6065ZM189.33 98.6065C189.009 98.6065 188.724 98.5725 188.477 98.5044C188.229 98.4425 188.022 98.3497 187.855 98.226C187.694 98.096 187.57 97.9413 187.483 97.7619C187.403 97.5824 187.363 97.3751 187.363 97.14C187.363 97.1153 187.363 97.0905 187.363 97.0658C187.363 97.0348 187.366 97.007 187.372 96.9822H188.031C188.025 97.0132 188.022 97.041 188.022 97.0658C188.022 97.0843 188.022 97.1029 188.022 97.1215C188.028 97.3628 188.087 97.5515 188.198 97.6876C188.309 97.8176 188.467 97.9104 188.671 97.9661C188.876 98.0218 189.111 98.0496 189.377 98.0496C189.606 98.0496 189.81 98.0187 189.989 97.9568C190.175 97.8887 190.32 97.7928 190.426 97.6691C190.537 97.5453 190.593 97.3937 190.593 97.2143C190.593 96.9853 190.522 96.8121 190.379 96.6945C190.243 96.5769 190.064 96.4872 189.841 96.4253C189.618 96.3573 189.386 96.2861 189.145 96.2119C188.947 96.1562 188.752 96.0974 188.56 96.0355C188.368 95.9675 188.192 95.8839 188.031 95.7849C187.876 95.6859 187.753 95.5591 187.66 95.4044C187.567 95.2497 187.521 95.0548 187.521 94.8196C187.521 94.6154 187.561 94.4329 187.641 94.272C187.728 94.1112 187.848 93.975 188.003 93.8636C188.164 93.7461 188.359 93.6564 188.588 93.5945C188.817 93.5326 189.077 93.5017 189.368 93.5017C189.689 93.5017 189.965 93.5388 190.194 93.613C190.423 93.6873 190.608 93.7894 190.751 93.9193C190.893 94.0431 190.998 94.1854 191.066 94.3463C191.134 94.501 191.168 94.665 191.168 94.8382C191.168 94.863 191.165 94.8908 191.159 94.9217C191.159 94.9527 191.159 94.9805 191.159 95.0053H190.5V94.8846C190.5 94.7547 190.466 94.6278 190.398 94.5041C190.336 94.3803 190.221 94.2751 190.054 94.1885C189.894 94.1019 189.652 94.0586 189.33 94.0586C189.139 94.0586 188.972 94.0771 188.829 94.1142C188.693 94.1452 188.576 94.1916 188.477 94.2535C188.384 94.3153 188.313 94.3927 188.263 94.4855C188.22 94.5721 188.198 94.6742 188.198 94.7918C188.198 94.9712 188.254 95.1105 188.365 95.2095C188.483 95.3023 188.634 95.3796 188.82 95.4415C189.006 95.4972 189.204 95.5591 189.414 95.6271C189.624 95.689 189.838 95.754 190.054 95.822C190.277 95.8901 190.481 95.9736 190.667 96.0726C190.853 96.1716 191.001 96.3047 191.112 96.4717C191.224 96.6326 191.28 96.8461 191.28 97.1122C191.28 97.3597 191.23 97.5793 191.131 97.7712C191.032 97.9568 190.896 98.1115 190.723 98.2352C190.549 98.359 190.342 98.4518 190.101 98.5137C189.866 98.5756 189.609 98.6065 189.33 98.6065ZM193.814 98.6065C193.35 98.6065 192.957 98.5168 192.636 98.3373C192.314 98.1517 192.07 97.8702 191.903 97.4927C191.735 97.1153 191.652 96.6357 191.652 96.0541C191.652 95.4663 191.735 94.9867 191.903 94.6154C192.07 94.238 192.317 93.9596 192.645 93.7801C192.973 93.5945 193.381 93.5017 193.87 93.5017C194.322 93.5017 194.699 93.5914 195.003 93.7708C195.312 93.9503 195.544 94.2102 195.699 94.5505C195.86 94.8908 195.94 95.3085 195.94 95.8035V96.2304H192.348C192.348 96.6574 192.407 97.007 192.524 97.2792C192.642 97.5515 192.809 97.7495 193.026 97.8733C193.248 97.9908 193.521 98.0496 193.842 98.0496C194.077 98.0496 194.282 98.0187 194.455 97.9568C194.634 97.8949 194.78 97.8114 194.891 97.7062C195.009 97.5948 195.098 97.4649 195.16 97.3164C195.222 97.1679 195.253 97.0132 195.253 96.8523H195.903C195.903 97.0936 195.856 97.3226 195.764 97.5391C195.677 97.7495 195.547 97.9351 195.374 98.096C195.207 98.2569 194.993 98.3837 194.733 98.4766C194.473 98.5632 194.167 98.6065 193.814 98.6065ZM192.348 95.7014H195.244C195.244 95.392 195.207 95.1352 195.132 94.931C195.064 94.7206 194.968 94.5536 194.845 94.4298C194.721 94.2999 194.572 94.2071 194.399 94.1514C194.232 94.0957 194.043 94.0678 193.833 94.0678C193.53 94.0678 193.27 94.1266 193.053 94.2442C192.837 94.3556 192.67 94.5319 192.552 94.7732C192.441 95.0146 192.373 95.3239 192.348 95.7014ZM197.657 98.5972C197.434 98.5972 197.255 98.557 197.119 98.4766C196.989 98.3961 196.896 98.2847 196.84 98.1424C196.791 98.0001 196.766 97.8423 196.766 97.6691V94.1792H196.107V93.613H196.766L196.896 92.2579H197.434V93.613H198.372V94.1792H197.434V97.5484C197.434 97.7155 197.456 97.8392 197.499 97.9197C197.549 98.0001 197.654 98.0403 197.815 98.0403H198.372V98.4673C198.31 98.492 198.236 98.5137 198.149 98.5322C198.069 98.557 197.985 98.5725 197.898 98.5787C197.812 98.591 197.731 98.5972 197.657 98.5972ZM200.516 98.6065C200.195 98.6065 199.91 98.5725 199.663 98.5044C199.415 98.4425 199.208 98.3497 199.041 98.226C198.88 98.096 198.756 97.9413 198.669 97.7619C198.589 97.5824 198.549 97.3751 198.549 97.14C198.549 97.1153 198.549 97.0905 198.549 97.0658C198.549 97.0348 198.552 97.007 198.558 96.9822H199.217C199.211 97.0132 199.208 97.041 199.208 97.0658C199.208 97.0843 199.208 97.1029 199.208 97.1215C199.214 97.3628 199.273 97.5515 199.384 97.6876C199.495 97.8176 199.653 97.9104 199.857 97.9661C200.062 98.0218 200.297 98.0496 200.563 98.0496C200.792 98.0496 200.996 98.0187 201.175 97.9568C201.361 97.8887 201.506 97.7928 201.612 97.6691C201.723 97.5453 201.779 97.3937 201.779 97.2143C201.779 96.9853 201.708 96.8121 201.565 96.6945C201.429 96.5769 201.25 96.4872 201.027 96.4253C200.804 96.3573 200.572 96.2861 200.331 96.2119C200.133 96.1562 199.938 96.0974 199.746 96.0355C199.554 95.9675 199.378 95.8839 199.217 95.7849C199.062 95.6859 198.939 95.5591 198.846 95.4044C198.753 95.2497 198.707 95.0548 198.707 94.8196C198.707 94.6154 198.747 94.4329 198.827 94.272C198.914 94.1112 199.035 93.975 199.189 93.8636C199.35 93.7461 199.545 93.6564 199.774 93.5945C200.003 93.5326 200.263 93.5017 200.554 93.5017C200.875 93.5017 201.151 93.5388 201.38 93.613C201.609 93.6873 201.794 93.7894 201.937 93.9193C202.079 94.0431 202.184 94.1854 202.252 94.3463C202.32 94.501 202.354 94.665 202.354 94.8382C202.354 94.863 202.351 94.8908 202.345 94.9217C202.345 94.9527 202.345 94.9805 202.345 95.0053H201.686V94.8846C201.686 94.7547 201.652 94.6278 201.584 94.5041C201.522 94.3803 201.407 94.2751 201.24 94.1885C201.08 94.1019 200.838 94.0586 200.516 94.0586C200.325 94.0586 200.158 94.0771 200.015 94.1142C199.879 94.1452 199.762 94.1916 199.663 94.2535C199.57 94.3153 199.499 94.3927 199.449 94.4855C199.406 94.5721 199.384 94.6742 199.384 94.7918C199.384 94.9712 199.44 95.1105 199.551 95.2095C199.669 95.3023 199.82 95.3796 200.006 95.4415C200.192 95.4972 200.39 95.5591 200.6 95.6271C200.81 95.689 201.024 95.754 201.24 95.822C201.463 95.8901 201.667 95.9736 201.853 96.0726C202.039 96.1716 202.187 96.3047 202.299 96.4717C202.41 96.6326 202.466 96.8461 202.466 97.1122C202.466 97.3597 202.416 97.5793 202.317 97.7712C202.218 97.9568 202.082 98.1115 201.909 98.2352C201.735 98.359 201.528 98.4518 201.287 98.5137C201.052 98.5756 200.795 98.6065 200.516 98.6065Z" fill="#7F7F7F"/>
<rect x="414.53" y="69.5576" width="88.5013" height="30.9383" rx="15.4692" fill="#3F3F3F" fill-opacity="0.6"/>
<path d="M443.373 89.1563C442.615 89.1563 441.969 89.0228 441.435 88.7557C440.908 88.4813 440.504 88.059 440.222 87.4887C439.941 86.9184 439.8 86.1929 439.8 85.3122C439.8 84.0128 440.114 83.0491 440.742 82.421C441.377 81.7858 442.258 81.4681 443.384 81.4681C444.005 81.4681 444.561 81.5728 445.052 81.7822C445.55 81.9915 445.94 82.3055 446.221 82.7242C446.51 83.1357 446.654 83.6627 446.654 84.3052H445.42C445.42 83.9081 445.337 83.5761 445.171 83.309C445.005 83.0419 444.767 82.8397 444.456 82.7026C444.153 82.5654 443.799 82.4968 443.395 82.4968C442.89 82.4968 442.46 82.5979 442.106 82.8C441.76 82.9949 441.496 83.2909 441.316 83.688C441.143 84.085 441.056 84.5903 441.056 85.2039V85.4422C441.056 86.0558 441.143 86.5611 441.316 86.9581C441.496 87.3552 441.76 87.6512 442.106 87.8461C442.453 88.0338 442.883 88.1276 443.395 88.1276C443.814 88.1276 444.178 88.0626 444.489 87.9327C444.799 87.7955 445.037 87.5934 445.203 87.3263C445.377 87.0592 445.463 86.7271 445.463 86.3301H446.654C446.654 86.9726 446.51 87.5032 446.221 87.9219C445.94 88.3406 445.55 88.651 445.052 88.8531C444.561 89.0552 444.001 89.1563 443.373 89.1563ZM447.419 89.0264V81.1974H448.545V89.0264H447.419ZM451.006 89.1563C450.826 89.1563 450.631 89.1347 450.422 89.0913C450.212 89.048 450.014 88.9686 449.826 88.8531C449.645 88.7376 449.498 88.5788 449.382 88.3767C449.267 88.1673 449.209 87.8966 449.209 87.5645C449.209 87.1747 449.299 86.8535 449.479 86.6008C449.66 86.3481 449.913 86.1496 450.237 86.0052C450.562 85.8609 450.949 85.7598 451.396 85.702C451.851 85.6443 452.345 85.6154 452.88 85.6154V85.0523C452.88 84.8646 452.847 84.6986 452.782 84.5542C452.724 84.4099 452.612 84.298 452.446 84.2185C452.288 84.1391 452.057 84.0994 451.753 84.0994C451.45 84.0994 451.212 84.1391 451.039 84.2185C450.873 84.2907 450.754 84.3846 450.681 84.5001C450.616 84.6084 450.584 84.7275 450.584 84.8574V85.0199H449.501C449.494 84.9838 449.49 84.9477 449.49 84.9116C449.49 84.8755 449.49 84.8322 449.49 84.7816C449.49 84.4423 449.584 84.1572 449.772 83.9262C449.967 83.688 450.237 83.5075 450.584 83.3848C450.93 83.262 451.331 83.2007 451.786 83.2007C452.277 83.2007 452.685 83.2729 453.01 83.4172C453.342 83.5544 453.591 83.7529 453.757 84.0128C453.923 84.2727 454.006 84.5867 454.006 84.9549V87.8461C454.006 87.9832 454.038 88.0807 454.103 88.1384C454.175 88.1962 454.258 88.2251 454.352 88.2251H454.742V88.9831C454.655 89.0191 454.547 89.0552 454.417 89.0913C454.287 89.1274 454.136 89.1455 453.962 89.1455C453.768 89.1455 453.601 89.1094 453.464 89.0372C453.334 88.9722 453.226 88.8784 453.139 88.7557C453.06 88.6257 453.006 88.4813 452.977 88.3225H452.912C452.782 88.4886 452.623 88.6365 452.436 88.7665C452.255 88.8892 452.046 88.9831 451.808 89.048C451.569 89.1202 451.302 89.1563 451.006 89.1563ZM451.32 88.2251C451.544 88.2251 451.75 88.1926 451.938 88.1276C452.132 88.0554 452.298 87.958 452.436 87.8352C452.573 87.7053 452.681 87.5537 452.76 87.3804C452.84 87.2 452.88 87.0051 452.88 86.7957V86.4167C452.381 86.4167 451.945 86.4456 451.569 86.5033C451.194 86.5611 450.902 86.6694 450.692 86.8282C450.483 86.9798 450.378 87.1928 450.378 87.4671C450.378 87.6331 450.414 87.7739 450.487 87.8894C450.559 87.9977 450.667 88.0807 450.811 88.1384C450.956 88.1962 451.125 88.2251 451.32 88.2251ZM455.086 82.3452V81.1974H456.213V82.3452H455.086ZM455.086 89.0264V83.3306H456.213V89.0264H455.086ZM457.234 89.0264V83.3306H458.165L458.262 84.1427H458.338C458.468 83.9334 458.616 83.7601 458.782 83.623C458.955 83.4858 459.147 83.3812 459.356 83.309C459.572 83.2368 459.803 83.2007 460.049 83.2007C460.403 83.2007 460.709 83.2729 460.969 83.4172C461.236 83.5616 461.439 83.8035 461.576 84.1427H461.652C461.781 83.9406 461.933 83.771 462.106 83.6338C462.28 83.4894 462.474 83.3812 462.691 83.309C462.915 83.2368 463.153 83.2007 463.406 83.2007C463.745 83.2007 464.045 83.262 464.304 83.3848C464.564 83.5003 464.77 83.6988 464.922 83.9803C465.073 84.2546 465.149 84.6228 465.149 85.0848V89.0264H464.023V85.2906C464.023 85.074 463.998 84.8971 463.947 84.76C463.897 84.6156 463.828 84.5037 463.741 84.4243C463.655 84.3377 463.55 84.2763 463.427 84.2402C463.305 84.2041 463.171 84.1861 463.027 84.1861C462.789 84.1861 462.576 84.251 462.388 84.381C462.2 84.5037 462.049 84.677 461.933 84.9007C461.818 85.1245 461.76 85.388 461.76 85.6912V89.0264H460.634V85.2906C460.634 85.074 460.608 84.8971 460.558 84.76C460.507 84.6156 460.439 84.5037 460.352 84.4243C460.265 84.3377 460.161 84.2763 460.038 84.2402C459.915 84.2041 459.785 84.1861 459.648 84.1861C459.41 84.1861 459.193 84.251 458.999 84.381C458.804 84.5037 458.648 84.677 458.533 84.9007C458.417 85.1245 458.36 85.388 458.36 85.6912V89.0264H457.234ZM469.344 89.1563C469.164 89.1563 468.969 89.1347 468.76 89.0913C468.55 89.048 468.352 88.9686 468.164 88.8531C467.984 88.7376 467.836 88.5788 467.72 88.3767C467.605 88.1673 467.547 87.8966 467.547 87.5645C467.547 87.1747 467.637 86.8535 467.818 86.6008C467.998 86.3481 468.251 86.1496 468.576 86.0052C468.9 85.8609 469.287 85.7598 469.734 85.702C470.189 85.6443 470.683 85.6154 471.218 85.6154V85.0523C471.218 84.8646 471.185 84.6986 471.12 84.5542C471.062 84.4099 470.951 84.298 470.785 84.2185C470.626 84.1391 470.395 84.0994 470.092 84.0994C469.788 84.0994 469.55 84.1391 469.377 84.2185C469.211 84.2907 469.092 84.3846 469.02 84.5001C468.955 84.6084 468.922 84.7275 468.922 84.8574V85.0199H467.839C467.832 84.9838 467.828 84.9477 467.828 84.9116C467.828 84.8755 467.828 84.8322 467.828 84.7816C467.828 84.4423 467.922 84.1572 468.11 83.9262C468.305 83.688 468.576 83.5075 468.922 83.3848C469.269 83.262 469.669 83.2007 470.124 83.2007C470.615 83.2007 471.023 83.2729 471.348 83.4172C471.68 83.5544 471.929 83.7529 472.095 84.0128C472.261 84.2727 472.344 84.5867 472.344 84.9549V87.8461C472.344 87.9832 472.376 88.0807 472.441 88.1384C472.513 88.1962 472.597 88.2251 472.69 88.2251H473.08V88.9831C472.994 89.0191 472.885 89.0552 472.755 89.0913C472.625 89.1274 472.474 89.1455 472.301 89.1455C472.106 89.1455 471.94 89.1094 471.802 89.0372C471.672 88.9722 471.564 88.8784 471.478 88.7557C471.398 88.6257 471.344 88.4813 471.315 88.3225H471.25C471.12 88.4886 470.961 88.6365 470.774 88.7665C470.593 88.8892 470.384 88.9831 470.146 89.048C469.907 89.1202 469.64 89.1563 469.344 89.1563ZM469.658 88.2251C469.882 88.2251 470.088 88.1926 470.276 88.1276C470.471 88.0554 470.637 87.958 470.774 87.8352C470.911 87.7053 471.019 87.5537 471.099 87.3804C471.178 87.2 471.218 87.0051 471.218 86.7957V86.4167C470.72 86.4167 470.283 86.4456 469.907 86.5033C469.532 86.5611 469.24 86.6694 469.03 86.8282C468.821 86.9798 468.716 87.1928 468.716 87.4671C468.716 87.6331 468.752 87.7739 468.825 87.8894C468.897 87.9977 469.005 88.0807 469.149 88.1384C469.294 88.1962 469.463 88.2251 469.658 88.2251ZM473.425 89.0264V81.1974H474.551V89.0264H473.425ZM475.572 89.0264V81.1974H476.698V89.0264H475.572Z" fill="#F1F1F1"/>
</g>
<defs>
<filter id="filter0_d_1431_36820" x="0.82472" y="0.60158" width="520.77" height="138.412" filterUnits="userSpaceOnUse" color-interpolation-filters="sRGB">
<feFlood flood-opacity="0" result="BackgroundImageFix"/>
<feColorMatrix in="SourceAlpha" type="matrix" values="0 0 0 0 0 0 0 0 0 0 0 0 0 0 0 0 0 0 127 0" result="hardAlpha"/>
<feOffset dx="-51.0483" dy="3.09383"/>
<feGaussianBlur stdDeviation="8.4307"/>
<feComposite in2="hardAlpha" operator="out"/>
<feColorMatrix type="matrix" values="0 0 0 0 0.0230559 0 0 0 0 0.671989 0 0 0 0 0.542202 0 0 0 1 0"/>
<feBlend mode="normal" in2="BackgroundImageFix" result="effect1_dropShadow_1431_36820"/>
<feBlend mode="normal" in="SourceGraphic" in2="effect1_dropShadow_1431_36820" result="shape"/>
</filter>
</defs>
</svg>
