<svg width="48" height="49" viewBox="0 0 48 49" fill="none" xmlns="http://www.w3.org/2000/svg">
<rect y="0.857422" width="48" height="48" rx="24" fill="#1E1E1E" fill-opacity="0.6"/>
<path d="M33.6933 15.9648C31.92 15.1381 30 14.5381 28 14.1915C27.9825 14.1909 27.965 14.1942 27.9489 14.2011C27.9328 14.208 27.9183 14.2184 27.9067 14.2315C27.6667 14.6715 27.3867 15.2448 27.2 15.6848C25.0787 15.3648 22.9213 15.3648 20.8 15.6848C20.6133 15.2315 20.3333 14.6715 20.08 14.2315C20.0667 14.2048 20.0267 14.1915 19.9867 14.1915C17.9867 14.5381 16.08 15.1381 14.2933 15.9648C14.28 15.9648 14.2667 15.9781 14.2533 15.9915C10.6267 21.4181 9.62666 26.6981 10.12 31.9248C10.12 31.9515 10.1333 31.9781 10.16 31.9915C12.56 33.7515 14.8667 34.8181 17.1467 35.5248C17.1867 35.5381 17.2267 35.5248 17.24 35.4981C17.7733 34.7648 18.2533 33.9915 18.6667 33.1781C18.6933 33.1248 18.6667 33.0715 18.6133 33.0581C17.8533 32.7648 17.1333 32.4181 16.4267 32.0181C16.3733 31.9915 16.3733 31.9115 16.4133 31.8715C16.56 31.7648 16.7067 31.6448 16.8533 31.5381C16.88 31.5115 16.92 31.5115 16.9467 31.5248C21.5333 33.6181 26.48 33.6181 31.0133 31.5248C31.04 31.5115 31.08 31.5115 31.1067 31.5381C31.2533 31.6581 31.4 31.7648 31.5467 31.8848C31.6 31.9248 31.6 32.0048 31.5333 32.0315C30.84 32.4448 30.1067 32.7781 29.3467 33.0715C29.2933 33.0848 29.28 33.1515 29.2933 33.1915C29.72 34.0048 30.2 34.7781 30.72 35.5115C30.76 35.5248 30.8 35.5381 30.84 35.5248C33.1333 34.8181 35.44 33.7515 37.84 31.9915C37.8667 31.9781 37.88 31.9515 37.88 31.9248C38.4667 25.8848 36.9067 20.6448 33.7467 15.9915C33.7333 15.9781 33.72 15.9648 33.6933 15.9648ZM19.36 28.7381C17.9867 28.7381 16.84 27.4715 16.84 25.9115C16.84 24.3515 17.96 23.0848 19.36 23.0848C20.7733 23.0848 21.8933 24.3648 21.88 25.9115C21.88 27.4715 20.76 28.7381 19.36 28.7381ZM28.6533 28.7381C27.28 28.7381 26.1333 27.4715 26.1333 25.9115C26.1333 24.3515 27.2533 23.0848 28.6533 23.0848C30.0667 23.0848 31.1867 24.3648 31.1733 25.9115C31.1733 27.4715 30.0667 28.7381 28.6533 28.7381Z" fill="white"/>
</svg>
