<svg width="41" height="46" viewBox="0 0 41 46" fill="none" xmlns="http://www.w3.org/2000/svg">
<rect x="0.5" y="0.5" width="40" height="40" rx="20" fill="#79E7BA"/>
<path d="M29.1251 17.5712H12.6725C12.3751 17.5712 12.1339 17.9594 12.1339 18.4382V22.5544C12.1339 23.0332 12.3751 23.4214 12.6725 23.4214H29.1251C29.4226 23.4214 29.6637 23.0332 29.6637 22.5544V18.4382C29.6637 17.9594 29.4226 17.5712 29.1251 17.5712Z" fill="#010104"/>
<path d="M29.0126 11.0199L12.7451 8.55908C12.451 8.51458 12.1545 8.86233 12.0828 9.33579L11.4672 13.4057C11.3956 13.8791 11.5759 14.299 11.8701 14.3435L28.1376 16.8043C28.4317 16.8488 28.7282 16.5011 28.7998 16.0276L29.4155 11.9577C29.4871 11.4843 29.3067 11.0644 29.0126 11.0199Z" fill="#010104"/>
<path d="M11.8687 26.6565L28.1363 24.1957C28.4304 24.1512 28.7269 24.4989 28.7985 24.9724L29.4142 29.0423C29.4858 29.5157 29.3054 29.9356 29.0113 29.9801L12.7437 32.4409C12.4496 32.4854 12.1531 32.1377 12.0815 31.6642L11.4659 27.5943C11.3942 27.1209 11.5746 26.701 11.8687 26.6565Z" fill="#010104"/>
<g clip-path="url(#clip0_333_93875)">
<path d="M32.5001 42.451C34.9586 42.451 36.9515 40.458 36.9515 37.9995C36.9515 35.5411 34.9586 33.5481 32.5001 33.5481C30.0417 33.5481 28.0487 35.5411 28.0487 37.9995C28.0487 40.458 30.0416 42.451 32.5001 42.451" fill="white"/>
<path d="M26.7431 35.8123C26.4111 35.2371 26.0207 34.6334 25.5721 34.0012C24.8699 35.2173 24.5001 36.5969 24.5001 38.0011C24.5001 39.4054 24.8698 40.785 25.572 42.0011C26.2742 43.2172 27.2843 44.227 28.5005 44.929C29.7168 45.631 31.0964 46.0004 32.5007 46C33.237 44.9673 33.7369 44.2227 34.0005 43.7663C34.5066 42.8895 35.1613 41.6343 35.9644 40.0006V39.9997C35.6135 40.608 35.1087 41.1132 34.5006 41.4645C33.8925 41.8158 33.2027 42.0008 32.5004 42.0009C31.7982 42.001 31.1083 41.8162 30.5001 41.4651C29.8919 41.114 29.3869 40.6089 29.0358 40.0007C27.9451 37.9665 27.1809 36.5703 26.7431 35.8123Z" fill="#229342"/>
<path d="M32.5005 45.9997C33.5511 45.9999 34.5914 45.7931 35.5621 45.3911C36.5327 44.9891 37.4147 44.3998 38.1575 43.6569C38.9004 42.914 39.4896 42.0321 39.8915 41.0614C40.2935 40.0907 40.5002 39.0504 40.5 37.9998C40.4997 36.5954 40.1297 35.216 39.4273 33.9999C37.9118 33.8506 36.7933 33.7759 36.0719 33.7759C35.2539 33.7759 34.0632 33.8506 32.4999 33.9999L32.499 34.0006C33.2013 34.0002 33.8913 34.1848 34.4996 34.5357C35.1079 34.8867 35.613 35.3916 35.9643 35.9998C36.3155 36.6079 36.5004 37.2978 36.5004 38.0001C36.5004 38.7024 36.3155 39.3923 35.9642 40.0004L32.5005 45.9997Z" fill="#FBC116"/>
<path d="M32.5001 41.1672C34.2491 41.1672 35.6669 39.7494 35.6669 38.0004C35.6669 36.2513 34.2491 34.8335 32.5001 34.8335C30.7511 34.8335 29.3333 36.2514 29.3333 38.0004C29.3333 39.7494 30.7511 41.1672 32.5001 41.1672Z" fill="#1A73E8"/>
<path d="M32.5001 34.0003H39.4275C38.7255 32.784 37.7157 31.774 36.4995 31.0718C35.2834 30.3695 33.9038 29.9999 32.4995 30C31.0952 30.0001 29.7157 30.3699 28.4997 31.0723C27.2836 31.7747 26.2739 32.7848 25.5721 34.0012L29.0358 40.0006L29.0368 40.0011C28.6854 39.3931 28.5003 38.7032 28.5 38.0009C28.4998 37.2987 28.6845 36.6087 29.0356 36.0005C29.3866 35.3923 29.8916 34.8872 30.4998 34.536C31.108 34.1849 31.7979 34.0001 32.5002 34.0002L32.5001 34.0003Z" fill="#E33B2E"/>
</g>
<defs>
<clipPath id="clip0_333_93875">
<rect width="16" height="16" fill="white" transform="translate(24.5 30)"/>
</clipPath>
</defs>
</svg>
