<svg width="566" height="505" viewBox="0 0 566 505" fill="none" xmlns="http://www.w3.org/2000/svg">
<g filter="url(#filter0_f_471_28366)">
<ellipse cx="282.5" cy="252.5" rx="140.5" ry="110.5" fill="#163483"/>
</g>
<mask id="mask0_471_28366" style="mask-type:alpha" maskUnits="userSpaceOnUse" x="2" y="104" width="564" height="289">
<rect x="2.5" y="104.84" width="563" height="288.016" fill="url(#paint0_linear_471_28366)"/>
</mask>
<g mask="url(#mask0_471_28366)">
<g filter="url(#filter1_dddd_471_28366)">
<mask id="mask1_471_28366" style="mask-type:alpha" maskUnits="userSpaceOnUse" x="285" y="94" width="316" height="262">
<rect width="315.384" height="260.648" transform="matrix(-1 0 0 1 600.688 94.4141)" fill="url(#paint1_radial_471_28366)"/>
</mask>
<g mask="url(#mask1_471_28366)">
<circle cx="162.905" cy="162.905" r="162.905" transform="matrix(0.924159 0.382008 -0.924159 0.382008 285.304 100.93)" stroke="url(#paint2_linear_471_28366)" stroke-width="5.21296" stroke-linecap="round" stroke-dasharray="0.13 15.64"/>
</g>
<mask id="mask2_471_28366" style="mask-type:alpha" maskUnits="userSpaceOnUse" x="-31" y="94" width="317" height="262">
<rect x="-30.0811" y="94.4141" width="315.384" height="260.648" fill="#D9D9D9"/>
</mask>
<g mask="url(#mask2_471_28366)">
<circle cx="105.888" cy="105.888" r="105.888" transform="matrix(0.924159 0.382008 -0.924159 0.382008 285.304 175.346)" stroke="url(#paint3_linear_471_28366)" stroke-width="5.21296" stroke-linecap="round" stroke-dasharray="0.08 10.17"/>
</g>
<mask id="mask3_471_28366" style="mask-type:alpha" maskUnits="userSpaceOnUse" x="285" y="94" width="316" height="262">
<rect width="315.384" height="260.648" transform="matrix(-1 0 0 1 600.688 94.4141)" fill="#D9D9D9"/>
</mask>
<g mask="url(#mask3_471_28366)">
<circle cx="74.1218" cy="74.1218" r="74.1218" transform="matrix(0.924159 0.382008 -0.924159 0.382008 285.304 182.383)" stroke="url(#paint4_linear_471_28366)" stroke-width="5.21296" stroke-linecap="round" stroke-dasharray="0.06 7.12"/>
</g>
<mask id="mask4_471_28366" style="mask-type:alpha" maskUnits="userSpaceOnUse" x="-31" y="94" width="317" height="262">
<rect x="-30.0811" y="94.4141" width="315.384" height="260.648" fill="#D9D9D9"/>
</mask>
<g mask="url(#mask4_471_28366)">
<circle cx="51.8853" cy="51.8853" r="51.8853" transform="matrix(0.924159 0.382008 -0.924159 0.382008 285.304 211.445)" stroke="url(#paint5_linear_471_28366)" stroke-width="5.21296" stroke-linecap="round" stroke-dasharray="0.04 4.98"/>
</g>
<mask id="mask5_471_28366" style="mask-type:alpha" maskUnits="userSpaceOnUse" x="285" y="94" width="316" height="262">
<rect width="315.384" height="260.648" transform="matrix(-1 0 0 1 600.688 94.4141)" fill="#D9D9D9"/>
</mask>
<g mask="url(#mask5_471_28366)">
<circle cx="36.3197" cy="36.3197" r="36.3197" transform="matrix(0.924159 0.382008 -0.924159 0.382008 285.304 214.965)" stroke="url(#paint6_linear_471_28366)" stroke-width="5.21296" stroke-linecap="round" stroke-dasharray="0.03 3.49"/>
</g>
<mask id="mask6_471_28366" style="mask-type:alpha" maskUnits="userSpaceOnUse" x="-31" y="94" width="317" height="262">
<rect x="-30.0811" y="94.4141" width="315.384" height="260.648" fill="#D9D9D9"/>
</mask>
<g mask="url(#mask6_471_28366)">
<circle cx="25.4238" cy="25.4238" r="25.4238" transform="matrix(0.924159 0.382009 -0.924159 0.382009 285.304 229.168)" stroke="url(#paint7_linear_471_28366)" stroke-width="5.21296" stroke-linecap="round" stroke-dasharray="0.02 2.44"/>
</g>
<mask id="mask7_471_28366" style="mask-type:alpha" maskUnits="userSpaceOnUse" x="285" y="94" width="316" height="262">
<rect width="315.384" height="260.648" transform="matrix(-1 0 0 1 600.688 94.4141)" fill="#D9D9D9"/>
</mask>
<g mask="url(#mask7_471_28366)">
<circle cx="12.7119" cy="12.7119" r="12.7119" transform="matrix(0.924159 0.382008 -0.924159 0.382008 285.304 232.037)" stroke="url(#paint8_linear_471_28366)" stroke-width="5.21296" stroke-linecap="round" stroke-dasharray="0.01 1.22"/>
</g>
<mask id="mask8_471_28366" style="mask-type:alpha" maskUnits="userSpaceOnUse" x="-31" y="136" width="317" height="261">
<rect width="315.384" height="260.648" transform="matrix(1 0 0 -1 -30.0811 396.766)" fill="url(#paint9_radial_471_28366)"/>
</mask>
<g mask="url(#mask8_471_28366)">
<ellipse cx="162.905" cy="162.905" rx="162.905" ry="162.905" transform="matrix(-0.924159 -0.382008 0.924159 -0.382008 285.304 390.25)" stroke="url(#paint10_linear_471_28366)" stroke-width="5.21296" stroke-linecap="round" stroke-dasharray="0.13 15.64"/>
</g>
<mask id="mask9_471_28366" style="mask-type:alpha" maskUnits="userSpaceOnUse" x="285" y="136" width="316" height="261">
<rect x="600.688" y="396.766" width="315.384" height="260.648" transform="rotate(180 600.688 396.766)" fill="#D9D9D9"/>
</mask>
<g mask="url(#mask9_471_28366)">
<ellipse cx="105.888" cy="105.888" rx="105.888" ry="105.888" transform="matrix(-0.924159 -0.382008 0.924159 -0.382008 285.304 315.834)" stroke="url(#paint11_linear_471_28366)" stroke-width="5.21296" stroke-linecap="round" stroke-dasharray="0.08 10.17"/>
</g>
<mask id="mask10_471_28366" style="mask-type:alpha" maskUnits="userSpaceOnUse" x="-31" y="136" width="317" height="261">
<rect width="315.384" height="260.648" transform="matrix(1 -8.74228e-08 -8.74228e-08 -1 -30.0811 396.766)" fill="#D9D9D9"/>
</mask>
<g mask="url(#mask10_471_28366)">
<ellipse cx="74.1218" cy="74.1218" rx="74.1218" ry="74.1218" transform="matrix(-0.924159 -0.382008 0.924159 -0.382008 285.304 308.797)" stroke="url(#paint12_linear_471_28366)" stroke-width="5.21296" stroke-linecap="round" stroke-dasharray="0.06 7.12"/>
</g>
<mask id="mask11_471_28366" style="mask-type:alpha" maskUnits="userSpaceOnUse" x="285" y="136" width="316" height="261">
<rect x="600.688" y="396.766" width="315.384" height="260.648" transform="rotate(180 600.688 396.766)" fill="#D9D9D9"/>
</mask>
<g mask="url(#mask11_471_28366)">
<ellipse cx="51.8853" cy="51.8853" rx="51.8853" ry="51.8853" transform="matrix(-0.924159 -0.382008 0.924159 -0.382009 285.304 279.734)" stroke="url(#paint13_linear_471_28366)" stroke-width="5.21296" stroke-linecap="round" stroke-dasharray="0.04 4.98"/>
</g>
<mask id="mask12_471_28366" style="mask-type:alpha" maskUnits="userSpaceOnUse" x="-31" y="136" width="317" height="261">
<rect width="315.384" height="260.648" transform="matrix(1 -8.74228e-08 -8.74228e-08 -1 -30.0811 396.766)" fill="#D9D9D9"/>
</mask>
<g mask="url(#mask12_471_28366)">
<ellipse cx="36.3197" cy="36.3197" rx="36.3197" ry="36.3197" transform="matrix(-0.924159 -0.382008 0.924159 -0.382008 285.304 276.217)" stroke="url(#paint14_linear_471_28366)" stroke-width="5.21296" stroke-linecap="round" stroke-dasharray="0.03 3.49"/>
</g>
<mask id="mask13_471_28366" style="mask-type:alpha" maskUnits="userSpaceOnUse" x="285" y="136" width="316" height="261">
<rect x="600.688" y="396.766" width="315.384" height="260.648" transform="rotate(180 600.688 396.766)" fill="#D9D9D9"/>
</mask>
<g mask="url(#mask13_471_28366)">
<ellipse cx="25.4238" cy="25.4238" rx="25.4238" ry="25.4238" transform="matrix(-0.924159 -0.382008 0.924159 -0.382009 285.304 262.01)" stroke="url(#paint15_linear_471_28366)" stroke-width="5.21296" stroke-linecap="round" stroke-dasharray="0.02 2.44"/>
</g>
<mask id="mask14_471_28366" style="mask-type:alpha" maskUnits="userSpaceOnUse" x="-31" y="136" width="317" height="261">
<rect width="315.384" height="260.648" transform="matrix(1 -8.74228e-08 -8.74228e-08 -1 -30.0811 396.766)" fill="#D9D9D9"/>
</mask>
<g mask="url(#mask14_471_28366)">
<ellipse cx="12.7119" cy="12.7119" rx="12.7119" ry="12.7119" transform="matrix(-0.924159 -0.382008 0.924159 -0.382008 285.304 259.143)" stroke="url(#paint16_linear_471_28366)" stroke-width="5.21296" stroke-linecap="round" stroke-dasharray="0.01 1.22"/>
</g>
<mask id="mask15_471_28366" style="mask-type:alpha" maskUnits="userSpaceOnUse" x="300" y="103" width="317" height="262">
<rect width="315.384" height="260.648" transform="matrix(-1 0 0 1 616.326 103.537)" fill="url(#paint17_radial_471_28366)"/>
</mask>
<g mask="url(#mask15_471_28366)">
<circle cx="162.905" cy="162.905" r="162.905" transform="matrix(0.924159 0.382008 -0.924159 0.382008 300.942 110.055)" stroke="url(#paint18_linear_471_28366)" stroke-width="2.60648" stroke-linecap="round" stroke-dasharray="0.01 10.43"/>
</g>
<mask id="mask16_471_28366" style="mask-type:alpha" maskUnits="userSpaceOnUse" x="-15" y="103" width="316" height="262">
<rect x="-14.4419" y="103.537" width="315.384" height="260.648" fill="#D9D9D9"/>
</mask>
<g mask="url(#mask16_471_28366)">
<circle cx="105.888" cy="105.888" r="105.888" transform="matrix(0.924159 0.382008 -0.924159 0.382008 300.943 184.469)" stroke="url(#paint19_linear_471_28366)" stroke-width="2.60648" stroke-linecap="round" stroke-dasharray="0.01 10.43"/>
</g>
<mask id="mask17_471_28366" style="mask-type:alpha" maskUnits="userSpaceOnUse" x="300" y="103" width="317" height="262">
<rect width="315.384" height="260.648" transform="matrix(-1 0 0 1 616.326 103.537)" fill="#D9D9D9"/>
</mask>
<g mask="url(#mask17_471_28366)">
<circle cx="74.1218" cy="74.1218" r="74.1218" transform="matrix(0.924159 0.382008 -0.924159 0.382008 300.942 191.506)" stroke="url(#paint20_linear_471_28366)" stroke-width="2.60648" stroke-linecap="round" stroke-dasharray="0.01 10.43"/>
</g>
<mask id="mask18_471_28366" style="mask-type:alpha" maskUnits="userSpaceOnUse" x="-15" y="103" width="316" height="262">
<rect x="-14.4419" y="103.537" width="315.384" height="260.648" fill="#D9D9D9"/>
</mask>
<g mask="url(#mask18_471_28366)">
<circle cx="51.8853" cy="51.8853" r="51.8853" transform="matrix(0.924159 0.382008 -0.924159 0.382008 300.943 220.568)" stroke="url(#paint21_linear_471_28366)" stroke-width="2.60648" stroke-linecap="round" stroke-dasharray="0.01 10.43"/>
</g>
<mask id="mask19_471_28366" style="mask-type:alpha" maskUnits="userSpaceOnUse" x="300" y="103" width="317" height="262">
<rect width="315.384" height="260.648" transform="matrix(-1 0 0 1 616.326 103.537)" fill="#D9D9D9"/>
</mask>
<g mask="url(#mask19_471_28366)">
<circle cx="36.3197" cy="36.3197" r="36.3197" transform="matrix(0.924159 0.382008 -0.924159 0.382008 300.942 224.086)" stroke="url(#paint22_linear_471_28366)" stroke-width="2.60648" stroke-linecap="round" stroke-dasharray="0.01 10.43"/>
</g>
<mask id="mask20_471_28366" style="mask-type:alpha" maskUnits="userSpaceOnUse" x="-15" y="103" width="316" height="262">
<rect x="-14.4419" y="103.537" width="315.384" height="260.648" fill="#D9D9D9"/>
</mask>
<g mask="url(#mask20_471_28366)">
<circle cx="25.4238" cy="25.4238" r="25.4238" transform="matrix(0.924159 0.382009 -0.924159 0.382009 300.943 238.293)" stroke="url(#paint23_linear_471_28366)" stroke-width="2.60648" stroke-linecap="round" stroke-dasharray="0.01 10.43"/>
</g>
<mask id="mask21_471_28366" style="mask-type:alpha" maskUnits="userSpaceOnUse" x="300" y="103" width="317" height="262">
<rect width="315.384" height="260.648" transform="matrix(-1 0 0 1 616.326 103.537)" fill="#D9D9D9"/>
</mask>
<g mask="url(#mask21_471_28366)">
<circle cx="12.7119" cy="12.7119" r="12.7119" transform="matrix(0.924159 0.382008 -0.924159 0.382008 300.942 241.16)" stroke="url(#paint24_linear_471_28366)" stroke-width="2.60648" stroke-linecap="round" stroke-dasharray="0.01 10.43"/>
</g>
<mask id="mask22_471_28366" style="mask-type:alpha" maskUnits="userSpaceOnUse" x="-15" y="145" width="316" height="261">
<rect width="315.384" height="260.648" transform="matrix(1 0 0 -1 -14.4419 405.889)" fill="url(#paint25_radial_471_28366)"/>
</mask>
<g mask="url(#mask22_471_28366)">
<ellipse cx="162.905" cy="162.905" rx="162.905" ry="162.905" transform="matrix(-0.924159 -0.382008 0.924159 -0.382008 300.942 399.373)" stroke="url(#paint26_linear_471_28366)" stroke-width="2.60648" stroke-linecap="round" stroke-dasharray="0.01 10.43"/>
</g>
<mask id="mask23_471_28366" style="mask-type:alpha" maskUnits="userSpaceOnUse" x="300" y="145" width="317" height="261">
<rect x="616.327" y="405.889" width="315.384" height="260.648" transform="rotate(180 616.327 405.889)" fill="#D9D9D9"/>
</mask>
<g mask="url(#mask23_471_28366)">
<ellipse cx="105.888" cy="105.888" rx="105.888" ry="105.888" transform="matrix(-0.924159 -0.382008 0.924159 -0.382008 300.943 324.957)" stroke="url(#paint27_linear_471_28366)" stroke-width="2.60648" stroke-linecap="round" stroke-dasharray="0.01 10.43"/>
</g>
<mask id="mask24_471_28366" style="mask-type:alpha" maskUnits="userSpaceOnUse" x="-15" y="145" width="316" height="261">
<rect width="315.384" height="260.648" transform="matrix(1 -8.74228e-08 -8.74228e-08 -1 -14.4419 405.889)" fill="#D9D9D9"/>
</mask>
<g mask="url(#mask24_471_28366)">
<ellipse cx="74.1218" cy="74.1218" rx="74.1218" ry="74.1218" transform="matrix(-0.924159 -0.382008 0.924159 -0.382008 300.942 317.92)" stroke="url(#paint28_linear_471_28366)" stroke-width="2.60648" stroke-linecap="round" stroke-dasharray="0.01 10.43"/>
</g>
<mask id="mask25_471_28366" style="mask-type:alpha" maskUnits="userSpaceOnUse" x="300" y="145" width="317" height="261">
<rect x="616.327" y="405.889" width="315.384" height="260.648" transform="rotate(180 616.327 405.889)" fill="#D9D9D9"/>
</mask>
<g mask="url(#mask25_471_28366)">
<ellipse cx="51.8853" cy="51.8853" rx="51.8853" ry="51.8853" transform="matrix(-0.924159 -0.382008 0.924159 -0.382009 300.943 288.857)" stroke="url(#paint29_linear_471_28366)" stroke-width="2.60648" stroke-linecap="round" stroke-dasharray="0.01 10.43"/>
</g>
<mask id="mask26_471_28366" style="mask-type:alpha" maskUnits="userSpaceOnUse" x="-15" y="145" width="316" height="261">
<rect width="315.384" height="260.648" transform="matrix(1 -8.74228e-08 -8.74228e-08 -1 -14.4419 405.889)" fill="#D9D9D9"/>
</mask>
<g mask="url(#mask26_471_28366)">
<ellipse cx="36.3197" cy="36.3197" rx="36.3197" ry="36.3197" transform="matrix(-0.924159 -0.382008 0.924159 -0.382008 300.942 285.34)" stroke="url(#paint30_linear_471_28366)" stroke-width="2.60648" stroke-linecap="round" stroke-dasharray="0.01 10.43"/>
</g>
<mask id="mask27_471_28366" style="mask-type:alpha" maskUnits="userSpaceOnUse" x="300" y="145" width="317" height="261">
<rect x="616.327" y="405.889" width="315.384" height="260.648" transform="rotate(180 616.327 405.889)" fill="#D9D9D9"/>
</mask>
<g mask="url(#mask27_471_28366)">
<ellipse cx="25.4238" cy="25.4238" rx="25.4238" ry="25.4238" transform="matrix(-0.924159 -0.382008 0.924159 -0.382009 300.943 271.133)" stroke="url(#paint31_linear_471_28366)" stroke-width="2.60648" stroke-linecap="round" stroke-dasharray="0.01 10.43"/>
</g>
<mask id="mask28_471_28366" style="mask-type:alpha" maskUnits="userSpaceOnUse" x="-15" y="145" width="316" height="261">
<rect width="315.384" height="260.648" transform="matrix(1 -8.74228e-08 -8.74228e-08 -1 -14.4419 405.889)" fill="#D9D9D9"/>
</mask>
<g mask="url(#mask28_471_28366)">
<ellipse cx="12.7119" cy="12.7119" rx="12.7119" ry="12.7119" transform="matrix(-0.924159 -0.382008 0.924159 -0.382008 300.942 268.266)" stroke="url(#paint32_linear_471_28366)" stroke-width="2.60648" stroke-linecap="round" stroke-dasharray="0.01 10.43"/>
</g>
<mask id="mask29_471_28366" style="mask-type:alpha" maskUnits="userSpaceOnUse" x="287" y="80" width="317" height="261">
<rect width="315.384" height="260.648" transform="matrix(-1 0 0 1 603.294 80.0781)" fill="url(#paint33_radial_471_28366)"/>
</mask>
<g mask="url(#mask29_471_28366)">
<circle cx="162.905" cy="162.905" r="162.905" transform="matrix(0.924159 0.382008 -0.924159 0.382008 287.91 86.5938)" stroke="url(#paint34_linear_471_28366)" stroke-width="1.30324" stroke-linecap="round" stroke-dasharray="0.13 14.34"/>
</g>
<mask id="mask30_471_28366" style="mask-type:alpha" maskUnits="userSpaceOnUse" x="-28" y="80" width="316" height="261">
<rect x="-27.4746" y="80.0781" width="315.384" height="260.648" fill="#D9D9D9"/>
</mask>
<g mask="url(#mask30_471_28366)">
<circle cx="105.888" cy="105.888" r="105.888" transform="matrix(0.924159 0.382008 -0.924159 0.382008 287.91 161.01)" stroke="url(#paint35_linear_471_28366)" stroke-width="1.30324" stroke-linecap="round" stroke-dasharray="0.13 14.34"/>
</g>
<mask id="mask31_471_28366" style="mask-type:alpha" maskUnits="userSpaceOnUse" x="287" y="80" width="317" height="261">
<rect width="315.384" height="260.648" transform="matrix(-1 0 0 1 603.294 80.0781)" fill="#D9D9D9"/>
</mask>
<g mask="url(#mask31_471_28366)">
<circle cx="74.1218" cy="74.1218" r="74.1218" transform="matrix(0.924159 0.382008 -0.924159 0.382008 287.91 168.047)" stroke="url(#paint36_linear_471_28366)" stroke-width="1.30324" stroke-linecap="round" stroke-dasharray="0.13 14.34"/>
</g>
<mask id="mask32_471_28366" style="mask-type:alpha" maskUnits="userSpaceOnUse" x="-28" y="80" width="316" height="261">
<rect x="-27.4746" y="80.0781" width="315.384" height="260.648" fill="#D9D9D9"/>
</mask>
<g mask="url(#mask32_471_28366)">
<circle cx="51.8853" cy="51.8853" r="51.8853" transform="matrix(0.924159 0.382008 -0.924159 0.382008 287.91 197.109)" stroke="url(#paint37_linear_471_28366)" stroke-width="1.30324" stroke-linecap="round" stroke-dasharray="0.13 14.34"/>
</g>
<mask id="mask33_471_28366" style="mask-type:alpha" maskUnits="userSpaceOnUse" x="287" y="80" width="317" height="261">
<rect width="315.384" height="260.648" transform="matrix(-1 0 0 1 603.294 80.0781)" fill="#D9D9D9"/>
</mask>
<g mask="url(#mask33_471_28366)">
<circle cx="36.3197" cy="36.3197" r="36.3197" transform="matrix(0.924159 0.382008 -0.924159 0.382008 287.91 200.629)" stroke="url(#paint38_linear_471_28366)" stroke-width="1.30324" stroke-linecap="round" stroke-dasharray="0.13 14.34"/>
</g>
<mask id="mask34_471_28366" style="mask-type:alpha" maskUnits="userSpaceOnUse" x="-28" y="80" width="316" height="261">
<rect x="-27.4746" y="80.0781" width="315.384" height="260.648" fill="#D9D9D9"/>
</mask>
<g mask="url(#mask34_471_28366)">
<circle cx="25.4238" cy="25.4238" r="25.4238" transform="matrix(0.924159 0.382009 -0.924159 0.382009 287.91 214.832)" stroke="url(#paint39_linear_471_28366)" stroke-width="1.30324" stroke-linecap="round" stroke-dasharray="0.13 14.34"/>
</g>
<mask id="mask35_471_28366" style="mask-type:alpha" maskUnits="userSpaceOnUse" x="287" y="80" width="317" height="261">
<rect width="315.384" height="260.648" transform="matrix(-1 0 0 1 603.294 80.0781)" fill="#D9D9D9"/>
</mask>
<g mask="url(#mask35_471_28366)">
<circle cx="12.7119" cy="12.7119" r="12.7119" transform="matrix(0.924159 0.382008 -0.924159 0.382008 287.91 217.699)" stroke="url(#paint40_linear_471_28366)" stroke-width="1.30324" stroke-linecap="round" stroke-dasharray="0.13 14.34"/>
</g>
<mask id="mask36_471_28366" style="mask-type:alpha" maskUnits="userSpaceOnUse" x="-28" y="121" width="316" height="262">
<rect width="315.384" height="260.648" transform="matrix(1 0 0 -1 -27.4746 382.43)" fill="url(#paint41_radial_471_28366)"/>
</mask>
<g mask="url(#mask36_471_28366)">
<ellipse cx="162.905" cy="162.905" rx="162.905" ry="162.905" transform="matrix(-0.924159 -0.382008 0.924159 -0.382008 287.91 375.914)" stroke="url(#paint42_linear_471_28366)" stroke-width="1.30324" stroke-linecap="round" stroke-dasharray="0.13 14.34"/>
</g>
<mask id="mask37_471_28366" style="mask-type:alpha" maskUnits="userSpaceOnUse" x="287" y="121" width="317" height="262">
<rect x="603.294" y="382.43" width="315.384" height="260.648" transform="rotate(180 603.294 382.43)" fill="#D9D9D9"/>
</mask>
<g mask="url(#mask37_471_28366)">
<ellipse cx="105.888" cy="105.888" rx="105.888" ry="105.888" transform="matrix(-0.924159 -0.382008 0.924159 -0.382008 287.91 301.498)" stroke="url(#paint43_linear_471_28366)" stroke-width="1.30324" stroke-linecap="round" stroke-dasharray="0.13 14.34"/>
</g>
<mask id="mask38_471_28366" style="mask-type:alpha" maskUnits="userSpaceOnUse" x="-28" y="121" width="316" height="262">
<rect width="315.384" height="260.648" transform="matrix(1 -8.74228e-08 -8.74228e-08 -1 -27.4746 382.43)" fill="#D9D9D9"/>
</mask>
<g mask="url(#mask38_471_28366)">
<ellipse cx="74.1218" cy="74.1218" rx="74.1218" ry="74.1218" transform="matrix(-0.924159 -0.382008 0.924159 -0.382008 287.91 294.461)" stroke="url(#paint44_linear_471_28366)" stroke-width="1.30324" stroke-linecap="round" stroke-dasharray="0.13 14.34"/>
</g>
<mask id="mask39_471_28366" style="mask-type:alpha" maskUnits="userSpaceOnUse" x="287" y="121" width="317" height="262">
<rect x="603.294" y="382.43" width="315.384" height="260.648" transform="rotate(180 603.294 382.43)" fill="#D9D9D9"/>
</mask>
<g mask="url(#mask39_471_28366)">
<ellipse cx="51.8853" cy="51.8853" rx="51.8853" ry="51.8853" transform="matrix(-0.924159 -0.382008 0.924159 -0.382009 287.91 265.398)" stroke="url(#paint45_linear_471_28366)" stroke-width="1.30324" stroke-linecap="round" stroke-dasharray="0.13 14.34"/>
</g>
<mask id="mask40_471_28366" style="mask-type:alpha" maskUnits="userSpaceOnUse" x="-28" y="121" width="316" height="262">
<rect width="315.384" height="260.648" transform="matrix(1 -8.74228e-08 -8.74228e-08 -1 -27.4746 382.43)" fill="#D9D9D9"/>
</mask>
<g mask="url(#mask40_471_28366)">
<ellipse cx="36.3197" cy="36.3197" rx="36.3197" ry="36.3197" transform="matrix(-0.924159 -0.382008 0.924159 -0.382008 287.91 261.881)" stroke="url(#paint46_linear_471_28366)" stroke-width="1.30324" stroke-linecap="round" stroke-dasharray="0.13 14.34"/>
</g>
<mask id="mask41_471_28366" style="mask-type:alpha" maskUnits="userSpaceOnUse" x="287" y="121" width="317" height="262">
<rect x="603.294" y="382.43" width="315.384" height="260.648" transform="rotate(180 603.294 382.43)" fill="#D9D9D9"/>
</mask>
<g mask="url(#mask41_471_28366)">
<ellipse cx="25.4238" cy="25.4238" rx="25.4238" ry="25.4238" transform="matrix(-0.924159 -0.382008 0.924159 -0.382009 287.91 247.674)" stroke="url(#paint47_linear_471_28366)" stroke-width="1.30324" stroke-linecap="round" stroke-dasharray="0.13 14.34"/>
</g>
<mask id="mask42_471_28366" style="mask-type:alpha" maskUnits="userSpaceOnUse" x="-28" y="121" width="316" height="262">
<rect width="315.384" height="260.648" transform="matrix(1 -8.74228e-08 -8.74228e-08 -1 -27.4746 382.43)" fill="#D9D9D9"/>
</mask>
<g mask="url(#mask42_471_28366)">
<ellipse cx="12.7119" cy="12.7119" rx="12.7119" ry="12.7119" transform="matrix(-0.924159 -0.382008 0.924159 -0.382008 287.91 244.809)" stroke="url(#paint48_linear_471_28366)" stroke-width="1.30324" stroke-linecap="round" stroke-dasharray="0.13 14.34"/>
</g>
<g filter="url(#filter2_f_471_28366)">
<circle cx="7.81944" cy="7.81944" r="7.81944" transform="matrix(-1 0 0 1 293.123 237.771)" fill="white"/>
</g>
</g>
</g>
<defs>
<filter id="filter0_f_471_28366" x="0.699997" y="0.699997" width="563.6" height="503.6" filterUnits="userSpaceOnUse" color-interpolation-filters="sRGB">
<feFlood flood-opacity="0" result="BackgroundImageFix"/>
<feBlend mode="normal" in="SourceGraphic" in2="BackgroundImageFix" result="shape"/>
<feGaussianBlur stdDeviation="70.65" result="effect1_foregroundBlur_471_28366"/>
</filter>
<filter id="filter1_dddd_471_28366" x="-66.5721" y="59.2263" width="703.75" height="367.514" filterUnits="userSpaceOnUse" color-interpolation-filters="sRGB">
<feFlood flood-opacity="0" result="BackgroundImageFix"/>
<feColorMatrix in="SourceAlpha" type="matrix" values="0 0 0 0 0 0 0 0 0 0 0 0 0 0 0 0 0 0 127 0" result="hardAlpha"/>
<feOffset/>
<feGaussianBlur stdDeviation="2.60648"/>
<feColorMatrix type="matrix" values="0 0 0 0 1 0 0 0 0 1 0 0 0 0 1 0 0 0 1 0"/>
<feBlend mode="normal" in2="BackgroundImageFix" result="effect1_dropShadow_471_28366"/>
<feColorMatrix in="SourceAlpha" type="matrix" values="0 0 0 0 0 0 0 0 0 0 0 0 0 0 0 0 0 0 127 0" result="hardAlpha"/>
<feOffset/>
<feGaussianBlur stdDeviation="5.21296"/>
<feColorMatrix type="matrix" values="0 0 0 0 0 0 0 0 0 0.28125 0 0 0 0 1 0 0 0 1 0"/>
<feBlend mode="normal" in2="effect1_dropShadow_471_28366" result="effect2_dropShadow_471_28366"/>
<feColorMatrix in="SourceAlpha" type="matrix" values="0 0 0 0 0 0 0 0 0 0 0 0 0 0 0 0 0 0 127 0" result="hardAlpha"/>
<feOffset/>
<feGaussianBlur stdDeviation="7.81944"/>
<feColorMatrix type="matrix" values="0 0 0 0 0 0 0 0 0 0.279188 0 0 0 0 1 0 0 0 1 0"/>
<feBlend mode="normal" in2="effect2_dropShadow_471_28366" result="effect3_dropShadow_471_28366"/>
<feColorMatrix in="SourceAlpha" type="matrix" values="0 0 0 0 0 0 0 0 0 0 0 0 0 0 0 0 0 0 127 0" result="hardAlpha"/>
<feOffset/>
<feGaussianBlur stdDeviation="10.4259"/>
<feColorMatrix type="matrix" values="0 0 0 0 0 0 0 0 0 0.279188 0 0 0 0 1 0 0 0 1 0"/>
<feBlend mode="normal" in2="effect3_dropShadow_471_28366" result="effect4_dropShadow_471_28366"/>
<feBlend mode="normal" in="SourceGraphic" in2="effect4_dropShadow_471_28366" result="shape"/>
</filter>
<filter id="filter2_f_471_28366" x="274.877" y="235.165" width="20.8516" height="20.8516" filterUnits="userSpaceOnUse" color-interpolation-filters="sRGB">
<feFlood flood-opacity="0" result="BackgroundImageFix"/>
<feBlend mode="normal" in="SourceGraphic" in2="BackgroundImageFix" result="shape"/>
<feGaussianBlur stdDeviation="1.30324" result="effect1_foregroundBlur_471_28366"/>
</filter>
<linearGradient id="paint0_linear_471_28366" x1="284" y1="104.84" x2="284" y2="369.398" gradientUnits="userSpaceOnUse">
<stop stop-color="#D9D9D9" stop-opacity="0"/>
<stop offset="0.545657" stop-color="#D9D9D9"/>
<stop offset="0.844911" stop-color="#D9D9D9" stop-opacity="0.534962"/>
<stop offset="1" stop-color="#D9D9D9" stop-opacity="0"/>
</linearGradient>
<radialGradient id="paint1_radial_471_28366" cx="0" cy="0" r="1" gradientUnits="userSpaceOnUse" gradientTransform="translate(295.836 46.265) rotate(175.03) scale(90.263 109.218)">
<stop stop-opacity="0"/>
<stop offset="1"/>
</radialGradient>
<linearGradient id="paint2_linear_471_28366" x1="162.905" y1="0" x2="160.966" y2="361.688" gradientUnits="userSpaceOnUse">
<stop stop-color="white"/>
<stop offset="1" stop-color="white" stop-opacity="0"/>
</linearGradient>
<linearGradient id="paint3_linear_471_28366" x1="105.888" y1="0" x2="104.628" y2="235.097" gradientUnits="userSpaceOnUse">
<stop stop-color="white"/>
<stop offset="1" stop-color="white" stop-opacity="0"/>
</linearGradient>
<linearGradient id="paint4_linear_471_28366" x1="74.1218" y1="0" x2="73.2394" y2="164.568" gradientUnits="userSpaceOnUse">
<stop stop-color="white"/>
<stop offset="1" stop-color="white" stop-opacity="0"/>
</linearGradient>
<linearGradient id="paint5_linear_471_28366" x1="51.8853" y1="0" x2="51.2676" y2="115.198" gradientUnits="userSpaceOnUse">
<stop stop-color="white"/>
<stop offset="1" stop-color="white" stop-opacity="0"/>
</linearGradient>
<linearGradient id="paint6_linear_471_28366" x1="36.3197" y1="0" x2="35.8873" y2="80.6384" gradientUnits="userSpaceOnUse">
<stop stop-color="white"/>
<stop offset="1" stop-color="white" stop-opacity="0"/>
</linearGradient>
<linearGradient id="paint7_linear_471_28366" x1="25.4238" y1="0" x2="25.1211" y2="56.4469" gradientUnits="userSpaceOnUse">
<stop stop-color="white"/>
<stop offset="1" stop-color="white" stop-opacity="0"/>
</linearGradient>
<linearGradient id="paint8_linear_471_28366" x1="12.7119" y1="0" x2="12.5606" y2="28.2235" gradientUnits="userSpaceOnUse">
<stop stop-color="white"/>
<stop offset="1" stop-color="white" stop-opacity="0"/>
</linearGradient>
<radialGradient id="paint9_radial_471_28366" cx="0" cy="0" r="1" gradientUnits="userSpaceOnUse" gradientTransform="translate(295.836 46.265) rotate(175.03) scale(90.263 109.218)">
<stop stop-opacity="0"/>
<stop offset="1"/>
</radialGradient>
<linearGradient id="paint10_linear_471_28366" x1="162.905" y1="0" x2="160.966" y2="361.688" gradientUnits="userSpaceOnUse">
<stop stop-color="white"/>
<stop offset="1" stop-color="white" stop-opacity="0"/>
</linearGradient>
<linearGradient id="paint11_linear_471_28366" x1="105.888" y1="0" x2="104.628" y2="235.097" gradientUnits="userSpaceOnUse">
<stop stop-color="white"/>
<stop offset="1" stop-color="white" stop-opacity="0"/>
</linearGradient>
<linearGradient id="paint12_linear_471_28366" x1="74.1218" y1="0" x2="73.2394" y2="164.568" gradientUnits="userSpaceOnUse">
<stop stop-color="white"/>
<stop offset="1" stop-color="white" stop-opacity="0"/>
</linearGradient>
<linearGradient id="paint13_linear_471_28366" x1="51.8853" y1="0" x2="51.2676" y2="115.198" gradientUnits="userSpaceOnUse">
<stop stop-color="white"/>
<stop offset="1" stop-color="white" stop-opacity="0"/>
</linearGradient>
<linearGradient id="paint14_linear_471_28366" x1="36.3197" y1="0" x2="35.8873" y2="80.6384" gradientUnits="userSpaceOnUse">
<stop stop-color="white"/>
<stop offset="1" stop-color="white" stop-opacity="0"/>
</linearGradient>
<linearGradient id="paint15_linear_471_28366" x1="25.4238" y1="0" x2="25.1211" y2="56.4469" gradientUnits="userSpaceOnUse">
<stop stop-color="white"/>
<stop offset="1" stop-color="white" stop-opacity="0"/>
</linearGradient>
<linearGradient id="paint16_linear_471_28366" x1="12.7119" y1="0" x2="12.5606" y2="28.2235" gradientUnits="userSpaceOnUse">
<stop stop-color="white"/>
<stop offset="1" stop-color="white" stop-opacity="0"/>
</linearGradient>
<radialGradient id="paint17_radial_471_28366" cx="0" cy="0" r="1" gradientUnits="userSpaceOnUse" gradientTransform="translate(295.836 46.265) rotate(175.03) scale(90.263 109.218)">
<stop stop-opacity="0"/>
<stop offset="1"/>
</radialGradient>
<linearGradient id="paint18_linear_471_28366" x1="162.905" y1="0" x2="160.966" y2="361.688" gradientUnits="userSpaceOnUse">
<stop stop-color="white"/>
<stop offset="1" stop-color="white" stop-opacity="0"/>
</linearGradient>
<linearGradient id="paint19_linear_471_28366" x1="105.888" y1="0" x2="104.628" y2="235.097" gradientUnits="userSpaceOnUse">
<stop stop-color="white"/>
<stop offset="1" stop-color="white" stop-opacity="0"/>
</linearGradient>
<linearGradient id="paint20_linear_471_28366" x1="74.1218" y1="0" x2="73.2394" y2="164.568" gradientUnits="userSpaceOnUse">
<stop stop-color="white"/>
<stop offset="1" stop-color="white" stop-opacity="0"/>
</linearGradient>
<linearGradient id="paint21_linear_471_28366" x1="51.8853" y1="0" x2="51.2676" y2="115.198" gradientUnits="userSpaceOnUse">
<stop stop-color="white"/>
<stop offset="1" stop-color="white" stop-opacity="0"/>
</linearGradient>
<linearGradient id="paint22_linear_471_28366" x1="36.3197" y1="0" x2="35.8873" y2="80.6384" gradientUnits="userSpaceOnUse">
<stop stop-color="white"/>
<stop offset="1" stop-color="white" stop-opacity="0"/>
</linearGradient>
<linearGradient id="paint23_linear_471_28366" x1="25.4238" y1="0" x2="25.1211" y2="56.4469" gradientUnits="userSpaceOnUse">
<stop stop-color="white"/>
<stop offset="1" stop-color="white" stop-opacity="0"/>
</linearGradient>
<linearGradient id="paint24_linear_471_28366" x1="12.7119" y1="0" x2="12.5606" y2="28.2235" gradientUnits="userSpaceOnUse">
<stop stop-color="white"/>
<stop offset="1" stop-color="white" stop-opacity="0"/>
</linearGradient>
<radialGradient id="paint25_radial_471_28366" cx="0" cy="0" r="1" gradientUnits="userSpaceOnUse" gradientTransform="translate(295.836 46.265) rotate(175.03) scale(90.263 109.218)">
<stop stop-opacity="0"/>
<stop offset="1"/>
</radialGradient>
<linearGradient id="paint26_linear_471_28366" x1="162.905" y1="0" x2="160.966" y2="361.688" gradientUnits="userSpaceOnUse">
<stop stop-color="white"/>
<stop offset="1" stop-color="white" stop-opacity="0"/>
</linearGradient>
<linearGradient id="paint27_linear_471_28366" x1="105.888" y1="0" x2="104.628" y2="235.097" gradientUnits="userSpaceOnUse">
<stop stop-color="white"/>
<stop offset="1" stop-color="white" stop-opacity="0"/>
</linearGradient>
<linearGradient id="paint28_linear_471_28366" x1="74.1218" y1="0" x2="73.2394" y2="164.568" gradientUnits="userSpaceOnUse">
<stop stop-color="white"/>
<stop offset="1" stop-color="white" stop-opacity="0"/>
</linearGradient>
<linearGradient id="paint29_linear_471_28366" x1="51.8853" y1="0" x2="51.2676" y2="115.198" gradientUnits="userSpaceOnUse">
<stop stop-color="white"/>
<stop offset="1" stop-color="white" stop-opacity="0"/>
</linearGradient>
<linearGradient id="paint30_linear_471_28366" x1="36.3197" y1="0" x2="35.8873" y2="80.6384" gradientUnits="userSpaceOnUse">
<stop stop-color="white"/>
<stop offset="1" stop-color="white" stop-opacity="0"/>
</linearGradient>
<linearGradient id="paint31_linear_471_28366" x1="25.4238" y1="0" x2="25.1211" y2="56.4469" gradientUnits="userSpaceOnUse">
<stop stop-color="white"/>
<stop offset="1" stop-color="white" stop-opacity="0"/>
</linearGradient>
<linearGradient id="paint32_linear_471_28366" x1="12.7119" y1="0" x2="12.5606" y2="28.2235" gradientUnits="userSpaceOnUse">
<stop stop-color="white"/>
<stop offset="1" stop-color="white" stop-opacity="0"/>
</linearGradient>
<radialGradient id="paint33_radial_471_28366" cx="0" cy="0" r="1" gradientUnits="userSpaceOnUse" gradientTransform="translate(295.836 46.265) rotate(175.03) scale(90.263 109.218)">
<stop stop-opacity="0"/>
<stop offset="1"/>
</radialGradient>
<linearGradient id="paint34_linear_471_28366" x1="162.905" y1="0" x2="160.966" y2="361.688" gradientUnits="userSpaceOnUse">
<stop stop-color="white"/>
<stop offset="1" stop-color="white" stop-opacity="0"/>
</linearGradient>
<linearGradient id="paint35_linear_471_28366" x1="105.888" y1="0" x2="104.628" y2="235.097" gradientUnits="userSpaceOnUse">
<stop stop-color="white"/>
<stop offset="1" stop-color="white" stop-opacity="0"/>
</linearGradient>
<linearGradient id="paint36_linear_471_28366" x1="74.1218" y1="0" x2="73.2394" y2="164.568" gradientUnits="userSpaceOnUse">
<stop stop-color="white"/>
<stop offset="1" stop-color="white" stop-opacity="0"/>
</linearGradient>
<linearGradient id="paint37_linear_471_28366" x1="51.8853" y1="0" x2="51.2676" y2="115.198" gradientUnits="userSpaceOnUse">
<stop stop-color="white"/>
<stop offset="1" stop-color="white" stop-opacity="0"/>
</linearGradient>
<linearGradient id="paint38_linear_471_28366" x1="36.3197" y1="0" x2="35.8873" y2="80.6384" gradientUnits="userSpaceOnUse">
<stop stop-color="white"/>
<stop offset="1" stop-color="white" stop-opacity="0"/>
</linearGradient>
<linearGradient id="paint39_linear_471_28366" x1="25.4238" y1="0" x2="25.1211" y2="56.4469" gradientUnits="userSpaceOnUse">
<stop stop-color="white"/>
<stop offset="1" stop-color="white" stop-opacity="0"/>
</linearGradient>
<linearGradient id="paint40_linear_471_28366" x1="12.7119" y1="0" x2="12.5606" y2="28.2235" gradientUnits="userSpaceOnUse">
<stop stop-color="white"/>
<stop offset="1" stop-color="white" stop-opacity="0"/>
</linearGradient>
<radialGradient id="paint41_radial_471_28366" cx="0" cy="0" r="1" gradientUnits="userSpaceOnUse" gradientTransform="translate(295.836 46.265) rotate(175.03) scale(90.263 109.218)">
<stop stop-opacity="0"/>
<stop offset="1"/>
</radialGradient>
<linearGradient id="paint42_linear_471_28366" x1="162.905" y1="0" x2="160.966" y2="361.688" gradientUnits="userSpaceOnUse">
<stop stop-color="white"/>
<stop offset="1" stop-color="white" stop-opacity="0"/>
</linearGradient>
<linearGradient id="paint43_linear_471_28366" x1="105.888" y1="0" x2="104.628" y2="235.097" gradientUnits="userSpaceOnUse">
<stop stop-color="white"/>
<stop offset="1" stop-color="white" stop-opacity="0"/>
</linearGradient>
<linearGradient id="paint44_linear_471_28366" x1="74.1218" y1="0" x2="73.2394" y2="164.568" gradientUnits="userSpaceOnUse">
<stop stop-color="white"/>
<stop offset="1" stop-color="white" stop-opacity="0"/>
</linearGradient>
<linearGradient id="paint45_linear_471_28366" x1="51.8853" y1="0" x2="51.2676" y2="115.198" gradientUnits="userSpaceOnUse">
<stop stop-color="white"/>
<stop offset="1" stop-color="white" stop-opacity="0"/>
</linearGradient>
<linearGradient id="paint46_linear_471_28366" x1="36.3197" y1="0" x2="35.8873" y2="80.6384" gradientUnits="userSpaceOnUse">
<stop stop-color="white"/>
<stop offset="1" stop-color="white" stop-opacity="0"/>
</linearGradient>
<linearGradient id="paint47_linear_471_28366" x1="25.4238" y1="0" x2="25.1211" y2="56.4469" gradientUnits="userSpaceOnUse">
<stop stop-color="white"/>
<stop offset="1" stop-color="white" stop-opacity="0"/>
</linearGradient>
<linearGradient id="paint48_linear_471_28366" x1="12.7119" y1="0" x2="12.5606" y2="28.2235" gradientUnits="userSpaceOnUse">
<stop stop-color="white"/>
<stop offset="1" stop-color="white" stop-opacity="0"/>
</linearGradient>
</defs>
</svg>
