<svg width="114" height="25" viewBox="0 0 114 25" fill="none" xmlns="http://www.w3.org/2000/svg">
<path d="M18.2891 9.09277H1.83648C1.539 9.09277 1.29785 9.48096 1.29785 9.95982V14.076C1.29785 14.5548 1.539 14.943 1.83648 14.943H18.2891C18.5865 14.943 18.8277 14.5548 18.8277 14.076V9.95982C18.8277 9.48096 18.5865 9.09277 18.2891 9.09277Z" fill="#79E7BA"/>
<path d="M18.1766 2.54138L1.90902 0.0805597C1.6149 0.0360678 1.3184 0.383816 1.24678 0.857276L0.631124 4.92715C0.559503 5.40061 0.739873 5.8205 1.03399 5.86499L17.3015 8.32581C17.5957 8.3703 17.8922 8.02255 17.9638 7.54909L18.5794 3.47921C18.6511 3.00575 18.4707 2.58587 18.1766 2.54138Z" fill="#79E7BA"/>
<path d="M1.03242 18.1781L17.3 15.7173C17.5941 15.6728 17.8906 16.0205 17.9622 16.494L18.5779 20.5639C18.6495 21.0373 18.4691 21.4572 18.175 21.5017L1.90744 23.9625C1.61333 24.007 1.31683 23.6593 1.24521 23.1858L0.629553 19.1159C0.557932 18.6425 0.738303 18.2226 1.03242 18.1781Z" fill="#79E7BA"/>
<path d="M39.3026 9.50643H36.1539C36.0631 8.98884 35.8972 8.53059 35.6561 8.12761C35.4152 7.72859 35.1149 7.38489 34.7554 7.10444C34.3959 6.82392 33.989 6.61452 33.5307 6.47231C33.0724 6.32614 32.5825 6.25504 32.0532 6.25504C31.1168 6.25504 30.2872 6.48809 29.5603 6.95821C28.8373 7.42834 28.2724 8.11184 27.8615 9.0126C27.4506 9.91331 27.2452 11.0116 27.2452 12.3074C27.2452 13.6269 27.4546 14.7371 27.8654 15.6378C28.2763 16.5386 28.8452 17.2181 29.5642 17.6724C30.2872 18.1307 31.1129 18.3598 32.0453 18.3598C32.5628 18.3598 33.0448 18.2926 33.4951 18.1544C33.9495 18.0161 34.3564 17.8146 34.7159 17.5421C35.0794 17.2734 35.3835 16.9415 35.6364 16.5504C35.8853 16.1593 36.0552 15.7089 36.1539 15.2033L39.3026 15.219C39.1841 16.0408 38.9273 16.8072 38.5401 17.5262C38.149 18.2452 37.6394 18.8774 37.0112 19.4265C36.3831 19.9717 35.6483 20.3983 34.8068 20.7065C33.9652 21.0107 33.029 21.1647 32.0018 21.1647C30.4887 21.1647 29.1336 20.8132 27.9445 20.1099C26.7553 19.4107 25.819 18.3954 25.1356 17.0719C24.4481 15.7484 24.1084 14.1603 24.1084 12.3074C24.1084 10.4506 24.4521 8.86248 25.1435 7.53899C25.8309 6.21946 26.7712 5.2081 27.9603 4.50486C29.1534 3.80168 30.4966 3.45403 32.0018 3.45403C32.9618 3.45403 33.8547 3.58832 34.6804 3.85695C35.506 4.12565 36.2409 4.5207 36.8848 5.03823C37.5288 5.55972 38.0621 6.19179 38.4808 6.94243C38.8996 7.69307 39.1722 8.54638 39.3026 9.50643ZM46.2304 21.1806C44.9662 21.1806 43.8719 20.904 42.9474 20.347C42.023 19.79 41.3039 19.0156 40.7982 18.0161C40.2886 17.0166 40.0358 15.8472 40.0358 14.5119C40.0358 13.1766 40.2886 12.0072 40.7982 11.0037C41.3039 10.0003 42.023 9.21799 42.9474 8.66494C43.8719 8.10787 44.9662 7.83132 46.2304 7.83132C47.4907 7.83132 48.585 8.10787 49.5134 8.66494C50.4379 9.21799 51.1569 10.0003 51.6625 11.0037C52.1722 12.0072 52.4251 13.1766 52.4251 14.5119C52.4251 15.8472 52.1722 17.0166 51.6625 18.0161C51.1569 19.0156 50.4379 19.79 49.5134 20.347C48.585 20.904 47.4907 21.1806 46.2304 21.1806ZM46.2462 18.7391C46.9297 18.7391 47.5025 18.5494 47.9647 18.1702C48.423 17.7909 48.7667 17.2813 48.9959 16.6413C49.2211 16.0053 49.3356 15.2901 49.3356 14.504C49.3356 13.7139 49.2211 12.9988 48.9959 12.3548C48.7667 11.7109 48.423 11.2012 47.9647 10.818C47.5025 10.4348 46.9297 10.2452 46.2462 10.2452C45.5469 10.2452 44.9623 10.4348 44.5 10.818C44.0378 11.2012 43.6901 11.7109 43.465 12.3548C43.2358 12.9988 43.1252 13.7139 43.1252 14.504C43.1252 15.2901 43.2358 16.0053 43.465 16.6413C43.6901 17.2813 44.0378 17.7909 44.5 18.1702C44.9623 18.5494 45.5469 18.7391 46.2462 18.7391ZM53.5533 20.9277V7.99723H56.6032V20.9277H53.5533ZM55.0861 6.16413C54.6042 6.16413 54.1893 6.00218 53.8417 5.67823C53.494 5.35823 53.3202 4.96713 53.3202 4.51278C53.3202 4.05454 53.494 3.66338 53.8417 3.33942C54.1893 3.01546 54.6042 2.85352 55.0861 2.85352C55.576 2.85352 55.9909 3.01546 56.3346 3.33942C56.6822 3.66338 56.8561 4.05454 56.8561 4.51278C56.8561 4.96713 56.6822 5.35823 56.3346 5.67823C55.9909 6.00218 55.576 6.16413 55.0861 6.16413ZM61.3345 13.3504V20.9277H58.2846V7.99723H61.2001V10.1938H61.3502C61.6465 9.47085 62.1246 8.89799 62.7765 8.47131C63.4322 8.04469 64.2382 7.83132 65.2061 7.83132C66.099 7.83132 66.8772 8.02099 67.541 8.40417C68.2047 8.78345 68.7222 9.3365 69.0896 10.0595C69.457 10.7864 69.6387 11.6635 69.6348 12.6946V20.9277H66.5849V13.1647C66.5849 12.3035 66.3636 11.6279 65.9172 11.138C65.4708 10.6482 64.8545 10.4071 64.0683 10.4071C63.535 10.4071 63.0609 10.5217 62.65 10.7548C62.2391 10.9879 61.9152 11.3237 61.6821 11.7623C61.449 12.1968 61.3345 12.7302 61.3345 13.3504ZM81.5088 11.4146L78.7315 11.7187C78.6525 11.4383 78.5181 11.1736 78.3246 10.9286C78.131 10.6797 77.8702 10.4822 77.5424 10.3281C77.2184 10.178 76.8194 10.103 76.3493 10.103C75.7132 10.103 75.1838 10.2412 74.7532 10.5138C74.3226 10.7904 74.1132 11.146 74.1171 11.5845C74.1132 11.9598 74.2514 12.2639 74.5359 12.501C74.8164 12.738 75.2865 12.9316 75.9463 13.0817L78.1507 13.5558C79.3755 13.8166 80.2841 14.2353 80.8806 14.8082C81.4772 15.381 81.7814 16.1277 81.7854 17.0561C81.7814 17.8699 81.5443 18.585 81.0742 19.2052C80.608 19.8255 79.9562 20.3114 79.1266 20.6591C78.2969 21.0068 77.3409 21.1806 76.2663 21.1806C74.6821 21.1806 73.4099 20.8487 72.442 20.1811C71.4781 19.5174 70.9013 18.5889 70.7156 17.3998L73.6905 17.1154C73.8248 17.7 74.1092 18.1385 74.5477 18.4349C74.9863 18.7351 75.5552 18.8813 76.2545 18.8813C76.9813 18.8813 77.5621 18.7351 78.0046 18.4349C78.4431 18.1385 78.6643 17.7711 78.6643 17.3326C78.6643 16.9613 78.5221 16.6571 78.2377 16.4161C77.9532 16.1751 77.5147 15.9894 76.9221 15.859L74.7137 15.3968C73.4771 15.14 72.5566 14.7015 71.964 14.0892C71.3675 13.4729 71.0752 12.6946 71.0791 11.7543C71.0752 10.9563 71.2924 10.2649 71.7309 9.6763C72.1734 9.09157 72.7858 8.63728 73.5759 8.31333C74.3621 7.98937 75.2747 7.83132 76.3058 7.83132C77.8228 7.83132 79.0159 8.15131 79.889 8.79923C80.7621 9.44318 81.2994 10.3163 81.5088 11.4146ZM86.5758 21.1884C85.7581 21.1884 85.0193 21.0423 84.3674 20.746C83.7116 20.4536 83.198 20.0151 82.8188 19.4383C82.4395 18.8615 82.2499 18.1465 82.2499 17.301C82.2499 16.5702 82.3842 15.9657 82.6528 15.4916C82.9215 15.0136 83.2889 14.6304 83.7551 14.3459C84.2213 14.0576 84.7467 13.8403 85.3353 13.6941C85.92 13.544 86.5284 13.4373 87.1566 13.3702C87.9151 13.2911 88.5275 13.22 89.0015 13.1529C89.4717 13.0896 89.8154 12.9869 90.0326 12.8526C90.246 12.7143 90.3566 12.497 90.3566 12.2087V12.1573C90.3566 11.5212 90.167 11.0314 89.7917 10.6837C89.4163 10.336 88.8751 10.1622 88.168 10.1622C87.4213 10.1622 86.8287 10.3242 86.3941 10.6482C85.9596 10.976 85.6672 11.3593 85.5171 11.8017L82.6686 11.3987C82.8938 10.6126 83.2652 9.95675 83.7827 9.42344C84.2963 8.89403 84.9284 8.49501 85.6751 8.23034C86.4218 7.96171 87.2475 7.83132 88.1521 7.83132C88.7724 7.83132 89.3926 7.90242 90.0089 8.04859C90.6292 8.19482 91.1902 8.43579 91.7038 8.76761C92.2134 9.10344 92.6243 9.55383 92.9364 10.1267C93.2485 10.6995 93.4025 11.4146 93.4025 12.2758V20.9277H90.4752V19.15H90.3724C90.1867 19.5094 89.926 19.8453 89.5941 20.1574C89.2583 20.4694 88.8435 20.7183 88.3378 20.908C87.8361 21.0936 87.2514 21.1884 86.5758 21.1884ZM87.366 18.9485C87.9783 18.9485 88.5077 18.826 88.9581 18.585C89.4085 18.34 89.7522 18.0161 89.9971 17.6132C90.2421 17.2062 90.3645 16.7677 90.3645 16.2897V14.7647C90.2697 14.8437 90.1077 14.9188 89.8786 14.986C89.6534 15.0531 89.4006 15.1124 89.12 15.1598C88.8396 15.2112 88.5591 15.2586 88.2865 15.2981C88.0099 15.3375 87.7729 15.3692 87.5714 15.3968C87.1131 15.4601 86.7062 15.5588 86.3507 15.701C85.9911 15.8393 85.7067 16.0368 85.4973 16.2857C85.2919 16.5346 85.1892 16.8546 85.1892 17.2497C85.1892 17.8107 85.3907 18.2334 85.8015 18.5218C86.2124 18.8063 86.7338 18.9485 87.366 18.9485ZM101.575 7.99723V10.3558H93.9303V7.99723H101.575ZM95.8424 20.9277V6.77652C95.8424 5.90737 96.0242 5.1844 96.3837 4.60759C96.7471 4.02688 97.2331 3.59623 97.8454 3.30786C98.4578 3.02338 99.1373 2.88118 99.884 2.88118C100.409 2.88118 100.88 2.92066 101.29 3.00761C101.697 3.09053 102.002 3.16559 102.199 3.2328L101.591 5.59134C101.464 5.5518 101.298 5.51232 101.105 5.46881C100.907 5.42537 100.69 5.40563 100.449 5.40563C99.88 5.40563 99.481 5.53998 99.2479 5.81257C99.0148 6.08517 98.8963 6.47627 98.8963 6.97801V20.9277H95.8424ZM107.752 21.1806C106.456 21.1806 105.338 20.908 104.398 20.3668C103.458 19.8255 102.735 19.0591 102.229 18.0596C101.727 17.064 101.474 15.8906 101.474 14.5396C101.474 13.2081 101.727 12.0387 102.237 11.0313C102.743 10.024 103.454 9.24169 104.37 8.67676C105.283 8.11183 106.357 7.83132 107.594 7.83132C108.388 7.83132 109.143 7.95775 109.854 8.21456C110.561 8.46742 111.193 8.86248 111.738 9.39578C112.287 9.92915 112.718 10.6047 113.03 11.4304C113.346 12.2521 113.5 13.2279 113.5 14.3618V15.2981H102.905V13.2437H110.581C110.577 12.659 110.45 12.1376 110.201 11.6793C109.956 11.2249 109.613 10.8615 109.17 10.6007C108.732 10.336 108.218 10.2017 107.634 10.2017C107.013 10.2017 106.464 10.3519 105.994 10.6521C105.524 10.9523 105.156 11.3474 104.896 11.8334C104.635 12.3193 104.501 12.8487 104.497 13.4294V15.219C104.497 15.9736 104.631 16.6176 104.908 17.1509C105.184 17.6882 105.567 18.0991 106.061 18.3796C106.555 18.664 107.132 18.8063 107.795 18.8063C108.238 18.8063 108.641 18.743 109 18.6166C109.356 18.4902 109.668 18.3045 109.933 18.0556C110.197 17.8107 110.395 17.5065 110.529 17.1391L113.378 17.4591C113.196 18.2097 112.856 18.8655 112.354 19.4265C111.849 19.9835 111.209 20.4142 110.431 20.7223C109.648 21.0265 108.756 21.1806 107.752 21.1806Z" fill="white"/>
</svg>
