<svg width="40" height="40" viewBox="0 0 40 40" fill="none" xmlns="http://www.w3.org/2000/svg">
<path d="M32.4999 12.5L30.0166 14.9833L25.0166 9.98334L27.4999 7.50001C28.1999 6.80001 29.0999 6.46667 29.9999 6.46667C30.8999 6.46667 31.7999 6.80001 32.4999 7.50001C33.8833 8.88334 33.8833 11.1167 32.4999 12.5Z" fill="#79E7BA"/>
<path d="M28.8501 16.1666L10.8334 34.1666C9.45007 35.55 7.21673 35.55 5.8334 34.1666C4.45007 32.7833 4.45007 30.55 5.8334 29.1666L23.8501 11.1666L28.8501 16.1666Z" fill="#79E7BA"/>
<path d="M16.5833 5.83336L17.2666 3.51669C17.3333 3.30003 17.2666 3.06669 17.1166 2.90003C16.9666 2.73336 16.6999 2.66669 16.4833 2.73336L14.1666 3.41669L11.8499 2.73336C11.6333 2.66669 11.3999 2.73336 11.2333 2.88336C11.0666 3.05003 11.0166 3.28336 11.0833 3.50003L11.7499 5.83336L11.0666 8.15003C10.9999 8.36669 11.0666 8.60003 11.2166 8.7667C11.3833 8.93336 11.6166 8.98336 11.8333 8.9167L14.1666 8.25003L16.4833 8.93336C16.5499 8.95003 16.5999 8.9667 16.6666 8.9667C16.8333 8.9667 16.9833 8.90003 17.1166 8.78336C17.2833 8.61669 17.3333 8.38336 17.2666 8.1667L16.5833 5.83336Z" fill="#79E7BA"/>
<path d="M9.91678 15.8334L10.6001 13.5167C10.6668 13.3 10.6001 13.0667 10.4501 12.9C10.2834 12.7334 10.0501 12.6834 9.83344 12.75L7.50011 13.4167L5.18344 12.7334C4.96678 12.6667 4.73344 12.7334 4.56678 12.8834C4.40011 13.05 4.35011 13.2834 4.41678 13.5L5.08344 15.8334L4.40011 18.15C4.33344 18.3667 4.40011 18.6 4.55011 18.7667C4.71678 18.9334 4.95011 18.9834 5.16678 18.9167L7.48344 18.2334L9.80011 18.9167C9.85011 18.9334 9.91678 18.9334 9.98344 18.9334C10.1501 18.9334 10.3001 18.8667 10.4334 18.75C10.6001 18.5834 10.6501 18.35 10.5834 18.1334L9.91678 15.8334Z" fill="#79E7BA"/>
<path d="M34.9167 24.1667L35.6 21.85C35.6667 21.6334 35.6 21.4 35.45 21.2334C35.2834 21.0667 35.05 21.0167 34.8334 21.0834L32.5167 21.7667L30.2 21.0834C29.9834 21.0167 29.75 21.0834 29.5834 21.2334C29.4167 21.4 29.3667 21.6334 29.4334 21.85L30.1167 24.1667L29.4334 26.4834C29.3667 26.7001 29.4334 26.9334 29.5834 27.1C29.75 27.2667 29.9834 27.3167 30.2 27.2501L32.5167 26.5667L34.8334 27.2501C34.8834 27.2667 34.95 27.2667 35.0167 27.2667C35.1834 27.2667 35.3334 27.2 35.4667 27.0834C35.6334 26.9167 35.6834 26.6834 35.6167 26.4667L34.9167 24.1667Z" fill="#79E7BA"/>
</svg>
