<svg width="228" height="281" viewBox="0 0 228 281" fill="none" xmlns="http://www.w3.org/2000/svg">
<mask id="mask0_471_27888" style="mask-type:alpha" maskUnits="userSpaceOnUse" x="106" y="260" width="16" height="8">
<rect x="106.03" y="260.258" width="15.1425" height="7.17279" fill="url(#paint0_linear_471_27888)"/>
</mask>
<g mask="url(#mask0_471_27888)">
<rect width="4.54096" height="4.54096" transform="matrix(0.92388 -0.382683 0.925375 0.379052 109.281 263.838)" stroke="#FFCE51" stroke-width="2.39093" stroke-linecap="round" stroke-dasharray="0.08 9.56"/>
</g>
<mask id="mask1_471_27888" style="mask-type:alpha" maskUnits="userSpaceOnUse" x="96" y="238" width="35" height="16">
<rect x="96.4663" y="238.738" width="34.27" height="15.1425" fill="url(#paint1_linear_471_27888)"/>
</mask>
<g mask="url(#mask1_471_27888)">
<rect width="15.6539" height="15.6539" transform="matrix(0.92388 -0.382683 0.925375 0.379052 99.0034 246.578)" stroke="#FFCE51" stroke-width="2.39093" stroke-linecap="round" stroke-dasharray="0.08 9.56"/>
</g>
<mask id="mask2_471_27888" style="mask-type:alpha" maskUnits="userSpaceOnUse" x="82" y="216" width="64" height="27">
<rect x="82.1206" y="216.424" width="62.9611" height="26.3002" fill="url(#paint2_linear_471_27888)"/>
</mask>
<g mask="url(#mask2_471_27888)">
<rect width="30.9277" height="30.9277" transform="matrix(0.92388 -0.382683 0.925375 0.379052 84.8838 229.326)" stroke="#FFCE51" stroke-width="2.39093" stroke-linecap="round" stroke-dasharray="0.08 9.56"/>
</g>
<mask id="mask3_471_27888" style="mask-type:alpha" maskUnits="userSpaceOnUse" x="66" y="192" width="95" height="40">
<rect x="66.9766" y="192.516" width="93.2462" height="39.0518" fill="url(#paint3_linear_471_27888)"/>
</mask>
<g mask="url(#mask3_471_27888)">
<rect width="46.1827" height="46.1827" transform="matrix(0.92388 -0.382683 0.925375 0.379052 70.7778 212.076)" stroke="#FFCE51" stroke-width="2.39093" stroke-linecap="round" stroke-dasharray="0.08 9.56"/>
</g>
<mask id="mask4_471_27888" style="mask-type:alpha" maskUnits="userSpaceOnUse" x="52" y="169" width="123" height="51">
<rect x="52.6313" y="169.402" width="121.937" height="50.2095" fill="url(#paint4_linear_471_27888)"/>
</mask>
<g mask="url(#mask4_471_27888)">
<rect width="61.7116" height="61.7116" transform="matrix(0.92388 -0.382683 0.925375 0.379052 56.4165 194.104)" stroke="#FFCE51" stroke-width="2.39093" stroke-linecap="round" stroke-dasharray="0.08 9.56"/>
</g>
<mask id="mask5_471_27888" style="mask-type:alpha" maskUnits="userSpaceOnUse" x="38" y="146" width="151" height="62">
<rect x="38.2876" y="146.291" width="150.629" height="61.3672" fill="url(#paint5_linear_471_27888)"/>
</mask>
<g mask="url(#mask5_471_27888)">
<rect width="76.9665" height="76.9665" transform="matrix(0.92388 -0.382683 0.925375 0.379052 42.3154 177.201)" stroke="#FFCE51" stroke-width="2.39093" stroke-linecap="round" stroke-dasharray="0.08 9.56"/>
</g>
<mask id="mask6_471_27888" style="mask-type:alpha" maskUnits="userSpaceOnUse" x="23" y="123" width="182" height="74">
<rect x="23.145" y="123.178" width="180.914" height="73.3218" fill="url(#paint6_linear_471_27888)"/>
</mask>
<g mask="url(#mask6_471_27888)">
<rect width="91.7124" height="91.7124" transform="matrix(0.92388 -0.382683 0.925375 0.379052 28.6792 159.6)" stroke="#FFCE51" stroke-width="2.39093" stroke-linecap="round" stroke-dasharray="0.08 9.56"/>
</g>
<mask id="mask7_471_27888" style="mask-type:alpha" maskUnits="userSpaceOnUse" x="11" y="95" width="206" height="88">
<rect x="11.189" y="95.2832" width="204.823" height="87.6674" fill="url(#paint7_linear_471_27888)"/>
</mask>
<g mask="url(#mask7_471_27888)">
<rect width="107.046" height="107.046" transform="matrix(0.92388 -0.382683 0.925375 0.379052 14.3784 139.465)" stroke="#FFCE51" stroke-width="2.39093" stroke-linecap="round" stroke-dasharray="0.08 9.56"/>
</g>
<mask id="mask8_471_27888" style="mask-type:alpha" maskUnits="userSpaceOnUse" x="23" y="85" width="182" height="75">
<rect x="23.145" y="85.7207" width="180.914" height="73.3218" fill="url(#paint8_linear_471_27888)"/>
</mask>
<g mask="url(#mask8_471_27888)">
<rect width="91.7124" height="91.7124" transform="matrix(0.92388 -0.382683 0.925375 0.379052 28.8574 122.158)" stroke="#FFCE51" stroke-width="2.39093" stroke-linecap="round" stroke-dasharray="0.08 9.56"/>
</g>
<mask id="mask9_471_27888" style="mask-type:alpha" maskUnits="userSpaceOnUse" x="38" y="73" width="151" height="63">
<rect x="38.2876" y="73.7656" width="150.629" height="61.3672" fill="url(#paint9_linear_471_27888)"/>
</mask>
<g mask="url(#mask9_471_27888)">
<rect width="76.9665" height="76.9665" transform="matrix(0.92388 -0.382683 0.925375 0.379052 42.4907 104.502)" stroke="#FFCE51" stroke-width="2.39093" stroke-linecap="round" stroke-dasharray="0.08 9.56"/>
</g>
<mask id="mask10_471_27888" style="mask-type:alpha" maskUnits="userSpaceOnUse" x="52" y="62" width="123" height="51">
<rect x="52.6313" y="62.6074" width="121.937" height="50.2095" fill="url(#paint10_linear_471_27888)"/>
</mask>
<g mask="url(#mask10_471_27888)">
<rect width="61.7116" height="61.7116" transform="matrix(0.92388 -0.382683 0.925375 0.379052 56.5957 87.543)" stroke="#FFCE51" stroke-width="2.39093" stroke-linecap="round" stroke-dasharray="0.08 9.56"/>
</g>
<mask id="mask11_471_27888" style="mask-type:alpha" maskUnits="userSpaceOnUse" x="66" y="49" width="95" height="40">
<rect x="66.9766" y="49.8555" width="93.2462" height="39.0518" fill="url(#paint11_linear_471_27888)"/>
</mask>
<g mask="url(#mask11_471_27888)">
<rect width="46.1827" height="46.1827" transform="matrix(0.92388 -0.382683 0.925375 0.379052 70.9521 69.5156)" stroke="#FFCE51" stroke-width="2.39093" stroke-linecap="round" stroke-dasharray="0.08 9.56"/>
</g>
<mask id="mask12_471_27888" style="mask-type:alpha" maskUnits="userSpaceOnUse" x="82" y="38" width="64" height="27">
<rect x="82.1206" y="38.6992" width="62.9611" height="26.3002" fill="url(#paint12_linear_471_27888)"/>
</mask>
<g mask="url(#mask12_471_27888)">
<rect width="30.9277" height="30.9277" transform="matrix(0.92388 -0.382683 0.925375 0.379052 85.0581 52.209)" stroke="#FFCE51" stroke-width="2.39093" stroke-linecap="round" stroke-dasharray="0.08 9.56"/>
</g>
<mask id="mask13_471_27888" style="mask-type:alpha" maskUnits="userSpaceOnUse" x="96" y="27" width="35" height="16">
<rect x="96.4663" y="27.541" width="34.27" height="15.1425" fill="url(#paint13_linear_471_27888)"/>
</mask>
<g mask="url(#mask13_471_27888)">
<rect width="15.6539" height="15.6539" transform="matrix(0.92388 -0.382683 0.925375 0.379052 99.1816 34.9004)" stroke="#FFCE51" stroke-width="2.39093" stroke-linecap="round" stroke-dasharray="0.08 9.56"/>
</g>
<mask id="mask14_471_27888" style="mask-type:alpha" maskUnits="userSpaceOnUse" x="106" y="13" width="16" height="9">
<rect x="106.03" y="13.9922" width="15.1425" height="7.17279" fill="url(#paint14_linear_471_27888)"/>
</mask>
<g mask="url(#mask14_471_27888)">
<rect width="4.54096" height="4.54096" transform="matrix(0.92388 -0.382683 0.925375 0.379052 109.455 17.5996)" stroke="#FFCE51" stroke-width="2.39093" stroke-linecap="round" stroke-dasharray="0.08 9.56"/>
</g>
<defs>
<linearGradient id="paint0_linear_471_27888" x1="113.601" y1="260.258" x2="113.601" y2="267.431" gradientUnits="userSpaceOnUse">
<stop stop-color="#D9D9D9" stop-opacity="0"/>
<stop offset="1" stop-color="#D9D9D9"/>
</linearGradient>
<linearGradient id="paint1_linear_471_27888" x1="113.601" y1="238.738" x2="113.601" y2="253.881" gradientUnits="userSpaceOnUse">
<stop stop-color="#D9D9D9" stop-opacity="0"/>
<stop offset="1" stop-color="#D9D9D9"/>
</linearGradient>
<linearGradient id="paint2_linear_471_27888" x1="113.601" y1="216.424" x2="113.601" y2="242.724" gradientUnits="userSpaceOnUse">
<stop stop-color="#D9D9D9" stop-opacity="0"/>
<stop offset="1" stop-color="#D9D9D9"/>
</linearGradient>
<linearGradient id="paint3_linear_471_27888" x1="113.6" y1="192.516" x2="113.6" y2="231.567" gradientUnits="userSpaceOnUse">
<stop stop-color="#D9D9D9" stop-opacity="0"/>
<stop offset="1" stop-color="#D9D9D9"/>
</linearGradient>
<linearGradient id="paint4_linear_471_27888" x1="113.6" y1="169.402" x2="113.6" y2="219.612" gradientUnits="userSpaceOnUse">
<stop stop-color="#D9D9D9" stop-opacity="0"/>
<stop offset="1" stop-color="#D9D9D9"/>
</linearGradient>
<linearGradient id="paint5_linear_471_27888" x1="113.602" y1="146.291" x2="113.602" y2="207.658" gradientUnits="userSpaceOnUse">
<stop stop-color="#D9D9D9" stop-opacity="0"/>
<stop offset="1" stop-color="#D9D9D9"/>
</linearGradient>
<linearGradient id="paint6_linear_471_27888" x1="113.602" y1="123.178" x2="113.602" y2="196.5" gradientUnits="userSpaceOnUse">
<stop stop-color="#D9D9D9" stop-opacity="0"/>
<stop offset="1" stop-color="#D9D9D9"/>
</linearGradient>
<linearGradient id="paint7_linear_471_27888" x1="113.6" y1="95.2832" x2="113.6" y2="182.951" gradientUnits="userSpaceOnUse">
<stop stop-color="#D9D9D9" stop-opacity="0"/>
<stop offset="1" stop-color="#D9D9D9"/>
</linearGradient>
<linearGradient id="paint8_linear_471_27888" x1="113.602" y1="85.7207" x2="113.602" y2="159.043" gradientUnits="userSpaceOnUse">
<stop stop-color="#D9D9D9" stop-opacity="0"/>
<stop offset="1" stop-color="#D9D9D9"/>
</linearGradient>
<linearGradient id="paint9_linear_471_27888" x1="113.602" y1="73.7656" x2="113.602" y2="135.133" gradientUnits="userSpaceOnUse">
<stop stop-color="#D9D9D9" stop-opacity="0"/>
<stop offset="1" stop-color="#D9D9D9"/>
</linearGradient>
<linearGradient id="paint10_linear_471_27888" x1="113.6" y1="62.6074" x2="113.6" y2="112.817" gradientUnits="userSpaceOnUse">
<stop stop-color="#D9D9D9" stop-opacity="0"/>
<stop offset="1" stop-color="#D9D9D9"/>
</linearGradient>
<linearGradient id="paint11_linear_471_27888" x1="113.6" y1="49.8555" x2="113.6" y2="88.9073" gradientUnits="userSpaceOnUse">
<stop stop-color="#D9D9D9" stop-opacity="0"/>
<stop offset="1" stop-color="#D9D9D9"/>
</linearGradient>
<linearGradient id="paint12_linear_471_27888" x1="113.601" y1="38.6992" x2="113.601" y2="64.9994" gradientUnits="userSpaceOnUse">
<stop stop-color="#D9D9D9" stop-opacity="0"/>
<stop offset="1" stop-color="#D9D9D9"/>
</linearGradient>
<linearGradient id="paint13_linear_471_27888" x1="113.601" y1="27.541" x2="113.601" y2="42.6836" gradientUnits="userSpaceOnUse">
<stop stop-color="#D9D9D9" stop-opacity="0"/>
<stop offset="1" stop-color="#D9D9D9"/>
</linearGradient>
<linearGradient id="paint14_linear_471_27888" x1="113.601" y1="13.9922" x2="113.601" y2="21.165" gradientUnits="userSpaceOnUse">
<stop stop-color="#D9D9D9" stop-opacity="0"/>
<stop offset="1" stop-color="#D9D9D9"/>
</linearGradient>
</defs>
</svg>
