<svg width="100" height="100" viewBox="0 0 100 100" fill="none" xmlns="http://www.w3.org/2000/svg">
<path d="M81.1669 11.7503L82.3335 14.1253C82.9169 15.292 84.3752 16.3753 85.6669 16.6253L87.2502 16.8753C92.0002 17.667 93.1252 21.167 89.7085 24.6253L88.2502 26.0837C87.2919 27.0837 86.7502 29.0003 87.0419 30.3337L87.2502 31.2087C88.5419 36.9587 85.5002 39.167 80.5002 36.167L79.4169 35.542C78.1252 34.792 76.0419 34.792 74.7502 35.542L73.6669 36.167C68.6252 39.2087 65.5835 36.9587 66.9169 31.2087L67.1252 30.3337C67.4169 29.0003 66.8752 27.0837 65.9169 26.0837L64.4586 24.5837C61.0419 21.1253 62.1669 17.6253 66.9169 16.8337L68.5002 16.5837C69.7502 16.3753 71.2502 15.2503 71.8335 14.0837L73.0002 11.7087C75.2502 7.20868 78.9169 7.20868 81.1669 11.7503Z" fill="#79E7BA"/>
<path d="M89.8752 42.0413C88.3752 43.1247 84.1668 45.1247 78.1668 42.0413C77.5002 41.708 76.6668 41.6663 76.0002 42.0413C73.6252 43.2497 71.4585 43.7497 69.7502 43.7497C67.0835 43.7497 65.2085 42.708 64.2918 42.0413C62.7502 40.9163 59.5002 37.708 60.6252 30.9163C60.7502 30.208 60.5418 29.4997 60.0835 28.958C57.2085 25.6663 55.6252 21.2497 56.7502 17.7913C57.1668 16.4163 56.2918 14.583 54.8752 14.583H29.1668C16.6668 14.583 8.3335 20.833 8.3335 35.4163V64.583C8.3335 79.1663 16.6668 85.4163 29.1668 85.4163H70.8335C83.3335 85.4163 91.6668 79.1663 91.6668 64.583V42.7913C91.6668 41.9997 90.5418 41.583 89.8752 42.0413ZM59.7502 50.3747C57.0002 52.583 53.5002 53.6663 50.0002 53.6663C46.5002 53.6663 42.9585 52.583 40.2502 50.3747L27.2085 39.958C25.8752 38.8747 25.6668 36.8747 26.7085 35.5413C27.7918 34.208 29.7502 33.958 31.0835 35.0413L44.1252 45.458C47.2918 47.9997 52.6668 47.9997 55.8335 45.458C57.1668 44.3747 59.1252 44.583 60.2085 45.958C61.3335 47.2913 61.1252 49.2913 59.7502 50.3747Z" fill="#79E7BA"/>
</svg>
