<svg width="48" height="49" viewBox="0 0 48 49" fill="none" xmlns="http://www.w3.org/2000/svg">
<rect y="0.857422" width="48" height="48" rx="24" fill="#1E1E1E" fill-opacity="0.6"/>
<path fill-rule="evenodd" clip-rule="evenodd" d="M31.7771 17.2874C32.0243 17.1834 32.2947 17.1475 32.5604 17.1835C32.8261 17.2195 33.0773 17.3261 33.2878 17.4921C33.4984 17.6581 33.6606 17.8775 33.7575 18.1275C33.8545 18.3774 33.8827 18.6488 33.8391 18.9134L31.5711 32.6704C31.3511 33.9974 29.8951 34.7584 28.6781 34.0974C27.6601 33.5444 26.1481 32.6924 24.7881 31.8034C24.1081 31.3584 22.0251 29.9334 22.2811 28.9194C22.5011 28.0524 26.0011 24.7944 28.0011 22.8574C28.7861 22.0964 28.4281 21.6574 27.5011 22.3574C25.1991 24.0954 21.5031 26.7384 20.2811 27.4824C19.2031 28.1384 18.6411 28.2504 17.9691 28.1384C16.7431 27.9344 15.6061 27.6184 14.6781 27.2334C13.4241 26.7134 13.4851 24.9894 14.6771 24.4874L31.7771 17.2874Z" fill="white"/>
</svg>
