<svg width="509" height="253" viewBox="0 0 509 253" fill="none" xmlns="http://www.w3.org/2000/svg">
<g filter="url(#filter0_d_1431_36795)">
<g clip-path="url(#clip0_1431_36795)">
<path d="M94.8454 155.803L90.0392 149.483L90.9214 149.22L94.3398 153.762C94.4143 153.86 94.4973 153.975 94.589 154.106C94.6786 154.23 94.7682 154.354 94.8578 154.478C94.9453 154.595 95.0229 154.703 95.0904 154.804L95.163 154.782C95.1668 154.668 95.1733 154.538 95.1826 154.392C95.1899 154.24 95.1972 154.087 95.2044 153.934C95.2096 153.774 95.2165 153.633 95.2251 153.51L95.5816 147.834L96.443 147.578L95.8625 155.501L94.8454 155.803ZM99.924 154.428C99.7095 154.492 99.4902 154.527 99.2662 154.533C99.0442 154.547 98.8337 154.523 98.6347 154.461C98.4406 154.391 98.2662 154.273 98.1117 154.108C97.9572 153.944 97.8378 153.719 97.7534 153.436C97.6423 153.062 97.6416 152.731 97.7516 152.442C97.8663 152.144 98.0702 151.88 98.3632 151.65C98.6542 151.413 99.0174 151.203 99.4527 151.021C99.895 150.836 100.382 150.665 100.915 150.507L100.708 149.811C100.643 149.59 100.545 149.415 100.417 149.288C100.294 149.151 100.119 149.071 99.8939 149.048C99.6734 149.016 99.3833 149.053 99.0235 149.16C98.6775 149.263 98.4176 149.389 98.2437 149.539C98.0698 149.689 97.9629 149.848 97.9231 150.018C97.8882 150.179 97.8964 150.346 97.9479 150.519L97.9973 150.686L97.2811 150.899C97.2639 150.866 97.2502 150.832 97.2399 150.798C97.2296 150.763 97.2172 150.722 97.2028 150.673C97.0999 150.327 97.1055 150.017 97.2195 149.742C97.3335 149.467 97.5402 149.225 97.8393 149.015C98.1385 148.806 98.5026 148.637 98.9316 148.51C99.3675 148.38 99.7538 148.337 100.09 148.38C100.425 148.416 100.707 148.528 100.936 148.715C101.165 148.903 101.329 149.163 101.428 149.496L102.36 152.63C102.399 152.761 102.451 152.848 102.516 152.889C102.586 152.921 102.666 152.923 102.756 152.896L103.192 152.767L103.334 153.244C103.242 153.317 103.142 153.384 103.033 153.447C102.93 153.507 102.817 153.556 102.692 153.593C102.512 153.647 102.356 153.652 102.222 153.609C102.096 153.563 101.988 153.479 101.898 153.355C101.815 153.229 101.743 153.085 101.679 152.923L101.607 152.945C101.531 153.17 101.41 153.384 101.243 153.584C101.082 153.775 100.89 153.941 100.668 154.082C100.449 154.23 100.201 154.346 99.924 154.428ZM99.8913 153.749C100.12 153.681 100.33 153.577 100.522 153.437C100.713 153.297 100.876 153.135 101.01 152.952C101.142 152.763 101.232 152.559 101.28 152.341C101.335 152.121 101.329 151.897 101.261 151.669L101.094 151.109C100.451 151.3 99.9214 151.495 99.5061 151.694C99.0977 151.891 98.8085 152.109 98.6386 152.348C98.4755 152.584 98.4403 152.858 98.5329 153.17C98.5947 153.377 98.6911 153.537 98.8222 153.649C98.9582 153.751 99.1185 153.809 99.3031 153.822C99.4877 153.835 99.6838 153.81 99.8913 153.749ZM105.425 152.791C104.907 152.946 104.449 152.939 104.052 152.771C103.656 152.602 103.36 152.19 103.164 151.532L102.031 147.723L102.778 147.501L103.89 151.237C103.962 151.479 104.052 151.667 104.159 151.801C104.267 151.935 104.389 152.03 104.527 152.087C104.662 152.137 104.808 152.158 104.963 152.149C105.126 152.139 105.294 152.108 105.467 152.056C105.743 151.974 105.983 151.831 106.186 151.627C106.394 151.415 106.537 151.161 106.615 150.867C106.691 150.566 106.677 150.239 106.572 149.886L105.612 146.658L106.359 146.436L107.983 151.895L107.402 152.068L107.063 151.231L106.99 151.253C106.912 151.547 106.798 151.796 106.647 151.999C106.501 152.193 106.324 152.355 106.114 152.485C105.911 152.613 105.681 152.715 105.425 152.791ZM109.029 151.584L106.796 144.08L107.544 143.858L109.776 151.362L109.029 151.584ZM112.061 150.806C111.812 150.88 111.598 150.895 111.419 150.85C111.247 150.804 111.106 150.71 110.996 150.569C110.894 150.427 110.814 150.258 110.756 150.065L109.595 146.162L108.858 146.381L108.67 145.748L109.407 145.529L109.101 143.971L109.703 143.791L110.154 145.307L111.202 144.995L111.391 145.628L110.342 145.94L111.463 149.707C111.519 149.894 111.584 150.025 111.659 150.101C111.741 150.174 111.872 150.184 112.052 150.131L112.675 149.946L112.817 150.423C112.756 150.471 112.68 150.52 112.589 150.57C112.508 150.624 112.419 150.669 112.325 150.705C112.232 150.748 112.144 150.781 112.061 150.806ZM117.709 149.137C117.336 149.248 116.981 149.271 116.645 149.205C116.316 149.137 116.009 148.977 115.722 148.723L115.65 148.744L115.804 149.568L115.213 149.744L112.98 142.24L113.728 142.018L114.546 144.768L114.618 144.747C114.683 144.509 114.785 144.306 114.923 144.137C115.059 143.961 115.222 143.814 115.413 143.697C115.604 143.58 115.811 143.488 116.032 143.423C116.468 143.293 116.875 143.281 117.253 143.387C117.638 143.491 117.979 143.725 118.275 144.088C118.569 144.445 118.812 144.945 119.004 145.589C119.208 146.274 119.287 146.857 119.241 147.337C119.201 147.809 119.048 148.193 118.782 148.49C118.524 148.786 118.166 149.001 117.709 149.137ZM117.39 148.52C117.695 148.43 117.938 148.286 118.121 148.088C118.31 147.889 118.422 147.622 118.458 147.288C118.492 146.946 118.433 146.519 118.281 146.007L118.204 145.748C118.058 145.256 117.88 144.876 117.672 144.607C117.471 144.335 117.232 144.165 116.956 144.097C116.684 144.019 116.375 144.032 116.029 144.135C115.843 144.191 115.665 144.277 115.497 144.395C115.333 144.504 115.202 144.656 115.102 144.852C115.002 145.047 114.948 145.297 114.94 145.6C114.932 145.904 114.992 146.27 115.12 146.699L115.176 146.886C115.309 147.336 115.475 147.701 115.671 147.981C115.874 148.26 116.118 148.447 116.403 148.543C116.688 148.639 117.017 148.631 117.39 148.52ZM121.951 147.875C121.737 147.939 121.517 147.974 121.293 147.981C121.071 147.994 120.861 147.97 120.662 147.909C120.468 147.838 120.293 147.721 120.139 147.556C119.984 147.391 119.865 147.167 119.781 146.883C119.669 146.509 119.669 146.178 119.779 145.889C119.894 145.592 120.097 145.328 120.39 145.097C120.681 144.86 121.045 144.65 121.48 144.468C121.922 144.284 122.41 144.112 122.942 143.954L122.736 143.259C122.67 143.037 122.573 142.863 122.444 142.735C122.321 142.599 122.147 142.519 121.921 142.495C121.701 142.463 121.41 142.5 121.051 142.607C120.705 142.71 120.445 142.837 120.271 142.986C120.097 143.136 119.99 143.296 119.95 143.466C119.915 143.627 119.924 143.794 119.975 143.967L120.025 144.133L119.308 144.346C119.291 144.313 119.277 144.28 119.267 144.245C119.257 144.211 119.244 144.169 119.23 144.121C119.127 143.775 119.133 143.464 119.247 143.189C119.361 142.914 119.567 142.672 119.867 142.463C120.166 142.253 120.53 142.085 120.959 141.957C121.395 141.827 121.781 141.784 122.118 141.827C122.452 141.863 122.734 141.975 122.963 142.163C123.192 142.351 123.356 142.611 123.455 142.943L124.388 146.077C124.427 146.209 124.479 146.295 124.544 146.336C124.613 146.368 124.693 146.37 124.783 146.344L125.219 146.214L125.361 146.691C125.27 146.764 125.169 146.831 125.06 146.894C124.957 146.955 124.844 147.004 124.719 147.041C124.539 147.094 124.383 147.099 124.249 147.056C124.123 147.011 124.015 146.926 123.925 146.802C123.843 146.676 123.77 146.532 123.706 146.37L123.634 146.392C123.558 146.618 123.437 146.831 123.27 147.031C123.109 147.222 122.917 147.388 122.696 147.53C122.476 147.678 122.228 147.793 121.951 147.875ZM121.919 147.196C122.147 147.128 122.357 147.024 122.549 146.884C122.741 146.744 122.904 146.583 123.037 146.4C123.169 146.21 123.259 146.006 123.307 145.789C123.363 145.569 123.356 145.345 123.288 145.116L123.122 144.556C122.478 144.747 121.949 144.943 121.533 145.141C121.125 145.338 120.836 145.556 120.666 145.795C120.503 146.032 120.468 146.306 120.56 146.617C120.622 146.825 120.718 146.984 120.849 147.096C120.985 147.199 121.146 147.256 121.33 147.269C121.515 147.282 121.711 147.258 121.919 147.196ZM125.734 146.614L123.502 139.11L124.249 138.888L126.482 146.392L125.734 146.614ZM128.925 145.801C128.711 145.864 128.492 145.9 128.268 145.906C128.046 145.919 127.835 145.895 127.636 145.834C127.442 145.764 127.268 145.646 127.113 145.481C126.959 145.316 126.839 145.092 126.755 144.808C126.644 144.435 126.643 144.103 126.753 143.815C126.868 143.517 127.072 143.253 127.365 143.023C127.656 142.785 128.019 142.576 128.454 142.393C128.896 142.209 129.384 142.038 129.917 141.879L129.71 141.184C129.644 140.963 129.547 140.788 129.419 140.661C129.295 140.524 129.121 140.444 128.895 140.421C128.675 140.388 128.385 140.426 128.025 140.533C127.679 140.636 127.419 140.762 127.245 140.912C127.071 141.061 126.964 141.221 126.924 141.391C126.89 141.552 126.898 141.719 126.949 141.892L126.999 142.058L126.283 142.271C126.265 142.239 126.252 142.205 126.241 142.171C126.231 142.136 126.219 142.094 126.204 142.046C126.101 141.7 126.107 141.39 126.221 141.115C126.335 140.84 126.542 140.597 126.841 140.388C127.14 140.178 127.504 140.01 127.933 139.882C128.369 139.753 128.755 139.709 129.092 139.752C129.426 139.788 129.708 139.9 129.937 140.088C130.167 140.276 130.33 140.536 130.429 140.868L131.362 144.003C131.401 144.134 131.453 144.22 131.518 144.261C131.587 144.293 131.667 144.296 131.757 144.269L132.193 144.139L132.335 144.617C132.244 144.689 132.143 144.757 132.034 144.819C131.932 144.88 131.818 144.929 131.693 144.966C131.514 145.019 131.357 145.025 131.224 144.981C131.097 144.936 130.989 144.852 130.9 144.728C130.817 144.602 130.744 144.458 130.681 144.296L130.608 144.317C130.532 144.543 130.411 144.756 130.245 144.956C130.083 145.147 129.891 145.314 129.67 145.455C129.45 145.603 129.202 145.718 128.925 145.801ZM128.893 145.121C129.121 145.053 129.331 144.949 129.523 144.809C129.715 144.67 129.878 144.508 130.012 144.325C130.143 144.135 130.233 143.932 130.282 143.714C130.337 143.494 130.33 143.27 130.262 143.042L130.096 142.481C129.452 142.673 128.923 142.868 128.507 143.067C128.099 143.264 127.81 143.481 127.64 143.72C127.477 143.957 127.442 144.231 127.534 144.542C127.596 144.75 127.692 144.91 127.824 145.021C127.96 145.124 128.12 145.182 128.304 145.195C128.489 145.207 128.685 145.183 128.893 145.121ZM132.708 144.54L131.084 139.08L131.676 138.904L132.005 139.744L132.078 139.723C132.156 139.428 132.271 139.183 132.424 138.987C132.574 138.784 132.751 138.619 132.954 138.49C133.164 138.36 133.396 138.257 133.652 138.181C133.998 138.078 134.317 138.047 134.608 138.089C134.904 138.121 135.162 138.244 135.384 138.457C135.605 138.669 135.782 138.997 135.914 139.44L137.047 143.249L136.3 143.471L135.188 139.735C135.116 139.493 135.026 139.305 134.919 139.171C134.811 139.038 134.69 138.946 134.554 138.896C134.417 138.838 134.267 138.815 134.104 138.826C133.949 138.835 133.781 138.866 133.601 138.919C133.324 139.002 133.082 139.149 132.874 139.361C132.671 139.565 132.53 139.814 132.452 140.108C132.374 140.403 132.388 140.73 132.495 141.09L133.456 144.317L132.708 144.54ZM140.06 142.488C139.555 142.639 139.095 142.662 138.68 142.56C138.273 142.455 137.916 142.219 137.61 141.85C137.305 141.481 137.057 140.975 136.865 140.332C136.676 139.695 136.608 139.139 136.663 138.664C136.717 138.188 136.89 137.794 137.181 137.481C137.477 137.16 137.884 136.922 138.403 136.768C138.784 136.654 139.121 136.611 139.415 136.636C139.713 136.653 139.974 136.73 140.195 136.867C140.424 137.003 140.615 137.19 140.77 137.431C140.924 137.671 141.049 137.954 141.146 138.279L140.409 138.498C140.304 138.145 140.171 137.876 140.011 137.69C139.855 137.496 139.658 137.377 139.419 137.335C139.186 137.284 138.903 137.308 138.571 137.407C138.259 137.5 138.003 137.651 137.802 137.861C137.608 138.07 137.487 138.347 137.439 138.692C137.396 139.029 137.452 139.457 137.606 139.976L137.681 140.225C137.827 140.716 138.008 141.099 138.226 141.373C138.441 141.641 138.687 141.812 138.966 141.887C139.251 141.961 139.56 141.948 139.892 141.849C140.238 141.746 140.494 141.606 140.66 141.429C140.83 141.242 140.928 141.025 140.952 140.777C140.974 140.522 140.938 140.239 140.846 139.927L141.572 139.711C141.659 140.002 141.703 140.29 141.705 140.575C141.705 140.854 141.647 141.116 141.532 141.361C141.424 141.604 141.249 141.826 141.007 142.026C140.77 142.217 140.454 142.371 140.06 142.488ZM144.999 141.019C144.48 141.173 144.011 141.204 143.591 141.11C143.17 141.01 142.803 140.776 142.49 140.41C142.178 140.043 141.925 139.535 141.732 138.884C141.536 138.227 141.47 137.663 141.533 137.192C141.595 136.715 141.779 136.321 142.086 136.011C142.391 135.694 142.816 135.455 143.363 135.292C143.868 135.142 144.32 135.117 144.719 135.216C145.125 135.314 145.47 135.528 145.757 135.857C146.05 136.184 146.279 136.624 146.443 137.178L146.585 137.655L142.569 138.85C142.711 139.327 142.893 139.699 143.115 139.964C143.337 140.229 143.59 140.395 143.873 140.462C144.161 140.519 144.485 140.494 144.845 140.387C145.108 140.309 145.326 140.206 145.499 140.08C145.679 139.951 145.814 139.809 145.903 139.654C145.998 139.491 146.055 139.315 146.075 139.129C146.095 138.942 146.078 138.759 146.024 138.579L146.751 138.363C146.831 138.633 146.855 138.904 146.823 139.177C146.797 139.441 146.713 139.692 146.573 139.93C146.44 140.165 146.243 140.378 145.983 140.568C145.721 140.751 145.393 140.902 144.999 141.019ZM142.393 138.258L145.631 137.295C145.528 136.949 145.401 136.674 145.25 136.471C145.104 136.258 144.941 136.103 144.762 136.006C144.58 135.902 144.383 135.847 144.171 135.843C143.965 135.836 143.745 135.868 143.51 135.938C143.171 136.038 142.9 136.191 142.697 136.394C142.492 136.591 142.363 136.844 142.312 137.152C142.268 137.459 142.295 137.828 142.393 138.258Z" fill="#CACACA"/>
<path d="M108.299 191.017L102.85 172.703L104.037 172.35L109.485 190.664L108.299 191.017ZM107.947 188.1C107.093 188.354 106.316 188.491 105.616 188.51C104.916 188.529 104.305 188.443 103.784 188.254C103.258 188.049 102.816 187.75 102.459 187.357C102.096 186.949 101.828 186.452 101.654 185.867C101.635 185.803 101.616 185.74 101.597 185.677C101.574 185.598 101.563 185.532 101.564 185.48L103.628 184.866C103.631 184.934 103.64 184.992 103.654 185.039C103.663 185.071 103.675 185.11 103.689 185.158C103.87 185.707 104.144 186.107 104.511 186.359C104.89 186.591 105.344 186.697 105.872 186.678C106.399 186.658 106.964 186.559 107.565 186.381C108.087 186.225 108.548 186.011 108.948 185.737C109.349 185.463 109.636 185.153 109.809 184.809C109.993 184.445 110.024 184.057 109.902 183.645C109.742 183.108 109.448 182.756 109.02 182.591C108.608 182.421 108.101 182.339 107.501 182.346C106.895 182.336 106.266 182.334 105.614 182.339C105.065 182.347 104.514 182.347 103.961 182.34C103.403 182.316 102.881 182.239 102.395 182.108C101.919 181.957 101.496 181.722 101.126 181.401C100.766 181.061 100.495 180.582 100.311 179.965C100.147 179.412 100.111 178.889 100.206 178.396C100.316 177.898 100.542 177.443 100.885 177.032C101.222 176.604 101.668 176.222 102.222 175.885C102.792 175.543 103.448 175.262 104.192 175.041C104.982 174.806 105.696 174.688 106.333 174.688C106.986 174.683 107.557 174.78 108.046 174.979C108.536 175.177 108.937 175.454 109.249 175.809C109.561 176.164 109.785 176.57 109.922 177.029C109.945 177.108 109.971 177.195 109.999 177.29C110.023 177.369 110.034 177.435 110.032 177.487L107.992 178.094L107.914 177.833C107.82 177.516 107.644 177.242 107.385 177.009C107.142 176.771 106.787 176.619 106.319 176.551C105.867 176.479 105.286 176.549 104.574 176.761C104.115 176.897 103.732 177.054 103.423 177.232C103.115 177.41 102.871 177.603 102.692 177.811C102.513 178.019 102.398 178.243 102.349 178.481C102.294 178.704 102.307 178.95 102.387 179.219C102.51 179.63 102.738 179.906 103.073 180.048C103.408 180.189 103.818 180.265 104.303 180.276C104.804 180.282 105.339 180.286 105.908 180.289C106.508 180.282 107.119 180.281 107.74 180.286C108.377 180.286 108.97 180.342 109.52 180.454C110.086 180.561 110.577 180.794 110.993 181.152C111.421 181.489 111.74 182.014 111.952 182.726C112.145 183.374 112.188 183.981 112.081 184.547C111.973 185.112 111.73 185.624 111.349 186.081C110.985 186.534 110.51 186.933 109.924 187.28C109.35 187.606 108.691 187.879 107.947 188.1ZM124.78 185.159C123.847 185.436 122.969 185.551 122.145 185.503C121.338 185.451 120.584 185.202 119.883 184.756C119.198 184.306 118.571 183.614 118.001 182.682C117.426 181.734 116.913 180.501 116.461 178.983C115.963 177.306 115.681 175.867 115.616 174.664C115.546 173.445 115.655 172.423 115.943 171.597C116.242 170.75 116.71 170.069 117.349 169.552C117.998 169.014 118.789 168.607 119.722 168.329C120.892 167.981 121.899 167.923 122.743 168.154C123.602 168.38 124.311 168.823 124.869 169.484C125.422 170.128 125.842 170.933 126.129 171.898L123.994 172.533C123.777 171.805 123.493 171.227 123.142 170.798C122.791 170.369 122.358 170.101 121.845 169.996C121.347 169.886 120.774 169.927 120.126 170.12C119.177 170.402 118.509 170.876 118.122 171.543C117.745 172.188 117.596 173.016 117.672 174.026C117.765 175.031 117.999 176.193 118.373 177.51C118.486 177.081 118.696 176.657 119.002 176.239C119.324 175.816 119.736 175.435 120.237 175.096C120.735 174.742 121.291 174.473 121.908 174.289C123.079 173.941 124.114 173.892 125.014 174.14C125.91 174.373 126.659 174.839 127.263 175.537C127.867 176.235 128.317 177.083 128.613 178.079C128.938 179.17 128.985 180.198 128.756 181.161C128.526 182.125 128.068 182.958 127.382 183.662C126.691 184.349 125.824 184.848 124.78 185.159ZM124.116 183.445C124.89 183.215 125.482 182.858 125.889 182.376C126.291 181.877 126.529 181.316 126.602 180.692C126.685 180.047 126.626 179.385 126.424 178.705C126.231 178.056 125.936 177.498 125.539 177.031C125.141 176.564 124.643 176.248 124.042 176.082C123.453 175.896 122.771 175.918 121.996 176.148C121.221 176.379 120.622 176.738 120.199 177.225C119.776 177.713 119.52 178.271 119.432 178.899C119.339 179.512 119.396 180.167 119.603 180.863C119.796 181.511 120.101 182.075 120.519 182.553C120.937 183.031 121.448 183.361 122.053 183.543C122.653 183.708 123.341 183.676 124.116 183.445ZM133.14 186.158L132.851 185.185C133.133 185.032 133.333 184.809 133.452 184.516C133.587 184.217 133.648 183.872 133.635 183.48C133.626 183.104 133.558 182.702 133.431 182.275L132.34 182.6L131.599 180.109L133.9 179.424L134.564 181.654C134.836 182.572 134.914 183.323 134.795 183.909C134.698 184.507 134.486 184.983 134.162 185.337C133.853 185.688 133.512 185.961 133.14 186.158ZM142.752 179.812C141.867 180.076 141.038 180.184 140.267 180.138C139.491 180.076 138.764 179.802 138.086 179.315C137.403 178.813 136.774 178.061 136.202 177.061C135.624 176.045 135.09 174.715 134.601 173.07C134.112 171.425 133.834 170.027 133.767 168.877C133.695 167.71 133.81 166.738 134.113 165.959C134.41 165.165 134.869 164.538 135.49 164.078C136.105 163.602 136.856 163.232 137.742 162.969C138.628 162.705 139.45 162.607 140.21 162.673C140.982 162.719 141.709 162.994 142.392 163.496C143.07 163.983 143.699 164.734 144.276 165.75C144.849 166.751 145.38 168.073 145.87 169.718C146.359 171.363 146.639 172.768 146.711 173.935C146.778 175.086 146.663 176.058 146.365 176.852C146.063 177.631 145.604 178.258 144.988 178.734C144.383 179.189 143.638 179.549 142.752 179.812ZM142.23 178.057C143.132 177.789 143.759 177.352 144.113 176.748C144.483 176.138 144.629 175.355 144.55 174.397C144.488 173.434 144.256 172.281 143.856 170.937L143.532 169.845C143.127 168.485 142.688 167.385 142.214 166.545C141.752 165.684 141.199 165.099 140.556 164.791C139.93 164.478 139.166 164.456 138.264 164.724C137.363 164.992 136.727 165.431 136.357 166.04C135.988 166.649 135.834 167.435 135.897 168.398C135.975 169.356 136.217 170.515 136.621 171.875L136.939 172.943C137.339 174.287 137.77 175.39 138.233 176.25C138.711 177.107 139.272 177.689 139.914 177.997C140.557 178.305 141.329 178.325 142.23 178.057ZM155.403 176.049C154.517 176.312 153.689 176.421 152.917 176.375C152.142 176.313 151.414 176.039 150.736 175.552C150.053 175.05 149.425 174.298 148.852 173.298C148.274 172.282 147.741 170.952 147.251 169.307C146.762 167.662 146.484 166.264 146.417 165.114C146.345 163.947 146.461 162.975 146.763 162.196C147.06 161.402 147.519 160.775 148.14 160.315C148.756 159.839 149.506 159.469 150.392 159.206C151.278 158.942 152.101 158.844 152.861 158.91C153.632 158.956 154.359 159.231 155.042 159.733C155.721 160.22 156.349 160.971 156.926 161.987C157.499 162.987 158.031 164.31 158.52 165.955C159.009 167.6 159.29 169.005 159.361 170.172C159.428 171.322 159.313 172.295 159.015 173.089C158.713 173.868 158.254 174.495 157.638 174.971C157.034 175.426 156.288 175.786 155.403 176.049ZM154.88 174.294C155.782 174.025 156.41 173.589 156.763 172.984C157.133 172.375 157.279 171.592 157.2 170.634C157.138 169.671 156.907 168.518 156.507 167.173L156.182 166.082C155.777 164.722 155.338 163.622 154.864 162.781C154.402 161.921 153.849 161.336 153.207 161.028C152.58 160.715 151.816 160.693 150.914 160.961C150.013 161.229 149.377 161.668 149.008 162.277C148.638 162.886 148.484 163.672 148.547 164.635C148.625 165.593 148.867 166.752 149.272 168.112L149.589 169.18C149.989 170.524 150.42 171.626 150.883 172.487C151.361 173.343 151.922 173.926 152.564 174.234C153.207 174.542 153.979 174.562 154.88 174.294ZM168.053 172.286C167.167 172.549 166.339 172.658 165.568 172.612C164.792 172.55 164.065 172.276 163.386 171.789C162.703 171.286 162.075 170.535 161.502 169.535C160.924 168.519 160.391 167.189 159.902 165.544C159.412 163.899 159.134 162.501 159.067 161.35C158.996 160.184 159.111 159.211 159.413 158.433C159.71 157.639 160.169 157.011 160.79 156.551C161.406 156.075 162.157 155.706 163.042 155.442C163.928 155.179 164.751 155.08 165.511 155.147C166.282 155.193 167.009 155.467 167.692 155.97C168.371 156.457 168.999 157.208 169.577 158.224C170.15 159.224 170.681 160.547 171.17 162.192C171.659 163.836 171.94 165.242 172.011 166.409C172.078 167.559 171.963 168.532 171.666 169.326C171.364 170.105 170.905 170.732 170.289 171.208C169.684 171.663 168.939 172.022 168.053 172.286ZM167.531 170.53C168.432 170.262 169.06 169.826 169.414 169.221C169.783 168.612 169.929 167.829 169.851 166.871C169.788 165.908 169.557 164.754 169.157 163.41L168.832 162.319C168.428 160.959 167.988 159.859 167.515 159.018C167.052 158.157 166.499 157.573 165.857 157.265C165.23 156.952 164.466 156.93 163.565 157.198C162.663 157.466 162.028 157.905 161.658 158.514C161.288 159.123 161.135 159.909 161.197 160.872C161.276 161.83 161.517 162.989 161.922 164.349L162.239 165.416C162.639 166.761 163.071 167.863 163.533 168.724C164.012 169.58 164.572 170.162 165.215 170.47C165.857 170.779 166.629 170.798 167.531 170.53ZM175.921 169.635L175.18 167.144L177.505 166.453L178.246 168.944L175.921 169.635ZM186.334 166.848C185.448 167.111 184.62 167.22 183.849 167.174C183.073 167.112 182.345 166.838 181.667 166.351C180.984 165.848 180.356 165.097 179.783 164.097C179.205 163.081 178.672 161.75 178.182 160.106C177.693 158.461 177.415 157.063 177.348 155.912C177.276 154.746 177.392 153.773 177.694 152.995C177.991 152.2 178.45 151.573 179.071 151.113C179.687 150.637 180.437 150.268 181.323 150.004C182.209 149.741 183.032 149.642 183.792 149.709C184.563 149.755 185.29 150.029 185.973 150.532C186.652 151.019 187.28 151.77 187.857 152.786C188.43 153.786 188.962 155.109 189.451 156.753C189.94 158.398 190.221 159.804 190.292 160.97C190.359 162.121 190.244 163.094 189.946 163.888C189.644 164.666 189.185 165.294 188.569 165.769C187.965 166.225 187.219 166.584 186.334 166.848ZM185.812 165.092C186.713 164.824 187.341 164.388 187.695 163.783C188.064 163.174 188.21 162.39 188.131 161.432C188.069 160.47 187.838 159.316 187.438 157.972L187.113 156.881C186.708 155.521 186.269 154.42 185.795 153.58C185.333 152.719 184.78 152.135 184.138 151.827C183.511 151.514 182.747 151.492 181.845 151.76C180.944 152.028 180.308 152.467 179.939 153.076C179.569 153.685 179.415 154.471 179.478 155.434C179.556 156.391 179.798 157.551 180.203 158.911L180.52 159.978C180.92 161.323 181.351 162.425 181.814 163.286C182.292 164.142 182.853 164.724 183.495 165.032C184.138 165.34 184.91 165.36 185.812 165.092ZM198.984 163.084C198.098 163.348 197.27 163.457 196.499 163.411C195.723 163.349 194.996 163.074 194.317 162.588C193.634 162.085 193.006 161.334 192.433 160.334C191.855 159.318 191.322 157.987 190.833 156.342C190.343 154.698 190.065 153.3 189.998 152.149C189.927 150.982 190.042 150.01 190.344 149.232C190.641 148.437 191.1 147.81 191.721 147.35C192.337 146.874 193.088 146.504 193.973 146.241C194.859 145.978 195.682 145.879 196.442 145.946C197.213 145.992 197.94 146.266 198.623 146.769C199.302 147.255 199.93 148.007 200.508 149.023C201.081 150.023 201.612 151.345 202.101 152.99C202.59 154.635 202.871 156.041 202.942 157.207C203.009 158.358 202.894 159.33 202.597 160.125C202.295 160.903 201.836 161.53 201.22 162.006C200.615 162.462 199.87 162.821 198.984 163.084ZM198.462 161.329C199.363 161.061 199.991 160.624 200.345 160.02C200.714 159.411 200.86 158.627 200.782 157.669C200.719 156.707 200.488 155.553 200.088 154.209L199.763 153.118C199.359 151.757 198.919 150.657 198.446 149.817C197.983 148.956 197.43 148.372 196.788 148.063C196.161 147.751 195.397 147.728 194.496 147.997C193.594 148.265 192.959 148.703 192.589 149.313C192.219 149.922 192.066 150.708 192.128 151.67C192.207 152.628 192.448 153.787 192.853 155.147L193.17 156.215C193.57 157.559 194.002 158.662 194.464 159.523C194.943 160.379 195.503 160.961 196.146 161.269C196.788 161.577 197.56 161.597 198.462 161.329Z" fill="#F1F1F1"/>
<path d="M215.152 158.081C214.642 158.233 214.179 158.283 213.764 158.233C213.352 158.174 212.995 157.993 212.692 157.69C212.389 157.386 212.151 156.947 211.98 156.371L210.858 152.599L211.561 152.39L212.725 156.305C212.893 156.868 213.169 157.244 213.555 157.433C213.946 157.62 214.418 157.631 214.969 157.467C215.533 157.3 215.93 157.03 216.161 156.658C216.399 156.284 216.434 155.815 216.266 155.251L215.102 151.337L215.795 151.131L216.918 154.903C217.089 155.478 217.127 155.976 217.033 156.398C216.945 156.818 216.739 157.167 216.415 157.444C216.095 157.714 215.674 157.926 215.152 158.081ZM221.124 156.304C220.798 156.402 220.472 156.466 220.146 156.499C219.82 156.531 219.517 156.511 219.237 156.44C218.958 156.368 218.715 156.237 218.51 156.046C218.305 155.855 218.151 155.588 218.049 155.244C218.04 155.214 218.032 155.188 218.025 155.164C218.016 155.134 218.01 155.104 218.008 155.072L218.71 154.863C218.717 154.887 218.724 154.92 218.731 154.964C218.743 155.005 218.753 155.041 218.762 155.07C218.84 155.331 218.982 155.528 219.189 155.66C219.401 155.784 219.653 155.851 219.946 155.861C220.244 155.863 220.562 155.813 220.9 155.713C221.012 155.679 221.144 155.634 221.295 155.576C221.45 155.51 221.601 155.433 221.749 155.344C221.901 155.247 222.033 155.14 222.147 155.022C222.259 154.899 222.337 154.762 222.383 154.613C222.434 154.456 222.43 154.283 222.374 154.093C222.309 153.873 222.196 153.71 222.035 153.603C221.874 153.496 221.682 153.427 221.46 153.396C221.242 153.358 220.998 153.34 220.727 153.343C220.457 153.346 220.182 153.354 219.902 153.366C219.621 153.379 219.344 153.38 219.07 153.371C218.802 153.361 218.552 153.322 218.319 153.256C218.087 153.189 217.884 153.082 217.71 152.933C217.541 152.777 217.416 152.563 217.335 152.29C217.264 152.053 217.247 151.822 217.284 151.598C217.321 151.374 217.416 151.165 217.572 150.97C217.725 150.77 217.941 150.586 218.221 150.419C218.501 150.252 218.848 150.106 219.263 149.983C219.577 149.889 219.881 149.835 220.173 149.819C220.465 149.803 220.736 149.835 220.986 149.916C221.234 149.99 221.446 150.118 221.623 150.298C221.803 150.47 221.937 150.704 222.025 151.001L222.057 151.108L221.363 151.314L221.318 151.163C221.253 150.943 221.13 150.78 220.95 150.672C220.767 150.559 220.548 150.495 220.292 150.48C220.04 150.459 219.769 150.491 219.479 150.577C219.081 150.695 218.767 150.834 218.537 150.993C218.305 151.146 218.148 151.312 218.066 151.491C217.982 151.665 217.965 151.838 218.016 152.01C218.076 152.211 218.186 152.363 218.345 152.464C218.503 152.559 218.692 152.622 218.915 152.653C219.135 152.677 219.377 152.689 219.642 152.688C219.91 152.679 220.185 152.669 220.465 152.656C220.745 152.644 221.02 152.646 221.29 152.663C221.564 152.672 221.818 152.712 222.052 152.784C222.291 152.849 222.495 152.959 222.664 153.116C222.839 153.27 222.968 153.487 223.051 153.765C223.176 154.187 223.172 154.562 223.038 154.893C222.91 155.221 222.68 155.503 222.35 155.737C222.019 155.971 221.611 156.16 221.124 156.304ZM224.516 155.179L222.7 149.077L224.898 148.423C225.55 148.229 226.133 148.171 226.648 148.251C227.166 148.323 227.611 148.549 227.982 148.929C228.358 149.301 228.652 149.846 228.866 150.564C229.076 151.27 229.126 151.884 229.017 152.407C228.914 152.928 228.666 153.364 228.273 153.713C227.885 154.061 227.366 154.332 226.713 154.526L224.516 155.179ZM225.039 154.365L226.506 153.929C226.868 153.821 227.182 153.683 227.448 153.513C227.712 153.338 227.921 153.127 228.074 152.882C228.225 152.63 228.31 152.34 228.328 152.012C228.347 151.683 228.293 151.309 228.168 150.888L228.112 150.701C227.984 150.268 227.822 149.919 227.627 149.654C227.43 149.384 227.2 149.187 226.938 149.065C226.68 148.935 226.393 148.872 226.078 148.875C225.761 148.873 225.419 148.926 225.051 149.036L223.583 149.472L225.039 154.365Z" fill="#CACACA"/>
<path d="M110.361 209.157L109.773 207.182L107.967 207.719L107.792 207.132L109.598 206.594L109.008 204.611L109.586 204.439L110.177 206.422L111.991 205.883L112.166 206.47L110.351 207.01L110.939 208.985L110.361 209.157ZM113.52 208.217L113.353 207.656L114.937 207.185L113.624 202.773L112.04 203.244L111.916 202.826C112.15 202.743 112.376 202.647 112.595 202.536C112.814 202.426 113.015 202.289 113.199 202.124C113.382 201.96 113.534 201.754 113.653 201.505L113.92 201.426L115.577 206.995L117.072 206.55L117.238 207.111L113.52 208.217ZM119.7 206.495C119.201 206.643 118.772 206.686 118.412 206.626C118.05 206.559 117.758 206.414 117.536 206.189C117.313 205.959 117.153 205.68 117.056 205.354C116.957 205.022 116.953 204.704 117.043 204.399C117.139 204.093 117.348 203.818 117.669 203.574C117.34 203.51 117.062 203.38 116.836 203.183C116.607 202.979 116.449 202.729 116.361 202.433C116.267 202.119 116.258 201.815 116.332 201.522C116.404 201.223 116.564 200.956 116.81 200.721C117.057 200.486 117.394 200.305 117.821 200.178C118.248 200.051 118.626 200.019 118.954 200.083C119.289 200.145 119.566 200.282 119.784 200.495C120.006 200.7 120.164 200.959 120.258 201.274C120.346 201.57 120.35 201.866 120.27 202.161C120.194 202.448 120.033 202.709 119.786 202.944C120.194 202.971 120.519 203.087 120.761 203.293C121.009 203.497 121.183 203.765 121.281 204.097C121.378 204.423 121.396 204.744 121.335 205.059C121.272 205.368 121.107 205.65 120.841 205.903C120.578 206.149 120.198 206.346 119.7 206.495ZM119.538 205.952C120.013 205.811 120.337 205.598 120.51 205.314C120.688 205.022 120.722 204.69 120.611 204.316C120.501 203.948 120.292 203.691 119.984 203.544C119.681 203.395 119.293 203.391 118.818 203.532C118.338 203.675 118.009 203.892 117.831 204.184C117.653 204.476 117.619 204.806 117.728 205.173C117.839 205.547 118.049 205.807 118.358 205.954C118.664 206.096 119.058 206.095 119.538 205.952ZM118.66 202.998C119.057 202.88 119.338 202.687 119.504 202.418C119.675 202.148 119.707 201.831 119.599 201.47C119.492 201.108 119.293 200.864 119.004 200.737C118.72 200.608 118.379 200.603 117.982 200.721C117.579 200.841 117.291 201.033 117.118 201.298C116.95 201.56 116.921 201.873 117.028 202.234C117.136 202.596 117.332 202.844 117.618 202.979C117.909 203.112 118.256 203.118 118.66 202.998ZM123.549 205.233L126.11 197.828L126.751 197.638L124.189 205.043L123.549 205.233ZM123.102 202.103C122.835 202.182 122.586 202.205 122.357 202.17C122.131 202.127 121.93 202.006 121.755 201.806C121.585 201.605 121.439 201.3 121.318 200.891C121.194 200.476 121.148 200.137 121.18 199.876C121.218 199.613 121.321 199.405 121.489 199.252C121.66 199.091 121.879 198.971 122.146 198.891C122.419 198.81 122.665 198.792 122.885 198.836C123.109 198.873 123.306 198.992 123.476 199.193C123.651 199.393 123.801 199.7 123.924 200.115C124.046 200.524 124.089 200.864 124.053 201.133C124.021 201.394 123.921 201.601 123.753 201.754C123.592 201.906 123.375 202.022 123.102 202.103ZM122.964 201.64C123.249 201.556 123.407 201.405 123.44 201.189C123.478 200.971 123.445 200.684 123.339 200.328L123.318 200.257C123.247 200.02 123.166 199.824 123.075 199.671C122.99 199.515 122.885 199.411 122.76 199.358C122.632 199.299 122.474 199.298 122.284 199.354C122.011 199.435 121.853 199.586 121.808 199.805C121.77 200.023 121.804 200.313 121.912 200.675L121.933 200.746C122.039 201.102 122.168 201.361 122.319 201.522C122.476 201.682 122.691 201.722 122.964 201.64ZM128.162 203.977C127.889 204.058 127.641 204.081 127.417 204.044C127.191 204.001 126.991 203.88 126.815 203.681C126.645 203.479 126.5 203.174 126.378 202.765C126.254 202.35 126.209 202.011 126.241 201.75C126.279 201.487 126.381 201.279 126.549 201.126C126.715 200.967 126.934 200.847 127.207 200.766C127.48 200.684 127.726 200.666 127.946 200.71C128.17 200.747 128.366 200.866 128.536 201.067C128.706 201.269 128.852 201.577 128.976 201.992C129.097 202.401 129.143 202.74 129.113 203.007C129.081 203.268 128.981 203.475 128.814 203.628C128.652 203.78 128.435 203.896 128.162 203.977ZM128.024 203.515C128.303 203.432 128.462 203.281 128.5 203.063C128.539 202.845 128.505 202.558 128.399 202.202L128.378 202.131C128.307 201.894 128.227 201.698 128.136 201.545C128.051 201.389 127.945 201.285 127.82 201.232C127.693 201.173 127.534 201.172 127.344 201.228C127.066 201.311 126.907 201.462 126.869 201.68C126.83 201.898 126.865 202.188 126.972 202.549L126.993 202.62C127.099 202.976 127.228 203.235 127.379 203.397C127.531 203.558 127.746 203.597 128.024 203.515Z" fill="#27CA40"/>
<path d="M134.126 203.607C133.453 203.213 132.875 202.714 132.392 202.109C131.909 201.504 131.558 200.836 131.341 200.107C131.126 199.383 131.056 198.636 131.13 197.865C131.204 197.094 131.416 196.363 131.765 195.672L132.183 195.547C132.04 195.977 131.929 196.44 131.85 196.934C131.776 197.421 131.747 197.921 131.763 198.432C131.784 198.936 131.866 199.428 132.009 199.908C132.153 200.395 132.356 200.858 132.615 201.297C132.879 201.728 133.176 202.127 133.504 202.494C133.841 202.866 134.187 203.195 134.544 203.483L134.126 203.607ZM136.593 201.469C136.16 201.598 135.766 201.618 135.411 201.53C135.061 201.441 134.756 201.238 134.494 200.922C134.232 200.606 134.019 200.172 133.855 199.621C133.693 199.075 133.635 198.598 133.681 198.191C133.728 197.783 133.876 197.445 134.126 197.177C134.379 196.902 134.729 196.698 135.173 196.565C135.5 196.468 135.789 196.431 136.04 196.453C136.296 196.467 136.519 196.533 136.709 196.651C136.905 196.767 137.069 196.928 137.202 197.134C137.334 197.34 137.442 197.582 137.525 197.861L136.893 198.049C136.803 197.746 136.689 197.515 136.551 197.356C136.418 197.189 136.249 197.088 136.044 197.052C135.844 197.008 135.602 197.029 135.317 197.113C135.05 197.193 134.831 197.323 134.658 197.503C134.492 197.682 134.388 197.919 134.347 198.215C134.31 198.504 134.358 198.871 134.491 199.315L134.554 199.529C134.679 199.95 134.835 200.278 135.021 200.513C135.206 200.742 135.417 200.889 135.656 200.954C135.9 201.017 136.165 201.006 136.45 200.921C136.746 200.833 136.966 200.713 137.108 200.561C137.254 200.401 137.337 200.215 137.358 200.002C137.377 199.783 137.346 199.541 137.267 199.274L137.89 199.089C137.964 199.338 138.002 199.585 138.004 199.829C138.004 200.068 137.954 200.293 137.855 200.503C137.762 200.711 137.612 200.901 137.405 201.073C137.202 201.236 136.931 201.368 136.593 201.469ZM140.871 200.196C140.421 200.33 140.01 200.359 139.638 200.282C139.271 200.198 138.95 200 138.677 199.687C138.409 199.373 138.192 198.937 138.026 198.38C137.859 197.816 137.802 197.333 137.856 196.929C137.915 196.518 138.076 196.18 138.339 195.914C138.606 195.641 138.965 195.438 139.416 195.303C139.878 195.166 140.29 195.14 140.652 195.226C141.017 195.305 141.334 195.501 141.602 195.815C141.874 196.122 142.093 196.557 142.261 197.12C142.427 197.678 142.48 198.162 142.422 198.573C142.37 198.982 142.213 199.323 141.951 199.594C141.694 199.858 141.334 200.059 140.871 200.196ZM140.71 199.654C141.024 199.56 141.27 199.419 141.446 199.231C141.623 199.043 141.728 198.802 141.763 198.508C141.797 198.207 141.751 197.846 141.625 197.425L141.562 197.212C141.437 196.791 141.279 196.466 141.089 196.239C140.897 196.006 140.675 195.858 140.425 195.797C140.174 195.736 139.892 195.753 139.577 195.846C139.263 195.94 139.018 196.08 138.841 196.268C138.665 196.457 138.56 196.701 138.526 197.001C138.491 197.296 138.537 197.653 138.662 198.075L138.725 198.288C138.851 198.709 139.009 199.036 139.201 199.27C139.392 199.497 139.612 199.641 139.863 199.702C140.113 199.763 140.396 199.747 140.71 199.654ZM143.577 199.275L142.185 194.596L142.692 194.445L142.974 195.165L143.036 195.146C143.103 194.894 143.196 194.686 143.315 194.521C143.432 194.351 143.574 194.212 143.742 194.104C143.91 193.995 144.098 193.911 144.306 193.849C144.62 193.755 144.909 193.74 145.174 193.804C145.436 193.861 145.661 194.03 145.847 194.31L145.901 194.294C145.963 194.05 146.054 193.845 146.173 193.681C146.29 193.51 146.433 193.371 146.601 193.263C146.773 193.147 146.963 193.058 147.17 192.997C147.449 192.914 147.709 192.888 147.951 192.919C148.193 192.951 148.406 193.058 148.59 193.243C148.779 193.425 148.93 193.703 149.041 194.077L150.018 197.359L149.377 197.55L148.422 194.338C148.362 194.137 148.286 193.979 148.193 193.864C148.105 193.742 148.006 193.658 147.896 193.614C147.786 193.569 147.667 193.549 147.54 193.555C147.412 193.561 147.28 193.584 147.144 193.624C146.919 193.691 146.726 193.813 146.565 193.99C146.409 194.159 146.3 194.369 146.239 194.62C146.184 194.868 146.203 195.147 146.294 195.455L147.117 198.222L146.477 198.413L145.522 195.201C145.462 194.999 145.388 194.84 145.302 194.724C145.214 194.602 145.115 194.518 145.005 194.474C144.895 194.429 144.776 194.409 144.649 194.415C144.527 194.419 144.401 194.44 144.271 194.479C144.045 194.546 143.849 194.669 143.683 194.847C143.521 195.018 143.409 195.229 143.348 195.48C143.287 195.73 143.302 196.01 143.394 196.318L144.217 199.085L143.577 199.275ZM151.324 198.646L149.474 192.428L149.981 192.277L150.256 192.941L150.318 192.922C150.405 192.606 150.553 192.345 150.764 192.141C150.974 191.936 151.236 191.787 151.551 191.694C151.942 191.577 152.3 191.564 152.624 191.655C152.954 191.744 153.245 191.951 153.496 192.277C153.752 192.595 153.967 193.047 154.142 193.634C154.304 194.18 154.364 194.653 154.322 195.052C154.28 195.452 154.145 195.78 153.917 196.035C153.695 196.288 153.398 196.47 153.024 196.581C152.834 196.638 152.643 196.669 152.451 196.674C152.259 196.68 152.073 196.651 151.893 196.588C151.713 196.526 151.545 196.427 151.389 196.293L151.327 196.311L151.964 198.455L151.324 198.646ZM152.688 196.071C152.985 195.983 153.213 195.85 153.374 195.673C153.538 195.489 153.629 195.252 153.646 194.963C153.67 194.672 153.62 194.319 153.496 193.904L153.43 193.681C153.298 193.237 153.14 192.902 152.957 192.679C152.773 192.45 152.566 192.308 152.337 192.254C152.114 192.197 151.872 192.208 151.611 192.286C151.29 192.381 151.051 192.53 150.891 192.732C150.73 192.929 150.643 193.177 150.629 193.478C150.62 193.772 150.673 194.114 150.789 194.506L150.834 194.657C150.944 195.025 151.072 195.316 151.22 195.53C151.368 195.744 151.523 195.898 151.687 195.991C151.85 196.085 152.017 196.135 152.187 196.143C152.361 196.143 152.528 196.119 152.688 196.071ZM156.642 195.505C156.458 195.56 156.27 195.59 156.078 195.595C155.888 195.607 155.707 195.586 155.537 195.534C155.37 195.473 155.221 195.372 155.089 195.231C154.956 195.09 154.854 194.897 154.781 194.654C154.686 194.334 154.686 194.05 154.78 193.803C154.878 193.547 155.053 193.321 155.304 193.124C155.554 192.92 155.865 192.741 156.238 192.585C156.617 192.427 157.035 192.28 157.492 192.144L157.314 191.548C157.258 191.358 157.175 191.208 157.065 191.099C156.959 190.982 156.809 190.914 156.616 190.894C156.427 190.866 156.178 190.898 155.87 190.99C155.574 191.078 155.351 191.186 155.202 191.314C155.053 191.443 154.961 191.58 154.927 191.725C154.897 191.863 154.904 192.007 154.948 192.155L154.991 192.297L154.377 192.48C154.362 192.452 154.35 192.423 154.341 192.393C154.332 192.364 154.322 192.328 154.31 192.287C154.221 191.99 154.226 191.724 154.324 191.488C154.422 191.253 154.599 191.045 154.855 190.866C155.112 190.686 155.424 190.541 155.791 190.432C156.165 190.321 156.496 190.284 156.785 190.321C157.071 190.351 157.313 190.447 157.509 190.609C157.706 190.77 157.846 190.992 157.931 191.277L158.73 193.964C158.764 194.076 158.808 194.15 158.864 194.185C158.924 194.213 158.992 194.215 159.069 194.192L159.443 194.081L159.565 194.49C159.486 194.552 159.4 194.61 159.307 194.664C159.219 194.716 159.121 194.758 159.015 194.789C158.86 194.835 158.726 194.84 158.612 194.803C158.503 194.764 158.411 194.691 158.334 194.585C158.263 194.477 158.201 194.354 158.146 194.215L158.084 194.233C158.019 194.427 157.915 194.61 157.773 194.781C157.634 194.945 157.47 195.088 157.28 195.209C157.092 195.336 156.879 195.434 156.642 195.505ZM156.614 194.923C156.81 194.864 156.99 194.775 157.154 194.655C157.319 194.535 157.458 194.397 157.573 194.24C157.686 194.078 157.763 193.903 157.804 193.716C157.852 193.528 157.846 193.336 157.788 193.14L157.645 192.66C157.094 192.824 156.64 192.991 156.284 193.162C155.934 193.33 155.686 193.517 155.54 193.722C155.4 193.925 155.37 194.16 155.45 194.426C155.503 194.604 155.585 194.741 155.698 194.837C155.814 194.925 155.952 194.974 156.11 194.985C156.268 194.996 156.436 194.976 156.614 194.923ZM159.885 194.424L158.493 189.745L159.009 189.591L159.295 190.358L159.357 190.34C159.356 190.185 159.377 190.027 159.42 189.866C159.462 189.705 159.541 189.559 159.657 189.427C159.773 189.296 159.941 189.198 160.16 189.133C160.243 189.108 160.323 189.094 160.399 189.09C160.474 189.081 160.531 189.077 160.57 189.078L160.745 189.665L160.469 189.748C160.261 189.809 160.095 189.901 159.969 190.022C159.842 190.137 159.752 190.277 159.697 190.442C159.643 190.606 159.619 190.785 159.624 190.977C159.634 191.161 159.667 191.348 159.723 191.538L160.525 194.234L159.885 194.424ZM164.103 193.285C163.658 193.418 163.256 193.444 162.896 193.364C162.535 193.277 162.221 193.077 161.953 192.763C161.685 192.449 161.468 192.013 161.302 191.456C161.135 190.892 161.078 190.409 161.132 190.005C161.185 189.596 161.343 189.258 161.606 188.993C161.867 188.721 162.232 188.516 162.701 188.377C163.134 188.248 163.521 188.226 163.863 188.312C164.211 188.396 164.507 188.578 164.752 188.861C165.004 189.141 165.2 189.518 165.341 189.993L165.463 190.402L162.02 191.426C162.142 191.835 162.298 192.154 162.488 192.381C162.678 192.609 162.895 192.751 163.138 192.808C163.385 192.857 163.663 192.835 163.971 192.744C164.196 192.677 164.383 192.589 164.532 192.48C164.686 192.37 164.802 192.248 164.878 192.116C164.959 191.975 165.008 191.825 165.025 191.665C165.042 191.505 165.028 191.348 164.982 191.194L165.605 191.009C165.673 191.24 165.694 191.473 165.667 191.707C165.644 191.933 165.572 192.148 165.452 192.352C165.338 192.553 165.169 192.736 164.947 192.899C164.722 193.056 164.441 193.185 164.103 193.285ZM161.869 190.919L164.645 190.093C164.557 189.797 164.448 189.561 164.318 189.387C164.193 189.205 164.054 189.072 163.9 188.988C163.744 188.899 163.575 188.853 163.393 188.849C163.217 188.843 163.028 188.87 162.827 188.93C162.536 189.016 162.304 189.147 162.13 189.321C161.954 189.49 161.844 189.706 161.8 189.971C161.762 190.234 161.785 190.55 161.869 190.919ZM168.338 192.026C167.952 192.14 167.595 192.153 167.265 192.064C166.935 191.975 166.642 191.772 166.386 191.454C166.134 191.129 165.921 190.672 165.746 190.085C165.582 189.534 165.522 189.061 165.567 188.667C165.609 188.267 165.741 187.94 165.963 187.687C166.19 187.432 166.491 187.249 166.864 187.138C167.066 187.078 167.263 187.045 167.455 187.04C167.647 187.034 167.83 187.064 168.004 187.128C168.177 187.187 168.342 187.286 168.5 187.426L168.553 187.41L167.852 185.053L168.492 184.862L170.406 191.294L169.907 191.443L169.632 190.779L169.57 190.797C169.483 191.114 169.329 191.376 169.107 191.584C168.891 191.79 168.634 191.937 168.338 192.026ZM168.278 191.433C168.598 191.338 168.835 191.19 168.988 190.99C169.148 190.787 169.232 190.54 169.242 190.246C169.257 189.951 169.207 189.611 169.093 189.225L169.045 189.065C168.936 188.697 168.807 188.406 168.66 188.192C168.518 187.976 168.362 187.822 168.193 187.731C168.03 187.637 167.864 187.59 167.696 187.588C167.525 187.581 167.36 187.601 167.2 187.648C166.904 187.736 166.673 187.873 166.508 188.057C166.348 188.234 166.256 188.468 166.233 188.759C166.216 189.048 166.27 189.403 166.395 189.824L166.461 190.047C166.592 190.486 166.749 190.82 166.934 191.049C167.116 191.272 167.319 191.412 167.543 191.468C167.772 191.523 168.017 191.511 168.278 191.433ZM173.909 190.359C173.696 190.422 173.512 190.435 173.359 190.397C173.211 190.356 173.091 190.276 172.997 190.156C172.909 190.033 172.84 189.889 172.79 189.723L171.795 186.378L171.164 186.566L171.002 186.023L171.634 185.835L171.372 184.5L171.888 184.346L172.274 185.645L173.173 185.378L173.334 185.92L172.436 186.188L173.397 189.417C173.444 189.577 173.5 189.689 173.565 189.754C173.635 189.817 173.747 189.826 173.902 189.78L174.435 189.621L174.557 190.03C174.505 190.072 174.44 190.114 174.362 190.156C174.292 190.203 174.216 190.241 174.135 190.272C174.056 190.309 173.98 190.337 173.909 190.359ZM176.946 189.465C176.495 189.599 176.084 189.628 175.713 189.551C175.345 189.467 175.025 189.268 174.751 188.956C174.483 188.642 174.267 188.206 174.101 187.648C173.933 187.085 173.877 186.601 173.931 186.198C173.989 185.787 174.15 185.448 174.413 185.183C174.681 184.91 175.04 184.706 175.49 184.572C175.953 184.434 176.365 184.409 176.726 184.495C177.092 184.573 177.408 184.77 177.676 185.084C177.948 185.39 178.168 185.825 178.335 186.389C178.501 186.946 178.555 187.43 178.497 187.842C178.444 188.251 178.287 188.591 178.026 188.863C177.768 189.127 177.409 189.327 176.946 189.465ZM176.784 188.922C177.099 188.829 177.344 188.688 177.521 188.5C177.697 188.312 177.803 188.071 177.838 187.776C177.871 187.476 177.825 187.115 177.7 186.694L177.636 186.48C177.511 186.059 177.353 185.735 177.163 185.508C176.971 185.274 176.75 185.127 176.499 185.066C176.249 185.005 175.966 185.021 175.652 185.115C175.337 185.208 175.092 185.349 174.916 185.537C174.739 185.725 174.634 185.969 174.601 186.27C174.566 186.564 174.611 186.922 174.736 187.343L174.8 187.557C174.925 187.978 175.084 188.305 175.276 188.538C175.466 188.766 175.687 188.91 175.937 188.971C176.188 189.032 176.47 189.016 176.784 188.922ZM181.991 189.61C181.878 189.644 181.775 189.665 181.681 189.674C181.594 189.686 181.523 189.698 181.468 189.708L181.325 189.227L181.672 189.124C181.826 189.078 181.967 189.008 182.093 188.912C182.22 188.816 182.321 188.67 182.398 188.472C182.477 188.281 182.522 188.019 182.532 187.687L179.326 183.547L180.002 183.346L181.703 185.551C181.784 185.65 181.877 185.777 181.982 185.933C182.09 186.082 182.201 186.236 182.313 186.396C182.43 186.549 182.529 186.687 182.611 186.811L182.664 186.796C182.66 186.694 182.657 186.575 182.655 186.44C182.66 186.303 182.663 186.163 182.666 186.02C182.669 185.877 182.67 185.741 182.671 185.612C182.677 185.481 182.681 185.367 182.685 185.269L182.768 182.523L183.418 182.33L183.185 187.406C183.173 187.693 183.148 187.956 183.109 188.193C183.07 188.431 183.007 188.643 182.921 188.83C182.84 189.015 182.723 189.173 182.568 189.303C182.42 189.437 182.228 189.54 181.991 189.61ZM187.051 186.459C186.6 186.593 186.189 186.622 185.818 186.545C185.45 186.461 185.13 186.262 184.856 185.95C184.588 185.636 184.372 185.2 184.206 184.642C184.038 184.079 183.981 183.595 184.036 183.192C184.094 182.781 184.255 182.442 184.518 182.177C184.785 181.904 185.144 181.7 185.595 181.566C186.058 181.428 186.47 181.403 186.831 181.489C187.197 181.567 187.513 181.764 187.781 182.078C188.053 182.384 188.273 182.819 188.44 183.383C188.606 183.94 188.66 184.424 188.601 184.836C188.549 185.245 188.392 185.586 188.131 185.857C187.873 186.121 187.513 186.321 187.051 186.459ZM186.889 185.916C187.204 185.823 187.449 185.682 187.626 185.494C187.802 185.306 187.908 185.065 187.943 184.77C187.976 184.47 187.93 184.109 187.805 183.688L187.741 183.474C187.616 183.053 187.458 182.729 187.268 182.502C187.076 182.268 186.855 182.121 186.604 182.06C186.353 181.999 186.071 182.015 185.757 182.109C185.442 182.202 185.197 182.343 185.02 182.531C184.844 182.719 184.739 182.963 184.706 183.264C184.671 183.558 184.716 183.916 184.841 184.337L184.905 184.551C185.03 184.972 185.189 185.299 185.381 185.532C185.571 185.76 185.791 185.904 186.042 185.965C186.293 186.026 186.575 186.01 186.889 185.916ZM191.229 185.216C190.784 185.348 190.392 185.342 190.052 185.198C189.712 185.054 189.458 184.7 189.291 184.137L188.32 180.872L188.96 180.681L189.913 183.884C189.975 184.091 190.052 184.253 190.144 184.367C190.236 184.482 190.341 184.564 190.459 184.612C190.575 184.655 190.7 184.673 190.833 184.666C190.972 184.657 191.116 184.63 191.264 184.586C191.501 184.515 191.707 184.393 191.881 184.218C192.059 184.036 192.182 183.819 192.249 183.567C192.314 183.308 192.302 183.028 192.212 182.726L191.389 179.959L192.029 179.768L193.421 184.448L192.923 184.596L192.632 183.879L192.57 183.897C192.503 184.15 192.405 184.363 192.276 184.537C192.151 184.703 191.999 184.842 191.819 184.953C191.645 185.063 191.448 185.151 191.229 185.216ZM194.317 184.181L192.925 179.502L193.441 179.348L193.728 180.115L193.79 180.097C193.789 179.942 193.81 179.784 193.852 179.623C193.895 179.462 193.974 179.316 194.09 179.184C194.206 179.053 194.373 178.955 194.593 178.889C194.676 178.865 194.756 178.851 194.832 178.847C194.907 178.838 194.964 178.834 195.003 178.835L195.177 179.422L194.902 179.504C194.694 179.566 194.528 179.658 194.402 179.779C194.275 179.894 194.185 180.034 194.13 180.199C194.076 180.363 194.051 180.542 194.057 180.734C194.067 180.918 194.1 181.105 194.156 181.295L194.958 183.991L194.317 184.181ZM198.616 184.578L196.766 178.359L197.273 178.208L197.548 178.872L197.61 178.854C197.697 178.537 197.846 178.277 198.056 178.072C198.266 177.868 198.528 177.719 198.843 177.625C199.234 177.509 199.592 177.496 199.916 177.587C200.246 177.676 200.537 177.883 200.788 178.208C201.044 178.526 201.259 178.979 201.434 179.566C201.596 180.111 201.656 180.584 201.614 180.984C201.572 181.384 201.437 181.711 201.209 181.966C200.987 182.22 200.69 182.402 200.316 182.513C200.126 182.569 199.935 182.6 199.743 182.606C199.551 182.611 199.365 182.583 199.185 182.52C199.005 182.457 198.837 182.359 198.681 182.225L198.619 182.243L199.256 184.387L198.616 184.578ZM199.98 182.003C200.277 181.914 200.505 181.782 200.666 181.605C200.83 181.421 200.921 181.184 200.939 180.894C200.962 180.604 200.912 180.25 200.788 179.835L200.722 179.613C200.59 179.168 200.432 178.834 200.25 178.611C200.065 178.382 199.858 178.24 199.629 178.185C199.406 178.129 199.164 178.14 198.903 178.217C198.582 178.313 198.343 178.461 198.183 178.664C198.022 178.86 197.935 179.109 197.921 179.41C197.912 179.703 197.965 180.046 198.081 180.437L198.126 180.588C198.236 180.956 198.364 181.247 198.512 181.461C198.66 181.676 198.815 181.83 198.979 181.923C199.142 182.016 199.309 182.067 199.479 182.074C199.653 182.074 199.82 182.05 199.98 182.003ZM202.737 181.676L201.345 176.997L201.861 176.844L202.147 177.611L202.209 177.592C202.209 177.437 202.229 177.279 202.272 177.118C202.314 176.957 202.393 176.811 202.509 176.68C202.625 176.548 202.793 176.45 203.012 176.385C203.095 176.36 203.175 176.346 203.252 176.343C203.326 176.333 203.383 176.329 203.422 176.331L203.597 176.918L203.321 177C203.114 177.062 202.947 177.153 202.822 177.274C202.695 177.39 202.604 177.53 202.55 177.694C202.495 177.859 202.471 178.037 202.476 178.229C202.486 178.414 202.519 178.601 202.576 178.79L203.377 181.486L202.737 181.676ZM206.955 180.538C206.511 180.67 206.108 180.696 205.749 180.616C205.387 180.53 205.073 180.33 204.805 180.015C204.537 179.701 204.321 179.265 204.155 178.708C203.987 178.145 203.93 177.661 203.985 177.258C204.037 176.848 204.195 176.511 204.458 176.245C204.72 175.974 205.085 175.768 205.553 175.629C205.986 175.5 206.373 175.479 206.715 175.564C207.063 175.648 207.359 175.831 207.605 176.113C207.856 176.393 208.052 176.771 208.193 177.245L208.315 177.654L204.872 178.678C204.994 179.088 205.15 179.406 205.34 179.633C205.531 179.861 205.747 180.003 205.99 180.06C206.237 180.109 206.515 180.088 206.823 179.996C207.049 179.929 207.236 179.841 207.384 179.732C207.538 179.622 207.654 179.5 207.731 179.368C207.812 179.228 207.86 179.077 207.877 178.917C207.894 178.757 207.88 178.6 207.834 178.446L208.457 178.261C208.526 178.492 208.546 178.725 208.519 178.959C208.496 179.185 208.425 179.4 208.304 179.604C208.19 179.806 208.022 179.988 207.799 180.151C207.575 180.308 207.293 180.437 206.955 180.538ZM204.721 178.171L207.497 177.346C207.409 177.049 207.3 176.814 207.171 176.639C207.045 176.457 206.906 176.324 206.752 176.241C206.596 176.151 206.427 176.105 206.246 176.101C206.07 176.095 205.881 176.122 205.679 176.182C205.388 176.269 205.156 176.399 204.982 176.574C204.806 176.742 204.696 176.959 204.652 177.224C204.615 177.487 204.638 177.803 204.721 178.171ZM210.829 179.269L207.702 175.106L208.378 174.905L210.005 177.084C210.082 177.19 210.172 177.321 210.277 177.477C210.385 177.626 210.492 177.778 210.597 177.934C210.707 178.089 210.803 178.225 210.883 178.343L210.927 178.33C210.93 178.187 210.933 178.025 210.937 177.843C210.946 177.653 210.954 177.463 210.962 177.274C210.97 177.084 210.977 176.924 210.983 176.793L211.145 174.082L211.795 173.888L211.452 179.084L210.829 179.269ZM211.928 172.803L211.693 172.011L212.333 171.821L212.569 172.612L211.928 172.803ZM213.606 178.443L212.214 173.764L212.855 173.573L214.247 178.253L213.606 178.443ZM217.026 177.542C216.576 177.676 216.165 177.705 215.793 177.628C215.426 177.543 215.105 177.345 214.832 177.033C214.564 176.719 214.347 176.283 214.181 175.725C214.014 175.162 213.957 174.678 214.011 174.275C214.07 173.864 214.231 173.525 214.494 173.26C214.761 172.987 215.12 172.783 215.571 172.649C216.034 172.511 216.446 172.486 216.807 172.572C217.172 172.65 217.489 172.847 217.757 173.161C218.029 173.467 218.248 173.902 218.416 174.466C218.582 175.023 218.636 175.507 218.577 175.919C218.525 176.328 218.368 176.668 218.106 176.94C217.849 177.204 217.489 177.404 217.026 177.542ZM216.865 176.999C217.179 176.906 217.425 176.765 217.601 176.577C217.778 176.389 217.883 176.147 217.919 175.853C217.952 175.553 217.906 175.192 217.781 174.771L217.717 174.557C217.592 174.136 217.434 173.812 217.244 173.584C217.052 173.351 216.83 173.204 216.58 173.143C216.329 173.082 216.047 173.098 215.732 173.192C215.418 173.285 215.173 173.426 214.996 173.614C214.82 173.802 214.715 174.046 214.682 174.347C214.647 174.641 214.692 174.999 214.817 175.42L214.88 175.633C215.006 176.055 215.164 176.382 215.356 176.615C215.547 176.843 215.767 176.987 216.018 177.048C216.268 177.109 216.551 177.093 216.865 176.999ZM221.205 176.299C220.76 176.431 220.368 176.425 220.028 176.281C219.688 176.137 219.434 175.783 219.267 175.22L218.295 171.955L218.936 171.764L219.889 174.967C219.95 175.174 220.027 175.335 220.119 175.45C220.212 175.565 220.317 175.646 220.434 175.695C220.551 175.738 220.675 175.756 220.809 175.749C220.948 175.739 221.092 175.713 221.24 175.669C221.477 175.598 221.683 175.476 221.857 175.301C222.035 175.119 222.158 174.902 222.225 174.649C222.29 174.391 222.277 174.111 222.188 173.808L221.364 171.042L222.005 170.851L223.397 175.531L222.899 175.679L222.608 174.961L222.546 174.98C222.479 175.232 222.381 175.445 222.252 175.619C222.127 175.786 221.975 175.925 221.795 176.036C221.621 176.146 221.424 176.234 221.205 176.299ZM225.882 174.908C225.573 174.999 225.291 175.048 225.034 175.053C224.779 175.064 224.554 175.035 224.359 174.964C224.168 174.885 224.005 174.772 223.871 174.625C223.742 174.476 223.645 174.288 223.578 174.063C223.571 174.039 223.564 174.016 223.556 173.992C223.548 173.962 223.543 173.935 223.542 173.909L224.173 173.721C224.176 173.753 224.181 173.78 224.188 173.804C224.193 173.822 224.199 173.84 224.204 173.857C224.279 174.087 224.389 174.251 224.534 174.35C224.678 174.442 224.856 174.486 225.068 174.482C225.279 174.477 225.512 174.436 225.767 174.361C225.987 174.295 226.174 174.207 226.328 174.097C226.487 173.979 226.599 173.845 226.664 173.697C226.736 173.546 226.746 173.385 226.695 173.213C226.629 172.994 226.512 172.848 226.342 172.776C226.178 172.702 225.98 172.667 225.749 172.671C225.516 172.67 225.274 172.668 225.021 172.665C224.815 172.668 224.612 172.668 224.41 172.663C224.207 172.652 224.014 172.623 223.832 172.574C223.655 172.523 223.5 172.437 223.367 172.315C223.234 172.193 223.134 172.019 223.067 171.794C223.009 171.598 222.996 171.412 223.027 171.235C223.064 171.056 223.141 170.891 223.257 170.74C223.378 170.581 223.539 170.44 223.741 170.315C223.943 170.191 224.183 170.087 224.462 170.004C224.77 169.912 225.045 169.869 225.285 169.875C225.526 169.881 225.733 169.926 225.906 170.01C226.078 170.088 226.22 170.195 226.331 170.329C226.44 170.458 226.519 170.606 226.569 170.772C226.576 170.795 226.581 170.823 226.584 170.854C226.593 170.884 226.6 170.911 226.607 170.934L225.976 171.122L225.941 171.007C225.904 170.882 225.836 170.77 225.735 170.671C225.641 170.57 225.501 170.502 225.316 170.467C225.137 170.429 224.893 170.457 224.585 170.548C224.401 170.603 224.246 170.669 224.12 170.745C223.999 170.813 223.899 170.891 223.822 170.979C223.751 171.064 223.705 171.159 223.684 171.262C223.667 171.357 223.675 171.461 223.709 171.574C223.76 171.746 223.853 171.864 223.988 171.927C224.127 171.982 224.294 172.013 224.49 172.019C224.684 172.02 224.891 172.023 225.112 172.028C225.332 172.027 225.555 172.029 225.782 172.032C226.015 172.034 226.234 172.056 226.44 172.098C226.646 172.14 226.827 172.225 226.981 172.353C227.134 172.476 227.248 172.664 227.324 172.92C227.394 173.157 227.41 173.381 227.369 173.593C227.327 173.8 227.241 173.987 227.11 174.155C226.98 174.323 226.807 174.471 226.594 174.599C226.386 174.725 226.149 174.828 225.882 174.908ZM231.477 173.243C231.169 173.335 230.886 173.383 230.63 173.389C230.375 173.4 230.15 173.37 229.954 173.299C229.763 173.22 229.6 173.107 229.466 172.96C229.338 172.811 229.24 172.624 229.173 172.398C229.166 172.375 229.159 172.351 229.152 172.327C229.143 172.298 229.138 172.27 229.137 172.245L229.769 172.057C229.772 172.088 229.777 172.116 229.784 172.139C229.789 172.157 229.794 172.175 229.8 172.193C229.874 172.422 229.984 172.586 230.13 172.685C230.274 172.778 230.452 172.822 230.663 172.817C230.875 172.812 231.108 172.772 231.363 172.696C231.582 172.631 231.769 172.543 231.924 172.432C232.082 172.314 232.194 172.181 232.26 172.032C232.331 171.882 232.341 171.721 232.29 171.549C232.225 171.329 232.107 171.183 231.937 171.111C231.773 171.037 231.576 171.003 231.345 171.007C231.112 171.005 230.869 171.003 230.617 171.001C230.411 171.004 230.207 171.003 230.006 170.998C229.803 170.988 229.61 170.958 229.427 170.909C229.251 170.858 229.096 170.772 228.963 170.65C228.83 170.528 228.73 170.355 228.663 170.129C228.605 169.934 228.591 169.747 228.622 169.57C228.66 169.391 228.736 169.226 228.853 169.075C228.974 168.917 229.135 168.775 229.337 168.651C229.538 168.526 229.779 168.422 230.057 168.339C230.366 168.248 230.64 168.205 230.881 168.211C231.122 168.217 231.329 168.262 231.502 168.345C231.674 168.424 231.815 168.53 231.926 168.665C232.036 168.794 232.115 168.941 232.164 169.107C232.171 169.131 232.176 169.158 232.179 169.19C232.188 169.219 232.196 169.246 232.203 169.27L231.571 169.458L231.537 169.342C231.5 169.218 231.431 169.106 231.331 169.007C231.236 168.906 231.096 168.837 230.912 168.802C230.733 168.765 230.489 168.792 230.181 168.884C229.997 168.939 229.842 169.004 229.716 169.08C229.594 169.149 229.495 169.227 229.418 169.314C229.346 169.4 229.3 169.494 229.279 169.597C229.262 169.693 229.271 169.797 229.304 169.91C229.355 170.081 229.449 170.199 229.584 170.262C229.723 170.318 229.89 170.349 230.086 170.355C230.279 170.355 230.487 170.358 230.708 170.363C230.927 170.363 231.15 170.364 231.377 170.368C231.61 170.369 231.83 170.391 232.036 170.433C232.242 170.475 232.422 170.56 232.577 170.689C232.729 170.811 232.844 171 232.919 171.255C232.99 171.492 233.005 171.717 232.965 171.929C232.923 172.135 232.837 172.322 232.706 172.49C232.575 172.658 232.403 172.806 232.189 172.934C231.982 173.061 231.744 173.164 231.477 173.243ZM235.135 172.155C234.951 172.21 234.763 172.24 234.571 172.245C234.381 172.257 234.2 172.236 234.03 172.184C233.863 172.123 233.714 172.022 233.581 171.881C233.449 171.74 233.347 171.548 233.274 171.304C233.179 170.984 233.178 170.7 233.273 170.453C233.371 170.197 233.546 169.971 233.797 169.774C234.046 169.57 234.358 169.391 234.731 169.235C235.11 169.077 235.528 168.93 235.984 168.794L235.807 168.198C235.751 168.008 235.667 167.858 235.557 167.749C235.452 167.632 235.302 167.564 235.109 167.544C234.92 167.516 234.671 167.548 234.363 167.64C234.066 167.728 233.844 167.836 233.694 167.964C233.545 168.093 233.454 168.23 233.42 168.375C233.39 168.513 233.397 168.657 233.441 168.805L233.483 168.947L232.869 169.13C232.855 169.102 232.843 169.073 232.834 169.043C232.825 169.014 232.815 168.978 232.802 168.937C232.714 168.64 232.719 168.374 232.817 168.138C232.914 167.903 233.091 167.695 233.348 167.516C233.604 167.336 233.916 167.191 234.284 167.082C234.658 166.971 234.989 166.934 235.277 166.971C235.564 167.002 235.806 167.097 236.002 167.259C236.199 167.42 236.339 167.642 236.424 167.927L237.223 170.614C237.257 170.727 237.301 170.8 237.357 170.836C237.417 170.863 237.485 170.865 237.562 170.842L237.936 170.731L238.057 171.14C237.979 171.202 237.893 171.26 237.799 171.314C237.711 171.366 237.614 171.408 237.507 171.439C237.353 171.485 237.219 171.49 237.105 171.453C236.996 171.414 236.904 171.341 236.827 171.235C236.756 171.127 236.693 171.004 236.639 170.865L236.577 170.883C236.512 171.077 236.408 171.26 236.265 171.431C236.127 171.595 235.963 171.738 235.773 171.859C235.585 171.986 235.372 172.084 235.135 172.155ZM235.107 171.573C235.302 171.514 235.483 171.425 235.647 171.305C235.811 171.185 235.951 171.047 236.066 170.89C236.179 170.728 236.256 170.553 236.297 170.366C236.345 170.178 236.339 169.986 236.281 169.79L236.138 169.31C235.586 169.474 235.133 169.641 234.777 169.812C234.426 169.98 234.179 170.167 234.033 170.372C233.893 170.575 233.863 170.81 233.942 171.077C233.995 171.254 234.078 171.391 234.19 171.487C234.307 171.575 234.444 171.624 234.603 171.635C234.761 171.646 234.929 171.626 235.107 171.573ZM239.632 170.701L236.505 166.538L237.181 166.337L238.807 168.516C238.884 168.622 238.975 168.753 239.079 168.909C239.188 169.058 239.295 169.21 239.399 169.366C239.51 169.52 239.605 169.657 239.685 169.775L239.73 169.762C239.733 169.619 239.736 169.456 239.74 169.274C239.748 169.085 239.756 168.895 239.764 168.706C239.772 168.516 239.78 168.356 239.786 168.225L239.948 165.513L240.597 165.32L240.254 170.516L239.632 170.701ZM240.731 164.235L240.495 163.443L241.136 163.252L241.371 164.044L240.731 164.235ZM242.409 169.875L241.017 165.195L241.657 165.005L243.049 169.684L242.409 169.875ZM243.947 169.417L242.555 164.738L243.062 164.587L243.344 165.307L243.406 165.288C243.473 165.036 243.572 164.826 243.703 164.658C243.832 164.484 243.983 164.342 244.157 164.232C244.337 164.121 244.537 164.032 244.756 163.967C245.053 163.879 245.326 163.852 245.575 163.888C245.829 163.916 246.05 164.021 246.24 164.203C246.43 164.386 246.581 164.667 246.694 165.046L247.665 168.311L247.025 168.502L246.072 165.299C246.01 165.091 245.934 164.93 245.841 164.816C245.749 164.701 245.645 164.622 245.529 164.579C245.411 164.531 245.283 164.511 245.143 164.52C245.01 164.527 244.866 164.554 244.712 164.6C244.475 164.67 244.267 164.797 244.089 164.979C243.915 165.153 243.794 165.367 243.727 165.619C243.66 165.871 243.673 166.152 243.764 166.46L244.587 169.227L243.947 169.417ZM249.791 169.441C249.565 169.508 249.34 169.521 249.114 169.478C248.896 169.44 248.704 169.348 248.538 169.204C248.375 169.065 248.258 168.88 248.19 168.649C248.112 168.388 248.114 168.145 248.196 167.921C248.283 167.695 248.421 167.505 248.608 167.353C248.434 167.334 248.286 167.271 248.164 167.165C248.043 167.06 247.959 166.93 247.913 166.775C247.853 166.574 247.876 166.38 247.982 166.193C248.086 166.001 248.238 165.849 248.437 165.738C248.203 165.666 247.996 165.547 247.817 165.38C247.645 165.212 247.524 165.012 247.455 164.781C247.369 164.491 247.361 164.215 247.432 163.955C247.502 163.689 247.654 163.453 247.89 163.248C248.13 163.034 248.457 162.866 248.873 162.742C249.068 162.684 249.254 162.645 249.429 162.625C249.609 162.604 249.777 162.602 249.931 162.621C250.115 162.482 250.243 162.325 250.313 162.149C250.382 161.967 250.407 161.782 250.39 161.594L251.031 161.403C251.074 161.571 251.08 161.743 251.049 161.921C251.018 162.098 250.95 162.26 250.845 162.407C250.741 162.555 250.598 162.671 250.417 162.757C250.613 162.854 250.774 162.981 250.898 163.137C251.022 163.294 251.114 163.473 251.174 163.675C251.257 163.954 251.264 164.226 251.194 164.492C251.129 164.75 250.979 164.985 250.745 165.197C250.517 165.407 250.193 165.574 249.772 165.699L249.033 165.919C248.855 165.972 248.721 166.051 248.629 166.156C248.536 166.254 248.513 166.384 248.561 166.544C248.601 166.68 248.692 166.769 248.834 166.811C248.975 166.853 249.135 166.848 249.313 166.795L251.146 166.249C251.49 166.147 251.803 166.18 252.085 166.348C252.373 166.514 252.57 166.772 252.674 167.122C252.748 167.371 252.753 167.614 252.688 167.853C252.625 168.098 252.502 168.312 252.318 168.496C252.139 168.678 251.905 168.812 251.614 168.899L249.791 169.441ZM249.782 168.892L251.446 168.397C251.6 168.351 251.73 168.277 251.835 168.175C251.94 168.073 252.01 167.951 252.046 167.812C252.09 167.676 252.092 167.543 252.053 167.413C251.986 167.187 251.867 167.026 251.696 166.928C251.525 166.831 251.342 166.811 251.146 166.869L249.34 167.406C249.138 167.466 248.986 167.592 248.881 167.785C248.775 167.971 248.753 168.168 248.815 168.376C248.882 168.601 249.006 168.758 249.187 168.846C249.376 168.938 249.574 168.954 249.782 168.892ZM249.603 165.198C250.018 165.074 250.298 164.897 250.443 164.667C250.591 164.429 250.622 164.162 250.533 163.865C250.443 163.563 250.272 163.356 250.019 163.244C249.771 163.124 249.439 163.126 249.023 163.249C248.62 163.369 248.344 163.548 248.195 163.786C248.045 164.018 248.015 164.285 248.105 164.588C248.159 164.772 248.253 164.925 248.386 165.046C248.519 165.168 248.687 165.244 248.89 165.274C249.098 165.303 249.336 165.277 249.603 165.198ZM254.545 166.381C254.237 166.472 253.954 166.521 253.698 166.526C253.443 166.538 253.218 166.508 253.022 166.437C252.831 166.358 252.668 166.245 252.534 166.098C252.406 165.949 252.308 165.762 252.241 165.536C252.234 165.512 252.227 165.489 252.22 165.465C252.211 165.435 252.206 165.408 252.205 165.382L252.837 165.194C252.84 165.226 252.845 165.253 252.852 165.277C252.857 165.295 252.862 165.313 252.868 165.33C252.942 165.56 253.052 165.724 253.198 165.823C253.342 165.916 253.519 165.96 253.731 165.955C253.943 165.95 254.176 165.91 254.431 165.834C254.65 165.768 254.837 165.681 254.992 165.57C255.15 165.452 255.262 165.319 255.328 165.17C255.399 165.02 255.409 164.858 255.358 164.686C255.293 164.467 255.175 164.321 255.005 164.249C254.841 164.175 254.644 164.14 254.413 164.145C254.18 164.143 253.937 164.141 253.685 164.138C253.479 164.142 253.275 164.141 253.074 164.136C252.871 164.126 252.678 164.096 252.495 164.047C252.319 163.996 252.164 163.91 252.031 163.788C251.898 163.666 251.798 163.493 251.731 163.267C251.673 163.071 251.659 162.885 251.69 162.708C251.727 162.529 251.804 162.364 251.921 162.213C252.041 162.055 252.203 161.913 252.405 161.788C252.606 161.664 252.847 161.56 253.125 161.477C253.434 161.385 253.708 161.343 253.949 161.348C254.189 161.354 254.397 161.399 254.57 161.483C254.742 161.561 254.883 161.668 254.994 161.802C255.104 161.931 255.183 162.079 255.232 162.245C255.239 162.269 255.244 162.296 255.247 162.328C255.256 162.357 255.264 162.384 255.271 162.408L254.639 162.596L254.605 162.48C254.568 162.355 254.499 162.243 254.399 162.144C254.304 162.043 254.164 161.975 253.98 161.94C253.801 161.903 253.557 161.93 253.249 162.022C253.065 162.076 252.91 162.142 252.784 162.218C252.662 162.286 252.563 162.364 252.486 162.452C252.414 162.538 252.368 162.632 252.347 162.735C252.33 162.831 252.339 162.935 252.372 163.047C252.423 163.219 252.517 163.337 252.651 163.4C252.791 163.455 252.958 163.486 253.154 163.493C253.347 163.493 253.555 163.496 253.776 163.501C253.995 163.501 254.218 163.502 254.445 163.505C254.678 163.507 254.898 163.529 255.104 163.571C255.31 163.613 255.49 163.698 255.645 163.826C255.797 163.949 255.912 164.138 255.987 164.393C256.058 164.63 256.073 164.855 256.033 165.067C255.991 165.273 255.905 165.46 255.774 165.628C255.643 165.796 255.471 165.944 255.257 166.072C255.049 166.198 254.812 166.301 254.545 166.381ZM255.318 158.917C255.997 159.309 256.575 159.809 257.052 160.416C257.535 161.021 257.886 161.688 258.103 162.417C258.318 163.141 258.388 163.888 258.314 164.659C258.244 165.422 258.033 166.154 257.679 166.853L257.27 166.974C257.411 166.538 257.519 166.077 257.594 165.59C257.674 165.101 257.704 164.605 257.684 164.101C257.661 163.591 257.578 163.096 257.435 162.616C257.291 162.13 257.089 161.67 256.831 161.237C256.572 160.797 256.274 160.392 255.937 160.021C255.607 159.648 255.264 159.321 254.909 159.039L255.318 158.917Z" fill="#7F7F7F"/>
<rect x="320.973" y="116.312" width="82.5013" height="30.9383" rx="15.4692" transform="rotate(-16.5667 320.973 116.312)" fill="#3F3F3F" fill-opacity="0.6"/>
<path d="M354.042 126.923C353.433 127.104 352.878 127.164 352.377 127.102C351.875 127.033 351.444 126.826 351.086 126.48C350.727 126.135 350.453 125.644 350.263 125.008L348.939 120.555L350.101 120.209L351.435 124.693C351.61 125.281 351.897 125.678 352.297 125.883C352.697 126.088 353.181 126.106 353.748 125.937C354.323 125.766 354.725 125.484 354.954 125.092C355.191 124.698 355.222 124.207 355.047 123.619L353.713 119.135L354.876 118.789L356.2 123.242C356.389 123.878 356.425 124.44 356.306 124.927C356.194 125.412 355.943 125.822 355.553 126.157C355.168 126.482 354.664 126.738 354.042 126.923ZM358.079 125.586L356.455 120.127L357.347 119.861L357.672 120.612L357.745 120.59C357.817 120.351 357.923 120.138 358.064 119.953C358.204 119.768 358.372 119.609 358.566 119.476C358.767 119.341 358.998 119.235 359.261 119.156C359.607 119.054 359.93 119.025 360.23 119.072C360.528 119.111 360.79 119.244 361.016 119.471C361.248 119.695 361.432 120.036 361.568 120.492L362.676 124.219L361.597 124.54L360.538 120.98C360.476 120.772 360.397 120.607 360.301 120.485C360.211 120.361 360.105 120.272 359.984 120.218C359.862 120.164 359.731 120.139 359.589 120.144C359.447 120.148 359.297 120.174 359.138 120.221C358.888 120.295 358.679 120.426 358.508 120.612C358.342 120.789 358.229 121.004 358.168 121.255C358.108 121.507 358.121 121.778 358.207 122.068L359.158 125.265L358.079 125.586ZM363.613 123.94L361.381 116.436L362.46 116.115L364.692 123.619L363.613 123.94ZM368.033 122.761C367.466 122.929 366.955 122.972 366.501 122.889C366.052 122.797 365.664 122.569 365.338 122.207C365.018 121.842 364.762 121.335 364.568 120.684C364.373 120.027 364.31 119.462 364.38 118.989C364.456 118.508 364.657 118.109 364.985 117.793C365.317 117.468 365.767 117.221 366.335 117.052C366.916 116.879 367.431 116.839 367.88 116.931C368.328 117.017 368.711 117.242 369.03 117.606C369.354 117.962 369.614 118.468 369.81 119.125C370.003 119.776 370.062 120.342 369.987 120.824C369.919 121.303 369.722 121.705 369.396 122.027C369.069 122.343 368.614 122.588 368.033 122.761ZM367.767 121.868C368.113 121.765 368.378 121.615 368.56 121.418C368.74 121.213 368.841 120.957 368.862 120.65C368.891 120.34 368.842 119.974 368.717 119.552L368.661 119.365C368.535 118.943 368.376 118.61 368.183 118.366C367.997 118.121 367.774 117.965 367.513 117.899C367.251 117.827 366.946 117.842 366.6 117.945C366.261 118.046 366.002 118.198 365.821 118.402C365.639 118.6 365.534 118.853 365.505 119.163C365.484 119.471 365.536 119.836 365.662 120.258L365.717 120.444C365.843 120.867 365.999 121.201 366.185 121.446C366.378 121.69 366.605 121.848 366.868 121.921C367.129 121.987 367.428 121.969 367.767 121.868ZM373.513 121.13C372.966 121.293 372.48 121.329 372.054 121.237C371.625 121.138 371.255 120.906 370.942 120.539C370.637 120.171 370.387 119.661 370.194 119.011C370 118.361 369.935 117.8 369.999 117.329C370.06 116.852 370.243 116.455 370.548 116.138C370.86 115.819 371.286 115.579 371.825 115.419C372.199 115.308 372.539 115.259 372.844 115.274C373.148 115.282 373.424 115.35 373.673 115.479C373.921 115.601 374.129 115.784 374.3 116.027C374.477 116.268 374.617 116.562 374.72 116.908L373.63 117.232C373.544 116.941 373.431 116.715 373.292 116.553C373.154 116.391 372.985 116.29 372.785 116.252C372.583 116.207 372.344 116.225 372.067 116.307C371.776 116.394 371.551 116.536 371.392 116.734C371.23 116.925 371.139 117.175 371.117 117.482C371.094 117.783 371.148 118.155 371.28 118.598L371.332 118.774C371.458 119.196 371.611 119.535 371.792 119.79C371.979 120.035 372.193 120.198 372.434 120.276C372.681 120.346 372.964 120.334 373.282 120.239C373.559 120.157 373.766 120.042 373.903 119.896C374.045 119.741 374.13 119.557 374.157 119.346C374.189 119.125 374.166 118.88 374.085 118.61L375.134 118.299C375.23 118.624 375.269 118.932 375.251 119.224C375.239 119.514 375.165 119.784 375.029 120.036C374.898 120.278 374.706 120.493 374.453 120.681C374.2 120.87 373.887 121.019 373.513 121.13ZM376.416 120.131L374.183 112.627L375.263 112.306L376.612 116.842L378.019 113.712L379.296 113.332L378.078 115.999L381.024 118.761L379.778 119.131L377.618 116.995L376.995 118.129L377.495 119.81L376.416 120.131Z" fill="#F1F1F1"/>
<rect x="405.98" y="91.0244" width="73.5013" height="30.9383" rx="15.4692" transform="rotate(-16.5667 405.98 91.0244)" fill="white" fill-opacity="0.9"/>
<rect x="406.461" y="91.2848" width="72.7279" height="30.1649" rx="15.0824" transform="rotate(-16.5667 406.461 91.2848)" stroke="white" stroke-opacity="0.02" stroke-width="0.773459"/>
<path d="M438.769 101.718C438.381 101.833 437.995 101.903 437.611 101.927C437.228 101.958 436.873 101.928 436.545 101.837C436.214 101.74 435.929 101.58 435.69 101.357C435.449 101.128 435.271 100.823 435.158 100.442C435.146 100.401 435.134 100.363 435.124 100.328C435.119 100.285 435.112 100.249 435.104 100.221L436.266 99.8755C436.272 99.8962 436.278 99.9284 436.283 99.972C436.296 100.013 436.306 100.048 436.314 100.076C436.39 100.332 436.531 100.527 436.737 100.662C436.943 100.796 437.194 100.868 437.491 100.878C437.794 100.886 438.122 100.837 438.475 100.732C438.669 100.674 438.853 100.609 439.026 100.534C439.198 100.453 439.349 100.367 439.48 100.275C439.616 100.174 439.728 100.069 439.816 99.9604C439.902 99.8445 439.96 99.7219 439.989 99.5926C440.018 99.4634 440.012 99.3261 439.968 99.1808C439.902 98.9594 439.782 98.7956 439.607 98.6894C439.44 98.5811 439.231 98.5115 438.98 98.4805C438.737 98.4474 438.466 98.434 438.166 98.4402C437.874 98.4444 437.571 98.4517 437.258 98.462C436.944 98.4723 436.634 98.4668 436.326 98.4453C436.026 98.4218 435.743 98.3703 435.478 98.2909C435.219 98.2025 434.99 98.0671 434.793 97.8848C434.6 97.6935 434.456 97.4353 434.359 97.1101C434.266 96.7987 434.25 96.5024 434.309 96.2211C434.368 95.9398 434.499 95.6826 434.701 95.4493C434.9 95.2091 435.161 94.9961 435.482 94.8101C435.803 94.6242 436.182 94.4664 436.618 94.3367C436.992 94.2256 437.357 94.1621 437.714 94.1463C438.068 94.1236 438.395 94.1583 438.694 94.2502C438.992 94.3422 439.249 94.4956 439.463 94.7104C439.685 94.9232 439.848 95.2061 439.953 95.559L439.99 95.6835L438.838 96.0262L438.798 95.8913C438.732 95.6699 438.61 95.5026 438.434 95.3895C438.257 95.2764 438.039 95.2133 437.779 95.2002C437.519 95.1872 437.233 95.227 436.922 95.3196C436.555 95.4287 436.258 95.5584 436.032 95.7086C435.803 95.8519 435.643 96.0088 435.551 96.1794C435.463 96.341 435.446 96.5117 435.5 96.6916C435.559 96.8923 435.674 97.0388 435.845 97.1311C436.014 97.2166 436.218 97.2724 436.46 97.2985C436.708 97.3226 436.978 97.3326 437.271 97.3284C437.568 97.3153 437.871 97.308 438.179 97.3066C438.493 97.2963 438.8 97.3029 439.1 97.3264C439.408 97.3479 439.692 97.4028 439.951 97.4912C440.218 97.5776 440.451 97.7154 440.651 97.9046C440.848 98.0869 440.995 98.3407 441.092 98.6659C441.244 99.1779 441.241 99.6346 441.081 100.036C440.92 100.43 440.636 100.767 440.229 101.046C439.83 101.323 439.343 101.547 438.769 101.718ZM443.905 100.19C443.732 100.241 443.539 100.276 443.326 100.294C443.113 100.313 442.9 100.293 442.688 100.236C442.482 100.177 442.295 100.067 442.126 99.9059C441.956 99.7381 441.823 99.4951 441.729 99.1768C441.617 98.8032 441.612 98.4696 441.713 98.1759C441.814 97.8823 442 97.62 442.27 97.389C442.54 97.1579 442.882 96.951 443.294 96.768C443.714 96.583 444.179 96.4143 444.691 96.262L444.531 95.7223C444.477 95.5424 444.399 95.3925 444.295 95.2726C444.199 95.1507 444.06 95.0754 443.878 95.0466C443.703 95.0158 443.47 95.0436 443.18 95.13C442.889 95.2165 442.672 95.3224 442.529 95.448C442.39 95.5645 442.303 95.6884 442.266 95.8197C442.235 95.942 442.238 96.0654 442.275 96.19L442.321 96.3457L441.283 96.6544C441.266 96.6219 441.252 96.5883 441.242 96.5537C441.232 96.5191 441.219 96.4776 441.205 96.4292C441.108 96.104 441.117 95.8039 441.231 95.529C441.35 95.2451 441.558 94.9949 441.855 94.7785C442.152 94.562 442.519 94.389 442.955 94.2593C443.425 94.1193 443.837 94.0722 444.189 94.118C444.546 94.1548 444.842 94.274 445.075 94.4758C445.308 94.6775 445.477 94.9549 445.582 95.3077L446.407 98.0789C446.446 98.2104 446.505 98.2945 446.584 98.3314C446.669 98.3661 446.757 98.3701 446.847 98.3434L447.221 98.2322L447.437 98.9588C447.364 99.018 447.27 99.0835 447.156 99.1552C447.042 99.2268 446.902 99.2873 446.736 99.3367C446.549 99.3923 446.379 99.4051 446.227 99.375C446.084 99.3498 445.954 99.2907 445.836 99.1977C445.723 99.0958 445.63 98.9729 445.557 98.8289L445.494 98.8474C445.417 99.0436 445.307 99.2308 445.164 99.4088C445.026 99.5779 444.852 99.7275 444.643 99.8577C444.435 99.9949 444.189 100.106 443.905 100.19ZM443.941 99.2079C444.155 99.1441 444.343 99.0543 444.505 98.9385C444.671 98.8137 444.802 98.673 444.899 98.5162C444.993 98.3526 445.054 98.1764 445.08 97.9877C445.105 97.7921 445.088 97.5939 445.028 97.3933L444.92 97.03C444.442 97.172 444.032 97.3242 443.689 97.4866C443.345 97.649 443.096 97.8362 442.941 98.0481C442.783 98.2531 442.744 98.487 442.822 98.75C442.869 98.9091 442.944 99.0338 443.046 99.1239C443.146 99.2071 443.273 99.2558 443.428 99.27C443.583 99.2842 443.754 99.2635 443.941 99.2079ZM449.201 98.4791L445.553 93.6218L446.684 93.2853L448.404 95.6094C448.482 95.7216 448.583 95.8688 448.705 96.0509C448.825 96.2262 448.947 96.4083 449.071 96.5973C449.195 96.7864 449.306 96.9567 449.403 97.1084L449.455 97.093C449.449 96.9215 449.444 96.7272 449.44 96.51C449.441 96.2839 449.442 96.0613 449.445 95.8421C449.447 95.6229 449.453 95.4404 449.463 95.2945L449.622 92.4115L450.722 92.0843L450.312 98.1487L449.201 98.4791ZM454.995 96.8911C454.435 97.0578 453.934 97.0974 453.494 97.01C453.059 96.9136 452.681 96.6831 452.362 96.3187C452.043 95.9542 451.786 95.4468 451.593 94.7964C451.397 94.1391 451.335 93.574 451.405 93.1012C451.473 92.6215 451.667 92.2247 451.988 91.9108C452.307 91.5901 452.75 91.3453 453.318 91.1765C453.837 91.0221 454.299 90.9938 454.705 91.0915C455.115 91.1803 455.47 91.3986 455.769 91.7464C456.069 92.0942 456.309 92.5725 456.49 93.1814L456.613 93.5966L452.784 94.7359C452.913 95.1192 453.068 95.427 453.25 95.659C453.43 95.8842 453.642 96.0281 453.887 96.0909C454.137 96.1447 454.424 96.1233 454.749 96.0265C454.95 95.9668 455.122 95.8891 455.267 95.7933C455.41 95.6906 455.522 95.5744 455.604 95.4446C455.684 95.3079 455.734 95.161 455.755 95.0041C455.775 94.8403 455.757 94.6684 455.704 94.4885L456.762 94.1736C456.859 94.4988 456.889 94.8024 456.853 95.0845C456.816 95.3665 456.716 95.6259 456.553 95.8627C456.395 96.0905 456.184 96.2926 455.92 96.469C455.656 96.6454 455.348 96.7861 454.995 96.8911ZM452.57 93.9409L455.247 93.1443C455.167 92.8745 455.069 92.6589 454.953 92.4975C454.842 92.3271 454.714 92.1996 454.568 92.1149C454.423 92.0302 454.266 91.9863 454.1 91.9832C453.931 91.9731 453.75 91.9969 453.556 92.0545C453.266 92.1409 453.032 92.2669 452.855 92.4325C452.685 92.596 452.578 92.8049 452.533 93.0592C452.486 93.3067 452.499 93.6006 452.57 93.9409Z" fill="#010104"/>
</g>
<path d="M69.1338 143.336C67.7331 138.627 70.4147 133.675 75.1232 132.274L469.701 14.8953C474.41 13.4946 479.362 16.1761 480.763 20.8846L505.32 103.435C506.721 108.144 504.039 113.096 499.331 114.497L104.753 231.876C100.044 233.277 95.0917 230.595 93.691 225.887L69.1338 143.336Z" stroke="#54F5FF" stroke-opacity="0.61" stroke-width="0.773459" shape-rendering="crispEdges"/>
</g>
<defs>
<filter id="filter0_d_1431_36795" x="-1.79296" y="-1.88963" width="510.13" height="256.737" filterUnits="userSpaceOnUse" color-interpolation-filters="sRGB">
<feFlood flood-opacity="0" result="BackgroundImageFix"/>
<feColorMatrix in="SourceAlpha" type="matrix" values="0 0 0 0 0 0 0 0 0 0 0 0 0 0 0 0 0 0 127 0" result="hardAlpha"/>
<feOffset dx="-51.0483" dy="3.09383"/>
<feGaussianBlur stdDeviation="8.4307"/>
<feComposite in2="hardAlpha" operator="out"/>
<feColorMatrix type="matrix" values="0 0 0 0 0.0230559 0 0 0 0 0.671989 0 0 0 0 0.542202 0 0 0 1 0"/>
<feBlend mode="normal" in2="BackgroundImageFix" result="effect1_dropShadow_1431_36795"/>
<feBlend mode="normal" in="SourceGraphic" in2="effect1_dropShadow_1431_36795" result="shape"/>
</filter>
<clipPath id="clip0_1431_36795">
<path d="M68.7631 143.446C67.3016 138.533 70.0997 133.365 75.0129 131.903L469.591 14.5246C474.504 13.063 479.672 15.8611 481.134 20.7744L505.691 103.325C507.152 108.238 504.354 113.406 499.441 114.868L104.863 232.247C99.9497 233.708 94.7819 230.91 93.3203 225.997L68.7631 143.446Z" fill="white"/>
</clipPath>
</defs>
</svg>
