<svg width="284" height="279" viewBox="0 0 284 279" fill="none" xmlns="http://www.w3.org/2000/svg">
<mask id="mask0_471_27828" style="mask-type:alpha" maskUnits="userSpaceOnUse" x="85" y="25" width="98" height="230">
<rect width="229.187" height="96.7679" transform="matrix(-1.04585e-07 -1 -1 1.04585e-07 182.583 254.988)" fill="url(#paint0_linear_471_27828)"/>
</mask>
<g mask="url(#mask0_471_27828)">
<ellipse cx="85.5766" cy="86.3712" rx="85.5766" ry="86.3712" transform="matrix(0.382683 -0.92388 0.382644 0.923896 68.3228 139.494)" stroke="#79E7BA" stroke-width="0.848841" stroke-linecap="round" stroke-dasharray="0.08 5.09"/>
</g>
<mask id="mask1_471_27828" style="mask-type:alpha" maskUnits="userSpaceOnUse" x="98" y="35" width="88" height="206">
<rect width="205.42" height="86.5818" transform="matrix(-1.04585e-07 -1 -1 1.04585e-07 185.132 240.557)" fill="url(#paint1_linear_471_27828)"/>
</mask>
<g mask="url(#mask1_471_27828)">
<ellipse cx="76.9711" cy="77.6858" rx="76.9711" ry="77.6858" transform="matrix(0.382683 -0.92388 0.382644 0.923896 82.6187 137.607)" stroke="#79E7BA" stroke-width="0.848841" stroke-linecap="round" stroke-dasharray="8.49 7.64"/>
</g>
<mask id="mask2_471_27828" style="mask-type:alpha" maskUnits="userSpaceOnUse" x="93" y="24" width="99" height="235">
<rect width="234.28" height="98.4656" transform="matrix(-1.04585e-07 -1 -1 1.04585e-07 191.922 258.383)" fill="url(#paint2_linear_471_27828)"/>
</mask>
<g mask="url(#mask2_471_27828)">
<ellipse cx="86.8653" cy="87.672" rx="86.8653" ry="87.672" transform="matrix(0.382683 -0.92388 0.382644 0.923896 76.561 140.422)" stroke="#79E7BA" stroke-width="1.69768" stroke-linecap="round" stroke-dasharray="0.08 7.64"/>
</g>
<mask id="mask3_471_27828" style="mask-type:alpha" maskUnits="userSpaceOnUse" x="103" y="27" width="96" height="228">
<rect width="227.489" height="95.0702" transform="matrix(-1.04585e-07 -1 -1 1.04585e-07 198.713 254.988)" fill="url(#paint3_linear_471_27828)"/>
</mask>
<g mask="url(#mask3_471_27828)">
<ellipse cx="81.8851" cy="82.6455" rx="81.8851" ry="82.6455" transform="matrix(0.382683 -0.92388 0.382644 0.923896 88.3667 140.762)" stroke="#79E7BA" stroke-width="2.54652" stroke-linecap="round" stroke-dasharray="0.08 10.19"/>
</g>
<mask id="mask4_471_27828" style="mask-type:alpha" maskUnits="userSpaceOnUse" x="28" y="88" width="229" height="96">
<rect width="227.489" height="95.0702" transform="matrix(-1 1.04585e-07 1.04585e-07 1 256.36 88.459)" fill="url(#paint4_linear_471_27828)"/>
</mask>
<g mask="url(#mask4_471_27828)">
<ellipse cx="78.254" cy="78.9807" rx="78.254" ry="78.9807" transform="matrix(-0.92388 -0.382683 0.923896 -0.382644 142.059 196.094)" stroke="#79E7BA" stroke-width="0.848841" stroke-linecap="round" stroke-dasharray="8.49 11.88"/>
</g>
<mask id="mask5_471_27828" style="mask-type:alpha" maskUnits="userSpaceOnUse" x="28" y="79" width="229" height="96">
<rect width="227.489" height="95.0702" transform="matrix(-1 1.04585e-07 1.04585e-07 1 256.36 79.1211)" fill="url(#paint5_linear_471_27828)"/>
</mask>
<g mask="url(#mask5_471_27828)">
<ellipse cx="82.8228" cy="83.5919" rx="82.8228" ry="83.5919" transform="matrix(-0.92388 -0.382683 0.923896 -0.382644 142.02 190.002)" stroke="#79E7BA" stroke-width="2.54652" stroke-linecap="round" stroke-dasharray="0.08 10.19"/>
</g>
<mask id="mask6_471_27828" style="mask-type:alpha" maskUnits="userSpaceOnUse" x="28" y="102" width="229" height="96">
<rect width="227.489" height="95.0702" transform="matrix(-1 1.04585e-07 1.04585e-07 1 256.36 102.039)" fill="url(#paint6_linear_471_27828)"/>
</mask>
<g mask="url(#mask6_471_27828)">
<ellipse cx="81.8851" cy="82.6455" rx="81.8851" ry="82.6455" transform="matrix(-0.92388 -0.382683 0.923896 -0.382644 141.936 212.859)" stroke="#79E7BA" stroke-width="2.54652" stroke-linecap="round" stroke-dasharray="0.08 10.19"/>
</g>
<defs>
<linearGradient id="paint0_linear_471_27828" x1="114.594" y1="0" x2="114.594" y2="96.7679" gradientUnits="userSpaceOnUse">
<stop stop-color="#D9D9D9" stop-opacity="0"/>
<stop offset="1" stop-color="#D9D9D9"/>
</linearGradient>
<linearGradient id="paint1_linear_471_27828" x1="102.71" y1="0" x2="102.71" y2="86.5818" gradientUnits="userSpaceOnUse">
<stop stop-color="#D9D9D9" stop-opacity="0"/>
<stop offset="1" stop-color="#D9D9D9"/>
</linearGradient>
<linearGradient id="paint2_linear_471_27828" x1="117.14" y1="0" x2="117.14" y2="98.4656" gradientUnits="userSpaceOnUse">
<stop stop-color="#D9D9D9" stop-opacity="0"/>
<stop offset="1" stop-color="#D9D9D9"/>
</linearGradient>
<linearGradient id="paint3_linear_471_27828" x1="113.745" y1="0" x2="113.745" y2="95.0702" gradientUnits="userSpaceOnUse">
<stop stop-color="#D9D9D9" stop-opacity="0"/>
<stop offset="1" stop-color="#D9D9D9"/>
</linearGradient>
<linearGradient id="paint4_linear_471_27828" x1="113.745" y1="0" x2="113.745" y2="95.0702" gradientUnits="userSpaceOnUse">
<stop stop-color="#D9D9D9" stop-opacity="0"/>
<stop offset="1" stop-color="#D9D9D9"/>
</linearGradient>
<linearGradient id="paint5_linear_471_27828" x1="113.745" y1="0" x2="113.745" y2="95.0702" gradientUnits="userSpaceOnUse">
<stop stop-color="#D9D9D9" stop-opacity="0"/>
<stop offset="1" stop-color="#D9D9D9"/>
</linearGradient>
<linearGradient id="paint6_linear_471_27828" x1="113.745" y1="0" x2="113.745" y2="95.0702" gradientUnits="userSpaceOnUse">
<stop stop-color="#D9D9D9" stop-opacity="0"/>
<stop offset="1" stop-color="#D9D9D9"/>
</linearGradient>
</defs>
</svg>
