<svg width="300" height="40" viewBox="0 0 300 40" fill="none" xmlns="http://www.w3.org/2000/svg">
<rect width="300" height="40" fill="#010104"/>
<path d="M99.4653 18.2957H89.8878C89.7146 18.2957 89.5742 18.5216 89.5742 18.8004V21.1965C89.5742 21.4753 89.7146 21.7013 89.8878 21.7013H99.4653C99.6385 21.7013 99.7788 21.4753 99.7788 21.1965V18.8004C99.7788 18.5216 99.6385 18.2957 99.4653 18.2957Z" fill="#79E7BA"/>
<path d="M99.3998 14.4813L89.93 13.0488C89.7588 13.0229 89.5862 13.2254 89.5445 13.501L89.1861 15.8702C89.1444 16.1458 89.2494 16.3902 89.4206 16.4161L98.8904 17.8486C99.0617 17.8745 99.2343 17.6721 99.276 17.3965L99.6343 15.0273C99.676 14.7517 99.571 14.5072 99.3998 14.4813Z" fill="#79E7BA"/>
<path d="M89.4199 23.5839L98.8897 22.1514C99.0609 22.1255 99.2335 22.328 99.2752 22.6036L99.6336 24.9728C99.6753 25.2484 99.5703 25.4928 99.3991 25.5187L89.9293 26.9512C89.758 26.9771 89.5854 26.7747 89.5438 26.4991L89.1854 24.1299C89.1437 23.8543 89.2487 23.6098 89.4199 23.5839Z" fill="#79E7BA"/>
<path d="M111.698 18.537H109.865C109.812 18.2357 109.715 17.969 109.575 17.7344C109.435 17.5021 109.26 17.302 109.051 17.1388C108.841 16.9755 108.605 16.8536 108.338 16.7708C108.071 16.6857 107.786 16.6443 107.478 16.6443C106.933 16.6443 106.45 16.78 106.026 17.0536C105.606 17.3273 105.277 17.7252 105.038 18.2496C104.798 18.7739 104.679 19.4132 104.679 20.1676C104.679 20.9357 104.801 21.582 105.04 22.1063C105.279 22.6306 105.61 23.0262 106.029 23.2907C106.45 23.5575 106.93 23.6909 107.473 23.6909C107.774 23.6909 108.055 23.6517 108.317 23.5713C108.582 23.4908 108.818 23.3735 109.028 23.2148C109.239 23.0584 109.416 22.8652 109.564 22.6376C109.708 22.4099 109.807 22.1477 109.865 21.8533L111.698 21.8625C111.629 22.3409 111.479 22.787 111.254 23.2056C111.026 23.6242 110.73 23.9921 110.364 24.3118C109.998 24.6292 109.57 24.8775 109.081 25.0569C108.591 25.234 108.046 25.3237 107.448 25.3237C106.567 25.3237 105.778 25.119 105.086 24.7097C104.394 24.3026 103.849 23.7115 103.451 22.9411C103.051 22.1707 102.853 21.2462 102.853 20.1676C102.853 19.0867 103.053 18.1622 103.455 17.3917C103.856 16.6236 104.403 16.0349 105.095 15.6255C105.79 15.2161 106.572 15.0138 107.448 15.0138C108.007 15.0138 108.526 15.0919 109.007 15.2483C109.488 15.4047 109.915 15.6347 110.29 15.936C110.665 16.2395 110.976 16.6075 111.219 17.0445C111.463 17.4814 111.622 17.9782 111.698 18.537ZM115.731 25.3329C114.995 25.3329 114.358 25.1719 113.82 24.8476C113.281 24.5234 112.863 24.0726 112.568 23.4908C112.272 22.9089 112.125 22.2282 112.125 21.4509C112.125 20.6735 112.272 19.9928 112.568 19.4086C112.863 18.8245 113.281 18.3691 113.82 18.0472C114.358 17.7229 114.995 17.5619 115.731 17.5619C116.464 17.5619 117.101 17.7229 117.642 18.0472C118.18 18.3691 118.598 18.8245 118.893 19.4086C119.19 19.9928 119.337 20.6735 119.337 21.4509C119.337 22.2282 119.19 22.9089 118.893 23.4908C118.598 24.0726 118.18 24.5234 117.642 24.8476C117.101 25.1719 116.464 25.3329 115.731 25.3329ZM115.74 23.9116C116.138 23.9116 116.471 23.8012 116.74 23.5805C117.007 23.3597 117.207 23.063 117.341 22.6905C117.472 22.3202 117.538 21.9039 117.538 21.4463C117.538 20.9863 117.472 20.57 117.341 20.1952C117.207 19.8203 117.007 19.5236 116.74 19.3006C116.471 19.0775 116.138 18.9671 115.74 18.9671C115.333 18.9671 114.992 19.0775 114.723 19.3006C114.454 19.5236 114.252 19.8203 114.121 20.1952C113.987 20.57 113.923 20.9863 113.923 21.4463C113.923 21.9039 113.987 22.3202 114.121 22.6905C114.252 23.063 114.454 23.3597 114.723 23.5805C114.992 23.8012 115.333 23.9116 115.74 23.9116ZM119.994 25.1857V17.6585H121.769V25.1857H119.994ZM120.886 16.5914C120.605 16.5914 120.364 16.4971 120.161 16.3085C119.959 16.1223 119.858 15.8946 119.858 15.6301C119.858 15.3633 119.959 15.1356 120.161 14.947C120.364 14.7585 120.605 14.6642 120.886 14.6642C121.171 14.6642 121.413 14.7585 121.613 14.947C121.815 15.1356 121.916 15.3633 121.916 15.6301C121.916 15.8946 121.815 16.1223 121.613 16.3085C121.413 16.4971 121.171 16.5914 120.886 16.5914ZM124.523 20.7747V25.1857H122.748V17.6585H124.445V18.9372H124.532C124.705 18.5163 124.983 18.1829 125.363 17.9345C125.744 17.6861 126.214 17.5619 126.777 17.5619C127.297 17.5619 127.75 17.6723 128.136 17.8954C128.523 18.1162 128.824 18.4381 129.038 18.859C129.252 19.2822 129.357 19.7927 129.355 20.393V25.1857H127.58V20.6666C127.58 20.1653 127.451 19.772 127.191 19.4868C126.931 19.2017 126.572 19.0614 126.115 19.0614C125.804 19.0614 125.528 19.1281 125.289 19.2637C125.05 19.3995 124.861 19.5949 124.726 19.8502C124.59 20.1032 124.523 20.4137 124.523 20.7747ZM136.267 19.6478L134.65 19.8249C134.604 19.6616 134.526 19.5075 134.414 19.3649C134.301 19.2201 134.149 19.1051 133.958 19.0154C133.77 18.928 133.537 18.8843 133.264 18.8843C132.893 18.8843 132.585 18.9648 132.335 19.1235C132.084 19.2845 131.962 19.4915 131.964 19.7467C131.962 19.9652 132.043 20.1423 132.208 20.2803C132.371 20.4182 132.645 20.5309 133.029 20.6183L134.312 20.8943C135.025 21.0461 135.554 21.2899 135.902 21.6234C136.249 21.9568 136.426 22.3915 136.428 22.9319C136.426 23.4057 136.288 23.8219 136.014 24.183C135.743 24.5441 135.363 24.827 134.88 25.0293C134.397 25.2317 133.841 25.3329 133.215 25.3329C132.293 25.3329 131.553 25.1397 130.989 24.7511C130.428 24.3647 130.092 23.8242 129.984 23.132L131.716 22.9664C131.794 23.3068 131.96 23.562 132.215 23.7346C132.47 23.9093 132.801 23.9944 133.209 23.9944C133.632 23.9944 133.97 23.9093 134.227 23.7346C134.483 23.562 134.611 23.3482 134.611 23.0929C134.611 22.8767 134.529 22.6996 134.363 22.5594C134.197 22.4191 133.942 22.311 133.597 22.2351L132.312 21.966C131.592 21.8165 131.056 21.5612 130.711 21.2048C130.364 20.846 130.194 20.393 130.196 19.8456C130.194 19.381 130.32 18.9786 130.575 18.6359C130.833 18.2955 131.189 18.0311 131.649 17.8425C132.107 17.6539 132.638 17.5619 133.238 17.5619C134.122 17.5619 134.816 17.7482 135.324 18.1254C135.833 18.5002 136.145 19.0085 136.267 19.6478ZM139.217 25.3375C138.741 25.3375 138.311 25.2524 137.931 25.0799C137.55 24.9097 137.251 24.6545 137.03 24.3187C136.809 23.9829 136.699 23.5667 136.699 23.0745C136.699 22.6491 136.777 22.2972 136.933 22.0212C137.09 21.7429 137.303 21.5199 137.575 21.3543C137.846 21.1864 138.152 21.0599 138.495 20.9748C138.835 20.8874 139.189 20.8253 139.555 20.7862C139.997 20.7402 140.353 20.6988 140.629 20.6597C140.903 20.6229 141.103 20.5631 141.229 20.485C141.353 20.4044 141.418 20.278 141.418 20.1101V20.0802C141.418 19.7099 141.307 19.4247 141.089 19.2224C140.87 19.02 140.555 18.9188 140.144 18.9188C139.709 18.9188 139.364 19.0131 139.111 19.2017C138.858 19.3925 138.688 19.6156 138.601 19.8732L136.942 19.6386C137.073 19.181 137.29 18.7992 137.591 18.4887C137.89 18.1805 138.258 17.9483 138.693 17.7942C139.127 17.6378 139.608 17.5619 140.135 17.5619C140.496 17.5619 140.857 17.6033 141.215 17.6884C141.576 17.7735 141.903 17.9138 142.202 18.1069C142.499 18.3025 142.738 18.5646 142.92 18.8981C143.101 19.2316 143.191 19.6478 143.191 20.1492V25.1857H141.487V24.1508H141.427C141.319 24.3601 141.167 24.5556 140.974 24.7373C140.778 24.9189 140.537 25.0638 140.243 25.1742C139.951 25.2823 139.61 25.3375 139.217 25.3375ZM139.677 24.0335C140.033 24.0335 140.342 23.9622 140.604 23.8219C140.866 23.6793 141.066 23.4908 141.209 23.2562C141.351 23.0193 141.422 22.764 141.422 22.4858V21.5981C141.367 21.644 141.273 21.6877 141.14 21.7268C141.008 21.7659 140.861 21.8004 140.698 21.828C140.535 21.8579 140.371 21.8855 140.213 21.9085C140.052 21.9315 139.914 21.9499 139.796 21.966C139.53 22.0028 139.293 22.0603 139.086 22.1431C138.877 22.2236 138.711 22.3386 138.589 22.4835C138.469 22.6283 138.41 22.8146 138.41 23.0446C138.41 23.3712 138.527 23.6173 138.766 23.7851C139.005 23.9507 139.309 24.0335 139.677 24.0335ZM147.948 17.6585V19.0315H143.498V17.6585H147.948ZM144.611 25.1857V16.9479C144.611 16.4419 144.717 16.0211 144.926 15.6853C145.138 15.3472 145.421 15.0965 145.777 14.9287C146.134 14.7631 146.529 14.6803 146.964 14.6803C147.27 14.6803 147.544 14.7033 147.783 14.7539C148.02 14.8022 148.197 14.8459 148.312 14.885L147.957 16.258C147.884 16.2349 147.787 16.212 147.675 16.1866C147.56 16.1613 147.433 16.1498 147.293 16.1498C146.962 16.1498 146.729 16.2281 146.594 16.3867C146.458 16.5454 146.389 16.7731 146.389 17.0652V25.1857H144.611ZM151.544 25.3329C150.79 25.3329 150.139 25.1742 149.592 24.8592C149.044 24.5441 148.623 24.0979 148.329 23.5161C148.037 22.9365 147.89 22.2535 147.89 21.467C147.89 20.6919 148.037 20.0112 148.334 19.4247C148.628 18.8383 149.042 18.3829 149.576 18.0541C150.107 17.7252 150.732 17.5619 151.452 17.5619C151.914 17.5619 152.354 17.6355 152.768 17.785C153.179 17.9322 153.547 18.1622 153.865 18.4726C154.184 18.7831 154.435 19.1764 154.617 19.657C154.801 20.1354 154.89 20.7034 154.89 21.3635V21.9085H148.722V20.7126H153.191C153.189 20.3722 153.115 20.0687 152.97 19.8019C152.827 19.5374 152.627 19.3259 152.37 19.1741C152.115 19.02 151.816 18.9418 151.475 18.9418C151.114 18.9418 150.794 19.0292 150.521 19.204C150.247 19.3787 150.033 19.6087 149.881 19.8916C149.73 20.1745 149.651 20.4827 149.649 20.8207V21.8625C149.649 22.3018 149.727 22.6767 149.888 22.9871C150.049 23.2999 150.272 23.5391 150.56 23.7024C150.847 23.8679 151.183 23.9507 151.569 23.9507C151.827 23.9507 152.062 23.9139 152.271 23.8403C152.478 23.7667 152.66 23.6587 152.814 23.5138C152.968 23.3712 153.083 23.1941 153.161 22.9802L154.819 23.1665C154.713 23.6035 154.515 23.9852 154.223 24.3118C153.929 24.6361 153.557 24.8868 153.103 25.0661C152.648 25.2432 152.128 25.3329 151.544 25.3329Z" fill="white"/>
<path d="M162.89 14V26" stroke="white" stroke-opacity="0.09"/>
<path d="M172.87 24.5L170.974 18.188H172.27L173.194 21.644C173.242 21.812 173.282 21.988 173.314 22.172C173.354 22.356 173.39 22.52 173.422 22.664C173.454 22.808 173.478 22.908 173.494 22.964H173.566C173.598 22.82 173.634 22.656 173.674 22.472C173.714 22.288 173.75 22.12 173.782 21.968C173.814 21.808 173.838 21.688 173.854 21.608L174.694 18.188H176.038L176.902 21.62C176.934 21.748 176.966 21.896 176.998 22.064C177.038 22.224 177.074 22.384 177.106 22.544C177.146 22.704 177.174 22.844 177.19 22.964H177.262C177.286 22.852 177.314 22.72 177.346 22.568C177.386 22.408 177.426 22.248 177.466 22.088C177.506 21.928 177.542 21.78 177.574 21.644L178.486 18.188H179.674L177.79 24.5H176.494L175.726 21.356C175.694 21.204 175.654 21.028 175.606 20.828C175.558 20.628 175.514 20.428 175.474 20.228C175.434 20.028 175.402 19.852 175.378 19.7H175.306C175.29 19.788 175.266 19.916 175.234 20.084C175.21 20.252 175.174 20.444 175.126 20.66C175.078 20.876 175.022 21.108 174.958 21.356L174.166 24.5H172.87ZM180.097 24.5V15.824H181.345V18.944H181.429C181.581 18.752 181.753 18.592 181.945 18.464C182.137 18.328 182.353 18.224 182.593 18.152C182.833 18.08 183.097 18.044 183.385 18.044C183.785 18.044 184.137 18.116 184.441 18.26C184.745 18.396 184.981 18.62 185.149 18.932C185.325 19.244 185.413 19.664 185.413 20.192V24.5H184.165V20.384C184.165 20.144 184.133 19.944 184.069 19.784C184.013 19.624 183.929 19.496 183.817 19.4C183.705 19.304 183.573 19.236 183.421 19.196C183.269 19.156 183.101 19.136 182.917 19.136C182.629 19.136 182.365 19.204 182.125 19.34C181.893 19.476 181.705 19.668 181.561 19.916C181.417 20.164 181.345 20.46 181.345 20.804V24.5H180.097ZM186.496 17.096V15.824H187.744V17.096H186.496ZM186.496 24.5V18.188H187.744V24.5H186.496ZM191.203 24.644C190.763 24.644 190.375 24.596 190.039 24.5C189.703 24.404 189.423 24.272 189.199 24.104C188.975 23.936 188.803 23.736 188.683 23.504C188.571 23.264 188.515 23 188.515 22.712C188.515 22.672 188.515 22.636 188.515 22.604C188.523 22.572 188.527 22.544 188.527 22.52H189.763C189.763 22.544 189.763 22.568 189.763 22.592C189.763 22.608 189.763 22.628 189.763 22.652C189.763 22.9 189.831 23.1 189.967 23.252C190.103 23.396 190.283 23.5 190.507 23.564C190.739 23.62 190.991 23.648 191.263 23.648C191.503 23.648 191.723 23.62 191.923 23.564C192.131 23.5 192.299 23.408 192.427 23.288C192.563 23.168 192.631 23.016 192.631 22.832C192.631 22.592 192.547 22.408 192.379 22.28C192.211 22.152 191.991 22.052 191.719 21.98C191.447 21.9 191.163 21.816 190.867 21.728C190.603 21.656 190.339 21.58 190.075 21.5C189.819 21.412 189.587 21.3 189.379 21.164C189.171 21.028 189.003 20.856 188.875 20.648C188.747 20.44 188.683 20.18 188.683 19.868C188.683 19.572 188.747 19.312 188.875 19.088C189.003 18.864 189.179 18.676 189.403 18.524C189.635 18.372 189.907 18.256 190.219 18.176C190.539 18.096 190.887 18.056 191.263 18.056C191.655 18.056 192.003 18.1 192.307 18.188C192.611 18.268 192.867 18.384 193.075 18.536C193.291 18.688 193.455 18.872 193.567 19.088C193.679 19.296 193.735 19.52 193.735 19.76C193.735 19.808 193.731 19.86 193.723 19.916C193.723 19.964 193.723 19.996 193.723 20.012H192.499V19.904C192.499 19.744 192.455 19.6 192.367 19.472C192.279 19.344 192.139 19.24 191.947 19.16C191.763 19.08 191.515 19.04 191.203 19.04C190.995 19.04 190.811 19.06 190.651 19.1C190.491 19.132 190.359 19.18 190.255 19.244C190.151 19.308 190.071 19.384 190.015 19.472C189.967 19.56 189.943 19.66 189.943 19.772C189.943 19.956 190.007 20.1 190.135 20.204C190.271 20.3 190.447 20.384 190.663 20.456C190.879 20.52 191.111 20.592 191.359 20.672C191.647 20.752 191.939 20.836 192.235 20.924C192.531 21.004 192.803 21.108 193.051 21.236C193.307 21.364 193.511 21.54 193.663 21.764C193.823 21.988 193.903 22.288 193.903 22.664C193.903 23.008 193.835 23.308 193.699 23.564C193.563 23.82 193.371 24.028 193.123 24.188C192.883 24.34 192.599 24.452 192.271 24.524C191.943 24.604 191.587 24.644 191.203 24.644ZM194.688 26.576V18.188H195.708L195.816 19.052H195.9C196.116 18.716 196.392 18.464 196.728 18.296C197.064 18.128 197.44 18.044 197.856 18.044C198.376 18.044 198.82 18.16 199.188 18.392C199.564 18.624 199.852 18.984 200.052 19.472C200.252 19.96 200.352 20.592 200.352 21.368C200.352 22.12 200.248 22.74 200.04 23.228C199.84 23.708 199.556 24.064 199.188 24.296C198.82 24.528 198.396 24.644 197.916 24.644C197.636 24.644 197.376 24.612 197.136 24.548C196.896 24.484 196.68 24.384 196.488 24.248C196.304 24.112 196.144 23.94 196.008 23.732H195.936V26.576H194.688ZM197.484 23.564C197.86 23.564 198.164 23.492 198.396 23.348C198.628 23.196 198.796 22.964 198.9 22.652C199.012 22.34 199.068 21.944 199.068 21.464V21.248C199.068 20.744 199.012 20.336 198.9 20.024C198.788 19.712 198.616 19.484 198.384 19.34C198.16 19.196 197.868 19.124 197.508 19.124C197.14 19.124 196.84 19.208 196.608 19.376C196.376 19.536 196.204 19.776 196.092 20.096C195.988 20.416 195.936 20.804 195.936 21.26V21.428C195.936 21.804 195.972 22.128 196.044 22.4C196.116 22.672 196.22 22.896 196.356 23.072C196.492 23.24 196.656 23.364 196.848 23.444C197.04 23.524 197.252 23.564 197.484 23.564ZM203.774 24.644C203.126 24.644 202.582 24.528 202.142 24.296C201.71 24.056 201.382 23.692 201.158 23.204C200.934 22.716 200.822 22.096 200.822 21.344C200.822 20.584 200.934 19.964 201.158 19.484C201.382 18.996 201.714 18.636 202.154 18.404C202.594 18.164 203.142 18.044 203.798 18.044C204.398 18.044 204.898 18.16 205.298 18.392C205.706 18.616 206.014 18.96 206.222 19.424C206.43 19.888 206.534 20.472 206.534 21.176V21.656H202.106C202.122 22.104 202.19 22.48 202.31 22.784C202.43 23.08 202.61 23.3 202.85 23.444C203.098 23.58 203.41 23.648 203.786 23.648C204.018 23.648 204.226 23.62 204.41 23.564C204.594 23.5 204.75 23.412 204.878 23.3C205.006 23.18 205.106 23.04 205.178 22.88C205.25 22.712 205.286 22.524 205.286 22.316H206.51C206.51 22.692 206.446 23.024 206.318 23.312C206.19 23.6 206.002 23.844 205.754 24.044C205.514 24.236 205.226 24.384 204.89 24.488C204.554 24.592 204.182 24.644 203.774 24.644ZM202.13 20.744H205.226C205.226 20.432 205.19 20.172 205.118 19.964C205.054 19.748 204.958 19.572 204.83 19.436C204.702 19.3 204.55 19.204 204.374 19.148C204.198 19.084 203.998 19.052 203.774 19.052C203.438 19.052 203.15 19.112 202.91 19.232C202.678 19.352 202.498 19.54 202.37 19.796C202.242 20.044 202.162 20.36 202.13 20.744ZM207.322 24.5V18.188H208.354L208.462 19.208H208.534C208.606 19.008 208.698 18.82 208.81 18.644C208.93 18.468 209.082 18.324 209.266 18.212C209.458 18.1 209.69 18.044 209.962 18.044C210.09 18.044 210.202 18.056 210.298 18.08C210.402 18.104 210.482 18.124 210.538 18.14V19.316H210.118C209.862 19.316 209.634 19.356 209.434 19.436C209.242 19.516 209.078 19.636 208.942 19.796C208.814 19.948 208.718 20.136 208.654 20.36C208.598 20.584 208.57 20.836 208.57 21.116V24.5H207.322Z" fill="white"/>
</svg>
