<svg width="76" height="84" viewBox="0 0 76 84" fill="none" xmlns="http://www.w3.org/2000/svg">
<path d="M75.125 38.3333V20.0417C75.125 16.625 72.5417 12.75 69.3333 11.4583L46.125 1.95834C40.9167 -0.166664 35.0417 -0.166664 29.8333 1.95834L6.625 11.4583C3.45833 12.75 0.875 16.625 0.875 20.0417V38.3333C0.875 58.7083 15.6667 77.7917 35.875 83.375C37.25 83.75 38.75 83.75 40.125 83.375C60.3333 77.7917 75.125 58.7083 75.125 38.3333ZM41.125 45.625V56.5833C41.125 58.2917 39.7083 59.7083 38 59.7083C36.2917 59.7083 34.875 58.2917 34.875 56.5833V45.625C30.6667 44.2917 27.5833 40.375 27.5833 35.75C27.5833 30 32.25 25.3333 38 25.3333C43.75 25.3333 48.4167 30 48.4167 35.75C48.4167 40.4167 45.3333 44.2917 41.125 45.625Z" fill="#79E7BA"/>
</svg>
