<svg width="16" height="14" viewBox="0 0 16 14" fill="none" xmlns="http://www.w3.org/2000/svg">
<path d="M14.84 6.98985L15.5241 6.18676L15.2267 5.96864L15.7026 5.53239L15.3358 5.25478L15.8117 4.89785L15.5043 4.6599L16 2.24072L15.2465 0M15.2465 0L10.4082 1.79456H6.37288L1.53452 0L0.781006 2.24072L1.28665 4.6599L0.969385 4.89785L1.4552 5.25478L1.08836 5.53239L1.56427 5.96864L1.26683 6.18676L1.95094 6.98985L0.909897 10.2022L1.87162 13.484L5.25253 12.552L5.90689 13.0874L7.24538 13.9995H9.53567L10.8741 13.0874L11.5285 12.552L14.9193 13.484L15.891 10.2022L14.84 6.98985" fill="#F5841F"/>
<path d="M15.246 0L9.30713 4.37237L10.4077 1.79456L15.246 0Z" fill="#E27625"/>
<path d="M1.53528 0L7.4246 4.41203L6.37364 1.79456L1.53528 0Z" fill="#E27625"/>
<path d="M13.1153 10.1452L11.529 12.5446L14.9198 13.4766L15.8914 10.1948L13.1153 10.1452Z" fill="#E27625"/>
<path d="M0.909729 10.1948L1.87145 13.4766L5.25236 12.5446L3.67592 10.1452L0.909729 10.1948Z" fill="#E27625"/>
<path d="M5.07385 6.07887L4.13196 7.49667L7.48312 7.64539L7.37406 4.05627L5.07385 6.07887Z" fill="#E27625"/>
<path d="M11.7164 6.07751L9.37653 4.01525L9.30713 7.64403L12.6583 7.49531L11.7164 6.07751Z" fill="#E27625"/>
<path d="M5.25201 12.5428L7.28452 11.5711L5.52963 10.2227L5.25201 12.5428Z" fill="#E27625"/>
<path d="M9.50543 11.5711L11.528 12.5428L11.2504 10.2227L9.50543 11.5711Z" fill="#E27625"/>
<path d="M11.528 12.5434L9.50543 11.5718L9.67398 12.8805L9.65415 13.4357L11.528 12.5434Z" fill="#D7C1B3"/>
<path d="M5.25201 12.5434L7.1358 13.4357L7.12589 12.8805L7.28452 11.5718L5.25201 12.5434Z" fill="#D7C1B3"/>
<path d="M7.16575 9.35332L5.49017 8.8675L6.67993 8.3222L7.16575 9.35332Z" fill="#2F343B"/>
<path d="M9.61481 9.35332L10.1105 8.3222L11.3003 8.8675L9.61481 9.35332Z" fill="#2F343B"/>
<path d="M5.25264 12.5446L5.55008 10.1452L3.67621 10.1948L5.25264 12.5446Z" fill="#CC6228"/>
<path d="M11.2407 10.1452L11.5282 12.5446L13.1146 10.1948L11.2407 10.1452Z" fill="#CC6228"/>
<path d="M12.6583 7.49727L9.30713 7.64599L9.61448 9.35131L10.1102 8.32019L11.3 8.86549L12.6583 7.49727Z" fill="#CC6228"/>
<path d="M5.49027 8.86549L6.68003 8.32019L7.16585 9.35131L7.48312 7.64599L4.13196 7.49727L5.49027 8.86549Z" fill="#CC6228"/>
<path d="M4.13196 7.49727L5.52993 10.2238L5.49027 8.86549L4.13196 7.49727Z" fill="#E27625"/>
<path d="M11.3005 8.86549L11.251 10.2238L12.6589 7.49727L11.3005 8.86549Z" fill="#E27625"/>
<path d="M7.48347 7.64311L7.1662 9.34844L7.56279 11.371L7.65202 8.7139L7.48347 7.64311Z" fill="#E27625"/>
<path d="M9.3082 7.64311L9.13965 8.70398L9.21897 11.371L9.61555 9.34844L9.3082 7.64311Z" fill="#E27625"/>
<path d="M9.61485 9.35037L9.21826 11.373L9.50579 11.5713L11.2508 10.2229L11.3003 8.86455L9.61485 9.35037Z" fill="#F5841F"/>
<path d="M5.49017 8.86455L5.52983 10.2229L7.28473 11.5713L7.56234 11.373L7.16575 9.35037L5.49017 8.86455Z" fill="#F5841F"/>
<path d="M9.65413 13.4349L9.67396 12.8796L9.51533 12.7507H7.26469L7.12589 12.8796L7.1358 13.4349L5.25201 12.5425L5.90638 13.0779L7.24486 14H9.53515L10.8736 13.0779L11.528 12.5425L9.65413 13.4349Z" fill="#C0AD9E"/>
<path d="M9.50587 11.5695L9.21834 11.3712H7.56259L7.28498 11.5695L7.12634 12.8783L7.26515 12.7494H9.51578L9.67442 12.8783L9.50587 11.5695Z" fill="#2F343B"/>
<path d="M15.5038 4.6599L15.9995 2.24072L15.246 0L9.50543 4.22365L11.7164 6.0777L14.8395 6.98985L15.5236 6.18676L15.2262 5.96864L15.7021 5.5423L15.3353 5.25478L15.8112 4.89785L15.5038 4.6599Z" fill="#763E1A"/>
<path d="M0.781006 2.24072L1.28665 4.6599L0.969385 4.89785L1.44529 5.26469L1.07845 5.5423L1.55435 5.96864L1.25691 6.18676L1.95094 6.98985L5.07406 6.0777L7.28503 4.22365L1.53452 0L0.781006 2.24072Z" fill="#763E1A"/>
<path d="M14.8401 6.992L11.717 6.07985L12.6589 7.49765L11.251 10.2242L13.1149 10.1944H15.891L14.8401 6.992Z" fill="#F5841F"/>
<path d="M5.07389 6.07985L1.95077 6.992L0.909729 10.1944H3.67592L5.52997 10.2242L4.132 7.49765L5.07389 6.07985Z" fill="#F5841F"/>
<path d="M9.30791 7.6408L9.50621 4.22024L10.4084 1.79114H6.37317L7.28532 4.22024L7.48361 7.6408L7.56293 8.71159V11.3687H9.21868L9.2286 8.71159L9.30791 7.6408Z" fill="#F5841F"/>
</svg>
