<svg width="100" height="100" viewBox="0 0 100 100" fill="none" xmlns="http://www.w3.org/2000/svg">
<path d="M87.125 46.3333V28.0417C87.125 24.625 84.5417 20.75 81.3333 19.4583L58.125 9.95834C52.9167 7.83334 47.0417 7.83334 41.8333 9.95834L18.625 19.4583C15.4583 20.75 12.875 24.625 12.875 28.0417V46.3333C12.875 66.7083 27.6667 85.7917 47.875 91.375C49.25 91.75 50.75 91.75 52.125 91.375C72.3333 85.7917 87.125 66.7083 87.125 46.3333ZM53.125 53.625V64.5833C53.125 66.2917 51.7083 67.7083 50 67.7083C48.2917 67.7083 46.875 66.2917 46.875 64.5833V53.625C42.6667 52.2917 39.5833 48.375 39.5833 43.75C39.5833 38 44.25 33.3333 50 33.3333C55.75 33.3333 60.4167 38 60.4167 43.75C60.4167 48.4167 57.3333 52.2917 53.125 53.625Z" fill="#FFFFFF"/>
</svg>
