<svg width="16" height="14" viewBox="0 0 16 14" fill="none" xmlns="http://www.w3.org/2000/svg">
<path d="M15.246 0L9.30713 4.37237L10.4077 1.79456L15.246 0Z" fill="#E27625"/>
<path d="M1.5354 0L7.42472 4.41203L6.37376 1.79456L1.5354 0Z" fill="#E27625"/>
<path d="M13.1154 10.1452L11.5291 12.5446L14.9199 13.4766L15.8915 10.1948L13.1154 10.1452Z" fill="#E27625"/>
<path d="M0.909668 10.1948L1.87139 13.4766L5.2523 12.5446L3.67586 10.1452L0.909668 10.1948Z" fill="#E27625"/>
<path d="M5.07397 6.07887L4.13208 7.49667L7.48324 7.64539L7.37418 4.05627L5.07397 6.07887Z" fill="#E27625"/>
<path d="M11.7164 6.07751L9.37653 4.01525L9.30713 7.64403L12.6583 7.49531L11.7164 6.07751Z" fill="#E27625"/>
<path d="M5.25195 12.5428L7.28446 11.5711L5.52956 10.2227L5.25195 12.5428Z" fill="#E27625"/>
<path d="M9.50537 11.5711L11.528 12.5428L11.2504 10.2227L9.50537 11.5711Z" fill="#E27625"/>
<path d="M11.528 12.5434L9.50537 11.5718L9.67392 12.8805L9.65409 13.4357L11.528 12.5434Z" fill="#D7C1B3"/>
<path d="M5.25195 12.5434L7.13574 13.4357L7.12583 12.8805L7.28446 11.5718L5.25195 12.5434Z" fill="#D7C1B3"/>
<path d="M7.16582 9.35332L5.49023 8.8675L6.68 8.3222L7.16582 9.35332Z" fill="#2F343B"/>
<path d="M9.61475 9.35332L10.1105 8.3222L11.3002 8.8675L9.61475 9.35332Z" fill="#2F343B"/>
<path d="M5.2527 12.5446L5.55014 10.1452L3.67627 10.1948L5.2527 12.5446Z" fill="#CC6228"/>
<path d="M11.2407 10.1452L11.5282 12.5446L13.1146 10.1948L11.2407 10.1452Z" fill="#CC6228"/>
<path d="M12.6583 7.49727L9.30713 7.64599L9.61448 9.35131L10.1102 8.32019L11.3 8.86549L12.6583 7.49727Z" fill="#CC6228"/>
<path d="M5.49039 8.86549L6.68015 8.32019L7.16597 9.35131L7.48324 7.64599L4.13208 7.49727L5.49039 8.86549Z" fill="#CC6228"/>
<path d="M4.13208 7.49727L5.53005 10.2238L5.49039 8.86549L4.13208 7.49727Z" fill="#E27625"/>
<path d="M11.3005 8.86549L11.251 10.2238L12.6589 7.49727L11.3005 8.86549Z" fill="#E27625"/>
<path d="M7.48353 7.64311L7.16626 9.34844L7.56285 11.371L7.65208 8.7139L7.48353 7.64311Z" fill="#E27625"/>
<path d="M9.3082 7.64311L9.13965 8.70398L9.21897 11.371L9.61555 9.34844L9.3082 7.64311Z" fill="#E27625"/>
<path d="M9.61485 9.35037L9.21826 11.373L9.50579 11.5713L11.2508 10.2229L11.3003 8.86455L9.61485 9.35037Z" fill="#F5841F"/>
<path d="M5.49023 8.86455L5.52989 10.2229L7.28479 11.5713L7.5624 11.373L7.16581 9.35037L5.49023 8.86455Z" fill="#F5841F"/>
<path d="M9.65407 13.4349L9.6739 12.8796L9.51526 12.7507H7.26463L7.12583 12.8796L7.13574 13.4349L5.25195 12.5425L5.90632 13.0779L7.2448 14H9.53509L10.8736 13.0779L11.5279 12.5425L9.65407 13.4349Z" fill="#C0AD9E"/>
<path d="M9.50574 11.5695L9.21822 11.3712H7.56247L7.28486 11.5695L7.12622 12.8783L7.26503 12.7494H9.51566L9.67429 12.8783L9.50574 11.5695Z" fill="#2F343B"/>
<path d="M15.5038 4.6599L15.9995 2.24072L15.246 0L9.50537 4.22365L11.7163 6.0777L14.8395 6.98985L15.5236 6.18676L15.2261 5.96864L15.702 5.5423L15.3352 5.25478L15.8111 4.89785L15.5038 4.6599Z" fill="#763E1A"/>
<path d="M0.781006 2.24072L1.28665 4.6599L0.969385 4.89785L1.44529 5.26469L1.07845 5.5423L1.55435 5.96864L1.25691 6.18676L1.95094 6.98985L5.07406 6.0777L7.28503 4.22365L1.53452 0L0.781006 2.24072Z" fill="#763E1A"/>
<path d="M14.8401 6.992L11.717 6.07985L12.6589 7.49765L11.251 10.2242L13.1149 10.1944H15.891L14.8401 6.992Z" fill="#F5841F"/>
<path d="M5.07383 6.07985L1.95071 6.992L0.909668 10.1944H3.67586L5.52991 10.2242L4.13194 7.49765L5.07383 6.07985Z" fill="#F5841F"/>
<path d="M9.30804 7.6408L9.50633 4.22024L10.4086 1.79114H6.37329L7.28544 4.22024L7.48373 7.6408L7.56305 8.71159V11.3687H9.2188L9.22872 8.71159L9.30804 7.6408Z" fill="#F5841F"/>
</svg>
