<svg width="80" height="81" viewBox="0 0 80 81" fill="none" xmlns="http://www.w3.org/2000/svg">
<rect y="0.0429688" width="80" height="80" rx="40" fill="#79E7BA"/>
<path d="M48.333 26.71H31.6663C26.6663 26.71 23.333 29.21 23.333 35.0433V40.9766C23.333 41.5933 23.9663 41.9766 24.5163 41.7266C26.1497 40.9766 28.033 40.6933 30.0163 41.0433C34.3997 41.8266 37.6163 45.8933 37.4997 50.3433C37.483 51.0433 37.383 51.7266 37.1997 52.3933C37.0663 52.91 37.483 53.3933 38.0163 53.3933H48.333C53.333 53.3933 56.6663 50.8933 56.6663 45.06V35.0433C56.6663 29.21 53.333 26.71 48.333 26.71ZM39.9997 44.21C37.6997 44.21 35.833 42.3433 35.833 40.0433C35.833 37.7433 37.6997 35.8766 39.9997 35.8766C42.2997 35.8766 44.1663 37.7433 44.1663 40.0433C44.1663 42.3433 42.2997 44.21 39.9997 44.21ZM52.083 43.3766C52.083 44.06 51.5163 44.6266 50.833 44.6266C50.1497 44.6266 49.583 44.06 49.583 43.3766V36.71C49.583 36.0266 50.1497 35.46 50.833 35.46C51.5163 35.46 52.083 36.0266 52.083 36.71V43.3766Z" fill="#060608"/>
<path d="M28.3337 43.376C26.2503 43.376 24.367 44.3593 23.1503 45.8593C22.217 47.0093 21.667 48.4593 21.667 50.0426C21.667 53.726 24.667 56.7093 28.3337 56.7093C31.2337 56.7093 33.717 54.8593 34.617 52.2593C34.867 51.576 35.0003 50.826 35.0003 50.0426C35.0003 46.376 32.017 43.376 28.3337 43.376ZM32.267 52.9426C32.2337 53.0426 32.167 53.1426 32.1003 53.2093L30.9003 54.3926C30.7503 54.5593 30.5503 54.626 30.3337 54.626C30.117 54.626 29.9003 54.5593 29.7503 54.3926C29.4837 54.1426 29.4503 53.7426 29.617 53.4426H26.267C25.2003 53.4426 24.3337 52.576 24.3337 51.4926V51.326C24.3337 50.8593 24.7003 50.5093 25.1503 50.5093C25.6003 50.5093 25.967 50.8593 25.967 51.326V51.4926C25.967 51.676 26.1003 51.826 26.2837 51.826H29.6337C29.467 51.5093 29.5003 51.126 29.767 50.8593C30.0837 50.5426 30.6003 50.5426 30.9003 50.8593L32.1003 52.0593C32.167 52.126 32.2337 52.226 32.2837 52.326C32.3503 52.5093 32.3503 52.7426 32.267 52.9426ZM32.3337 48.7593C32.3337 49.226 31.967 49.576 31.517 49.576C31.067 49.576 30.7003 49.226 30.7003 48.7593V48.5926C30.7003 48.4093 30.567 48.2593 30.3837 48.2593H27.0503C27.217 48.576 27.1837 48.9593 26.917 49.226C26.767 49.376 26.567 49.4593 26.3337 49.4593C26.1337 49.4593 25.917 49.376 25.767 49.226L24.567 48.026C24.5003 47.9593 24.4337 47.8593 24.3837 47.7593C24.317 47.5593 24.317 47.3426 24.3837 47.1426C24.4337 47.0593 24.4837 46.9426 24.567 46.876L25.767 45.6926C26.0837 45.3593 26.6003 45.3593 26.9003 45.6926C27.167 45.9426 27.2003 46.3426 27.0337 46.6426H30.3837C31.4503 46.6426 32.317 47.5093 32.317 48.5926V48.7593H32.3337Z" fill="#060608"/>
</svg>
