<svg width="86" height="15" viewBox="0 0 86 15" fill="none" xmlns="http://www.w3.org/2000/svg">
<path d="M22.3073 14.9763C20.9298 14.9763 19.7699 14.7135 18.8274 14.1879C17.9031 13.6441 17.1962 12.8195 16.7068 11.7139C16.2356 10.5902 16 9.18556 16 7.5C16 5.81444 16.2356 4.41886 16.7068 3.31328C17.1962 2.20769 17.9121 1.38304 18.8546 0.839308C19.8152 0.295577 20.9933 0.0237122 22.3888 0.0237122C23.3675 0.0237122 24.2103 0.150582 24.9172 0.404323C25.6421 0.658064 26.2402 1.02961 26.7115 1.51897C27.1827 2.00833 27.5271 2.59737 27.7446 3.28609C27.9244 3.81185 28.0356 4.3957 28.0782 5.03764C28.1006 5.37602 27.8231 5.65132 27.484 5.65132H26.2924C25.9533 5.65132 25.6821 5.37584 25.6549 5.03781C25.6099 4.47773 25.4999 4.00257 25.325 3.61233C25.1075 3.0686 24.7541 2.66986 24.2647 2.41612C23.7753 2.14426 23.1319 2.00833 22.3345 2.00833C21.537 2.00833 20.8483 2.18957 20.2683 2.55206C19.6883 2.89642 19.2443 3.44921 18.9361 4.21043C18.628 4.97165 18.474 5.97755 18.474 7.22813V7.79905C18.474 8.97713 18.619 9.95584 18.909 10.7352C19.2171 11.5145 19.6611 12.0855 20.2411 12.4479C20.8211 12.8104 21.5279 12.9917 22.3616 12.9917C23.1772 12.9917 23.8297 12.8467 24.3191 12.5567C24.8265 12.2667 25.189 11.8498 25.4065 11.3061C25.5762 10.9145 25.6848 10.4664 25.7323 9.96188C25.7641 9.62425 26.0349 9.34868 26.374 9.34868H27.484C27.8231 9.34868 28.1009 9.62407 28.0739 9.96211C28.0285 10.5304 27.9187 11.069 27.7446 11.578C27.5271 12.2667 27.1827 12.8648 26.7115 13.3723C26.2402 13.8798 25.6421 14.2785 24.9172 14.5685C24.1922 14.8404 23.3222 14.9763 22.3073 14.9763Z" fill="#F1F1F1"/>
<path d="M30.4942 14.65C30.1551 14.65 29.8802 14.3751 29.8802 14.036V0.963986C29.8802 0.624864 30.1551 0.349951 30.4942 0.349951H31.2503C31.5676 0.349951 31.8327 0.591756 31.8617 0.90776L32.0182 2.6099C32.0237 2.66954 32.0737 2.71518 32.1336 2.71518C32.184 2.71518 32.2285 2.68257 32.2446 2.6348C32.3871 2.21162 32.5776 1.81249 32.8163 1.43741C33.0701 1.02055 33.4144 0.685251 33.8494 0.431511C34.2844 0.159645 34.8191 0.0237122 35.4534 0.0237122C35.7253 0.0237122 35.97 0.0508988 36.1875 0.105272C36.2423 0.113709 36.2937 0.122637 36.3417 0.132057C36.5699 0.17687 36.704 0.388119 36.704 0.620698V1.82928C36.704 2.1684 36.4291 2.44331 36.09 2.44331H35.8068C35.1906 2.44331 34.656 2.55206 34.2028 2.76955C33.7679 2.96892 33.4054 3.2589 33.1154 3.63952C32.8254 4.02013 32.6079 4.47324 32.4629 4.99884C32.336 5.52445 32.2726 6.0863 32.2726 6.6844V14.036C32.2726 14.3751 31.9977 14.65 31.6586 14.65H30.4942Z" fill="#F1F1F1"/>
<path d="M43.4263 14.9763C41.9763 14.9763 40.7529 14.7135 39.7561 14.1879C38.7774 13.6441 38.0252 12.8195 37.4996 11.7139C36.9921 10.6083 36.7384 9.20368 36.7384 7.5C36.7384 5.77819 36.9921 4.37355 37.4996 3.28609C38.0252 2.18051 38.7774 1.36491 39.7561 0.839308C40.7529 0.295577 41.9763 0.0237122 43.4263 0.0237122C44.8762 0.0237122 46.0906 0.295577 47.0693 0.839308C48.0661 1.36491 48.8183 2.18051 49.3258 3.28609C49.8332 4.37355 50.087 5.77819 50.087 7.5C50.087 9.20368 49.8332 10.6083 49.3258 11.7139C48.8183 12.8195 48.0661 13.6441 47.0693 14.1879C46.0906 14.7135 44.8762 14.9763 43.4263 14.9763ZM43.4263 12.9645C44.3506 12.9645 45.1209 12.7832 45.7371 12.4208C46.3534 12.0583 46.8155 11.4964 47.1236 10.7352C47.4499 9.95584 47.613 8.97713 47.613 7.79905V7.20095C47.613 6.00474 47.4499 5.02603 47.1236 4.26481C46.8155 3.50358 46.3534 2.94173 45.7371 2.57924C45.1209 2.21676 44.3506 2.03551 43.4263 2.03551C42.5019 2.03551 41.7226 2.21676 41.0882 2.57924C40.472 2.94173 40.0098 3.50358 39.7017 4.26481C39.3936 5.02603 39.2396 6.00474 39.2396 7.20095V7.79905C39.2396 8.97713 39.3936 9.95584 39.7017 10.7352C40.0098 11.4964 40.472 12.0583 41.0882 12.4208C41.7226 12.7832 42.5019 12.9645 43.4263 12.9645Z" fill="#F1F1F1"/>
<path d="M55.0274 14.65C54.7629 14.65 54.5281 14.4807 54.4447 14.2297L50.66 2.84323C50.5279 2.44572 50.8238 2.03551 51.2427 2.03551H52.4221C52.6868 2.03551 52.9217 2.20513 53.005 2.45639L54.9107 8.20685C55.0194 8.58746 55.1191 9.00432 55.2097 9.45743C55.3185 9.89241 55.4181 10.3002 55.5088 10.6808C55.6035 10.9966 55.6707 11.2505 55.7104 11.4424C55.7201 11.4893 55.7611 11.5236 55.809 11.5236C55.8558 11.5236 55.8963 11.4908 55.9059 11.4449C55.9742 11.1202 56.0503 10.7568 56.1341 10.3546C56.2428 9.91959 56.3334 9.50274 56.4059 9.104C56.4965 8.70527 56.569 8.39715 56.6234 8.17966L58.4646 0.815061C58.5329 0.541713 58.7785 0.349951 59.0603 0.349951H60.6857C60.9668 0.349951 61.2119 0.540717 61.281 0.813116L63.1482 8.17966C63.2207 8.48777 63.3022 8.85026 63.3929 9.26712C63.4835 9.66585 63.5741 10.0646 63.6647 10.4633C63.7635 10.8254 63.8323 11.1501 63.8713 11.4374C63.8779 11.4865 63.9195 11.5236 63.9691 11.5236C64.0139 11.5236 64.053 11.4931 64.0638 11.4496C64.1316 11.177 64.207 10.8664 64.29 10.5177C64.3806 10.119 64.4803 9.72023 64.5891 9.32149C64.6978 8.90463 64.7975 8.54215 64.8881 8.23403L67.0178 2.43778C67.1066 2.19612 67.3367 2.03551 67.5942 2.03551H68.5831C69.0063 2.03551 69.3026 2.4535 69.1626 2.85281L65.1681 14.2393C65.0818 14.4853 64.8495 14.65 64.5887 14.65H63.0567C62.7749 14.65 62.5293 14.4583 62.461 14.1849L60.7286 7.25532C60.6561 6.91096 60.5655 6.51222 60.4567 6.05911C60.348 5.58788 60.2392 5.11665 60.1305 4.64542C60.0462 4.19043 59.9698 3.79029 59.9012 3.44498C59.8923 3.39999 59.8528 3.36765 59.8069 3.36765C59.7587 3.36765 59.718 3.40333 59.711 3.45105C59.6735 3.70884 59.614 4.0254 59.5324 4.40074C59.4599 4.8176 59.3692 5.27977 59.2605 5.78725C59.1518 6.27661 59.0249 6.76596 58.8799 7.25532L57.1475 14.1849C57.0792 14.4583 56.8335 14.65 56.5518 14.65H55.0274Z" fill="#F1F1F1"/>
<path d="M75.974 14.9763C74.5603 14.9763 73.3641 14.7135 72.3854 14.1879C71.4248 13.6441 70.6908 12.8195 70.1833 11.7139C69.694 10.6083 69.4493 9.20368 69.4493 7.5C69.4493 5.77819 69.694 4.37355 70.1833 3.28609C70.6908 2.18051 71.4339 1.36491 72.4126 0.839308C73.3913 0.295577 74.6147 0.0237122 76.0828 0.0237122C77.424 0.0237122 78.5477 0.286515 79.4539 0.812122C80.3601 1.3196 81.0398 2.08989 81.4929 3.12297C81.9641 4.13793 82.1997 5.4157 82.1997 6.95627V7.48407C82.1997 7.82319 81.9248 8.0981 81.5857 8.0981H72.5571C72.2103 8.0981 71.9304 8.38532 71.9579 8.73099C72.0265 9.59293 72.178 10.3244 72.4126 10.9255C72.7207 11.6505 73.1738 12.1851 73.7719 12.5295C74.37 12.8557 75.1222 13.0189 76.0284 13.0189C76.6446 13.0189 77.1793 12.9464 77.6324 12.8014C78.1036 12.6382 78.4933 12.4117 78.8014 12.1217C79.1277 11.8317 79.3723 11.4873 79.5355 11.0886C79.6285 10.8611 79.698 10.6218 79.7439 10.3706C79.8032 10.0461 80.0683 9.78366 80.3982 9.78366H81.5165C81.8614 9.78366 82.1421 10.0683 82.1003 10.4106C82.036 10.9367 81.9061 11.4345 81.7104 11.9042C81.4385 12.5386 81.0398 13.0823 80.5142 13.5354C79.9886 13.9885 79.3452 14.3419 78.5839 14.5957C77.8227 14.8494 76.9527 14.9763 75.974 14.9763ZM72.046 5.64704C71.9971 6.00033 72.2813 6.30379 72.6379 6.30379H79.1117C79.4509 6.30379 79.7288 6.02847 79.7063 5.69009C79.6707 5.15607 79.5866 4.69003 79.4539 4.29199C79.2727 3.74826 79.0099 3.30422 78.6655 2.95985C78.3393 2.61549 77.9496 2.37081 77.4965 2.22582C77.0615 2.0627 76.5631 1.98114 76.0012 1.98114C75.1675 1.98114 74.4607 2.1352 73.8807 2.44331C73.3007 2.75142 72.8566 3.22266 72.5485 3.85701C72.311 4.34599 72.1435 4.94267 72.046 5.64704Z" fill="#F1F1F1"/>
<rect x="83.1498" y="13.0761" width="2.8502" height="1.90013" rx="0.614035" fill="#00F2FE"/>
</svg>
