<svg width="80" height="81" viewBox="0 0 80 81" fill="none" xmlns="http://www.w3.org/2000/svg">
<rect y="0.0429688" width="80" height="80" rx="40" fill="#79E7BA"/>
<path d="M40 32.6055C36.6925 32.6055 36.0625 33.988 36.0625 36.543V37.628H43.9375V36.543C43.9375 33.988 43.3075 32.6055 40 32.6055Z" fill="#060608"/>
<path d="M40.0002 45.4672C41.0633 45.4672 41.9252 44.6053 41.9252 43.5422C41.9252 42.479 41.0633 41.6172 40.0002 41.6172C38.937 41.6172 38.0752 42.479 38.0752 43.5422C38.0752 44.6053 38.937 45.4672 40.0002 45.4672Z" fill="#060608"/>
<path d="M40 22.543C30.34 22.543 22.5 30.383 22.5 40.043C22.5 49.703 30.34 57.543 40 57.543C49.66 57.543 57.5 49.703 57.5 40.043C57.5 30.383 49.66 22.543 40 22.543ZM49.415 44.418C49.415 48.268 48.225 49.458 44.375 49.458H35.625C31.775 49.458 30.585 48.268 30.585 44.418V42.668C30.585 39.6755 31.3025 38.293 33.4375 37.8205V36.543C33.4375 34.9155 33.4375 29.9805 40 29.9805C46.5625 29.9805 46.5625 34.9155 46.5625 36.543V37.8205C48.6975 38.293 49.415 39.6755 49.415 42.668V44.418Z" fill="#060608"/>
</svg>
